<svg width="52" height="52" viewBox="0 0 52 52" fill="none" xmlns="http://www.w3.org/2000/svg">
<path d="M16.3878 31.2C24.5683 31.2 31.1999 24.5684 31.1999 16.3879C31.1999 8.20736 24.5683 1.57574 16.3878 1.57574C8.2073 1.57574 1.57568 8.20736 1.57568 16.3879C1.57568 24.5684 8.2073 31.2 16.3878 31.2Z" stroke="#FFE7AA" stroke-miterlimit="10" stroke-linecap="round" stroke-linejoin="round"/>
<path d="M13.6304 26.5515V23.7151" stroke="#FFE7AA" stroke-miterlimit="10" stroke-linecap="round" stroke-linejoin="round"/>
<path d="M18.1211 26.5515V23.9515" stroke="#FFE7AA" stroke-miterlimit="10" stroke-linecap="round" stroke-linejoin="round"/>
<path d="M10.4785 8.98181H18.5149C20.5634 8.98181 22.2179 10.6364 22.2179 12.6848C22.2179 14.7333 20.5634 16.3879 18.5149 16.3879H12.4482" stroke="#FFE7AA" stroke-miterlimit="10" stroke-linecap="round" stroke-linejoin="round"/>
<path d="M12.6058 16.3879H18.5149C20.5634 16.3879 22.2179 18.0424 22.2179 20.0909C22.2179 22.1394 20.5634 23.7939 18.5149 23.7939H10.4785" stroke="#FFE7AA" stroke-miterlimit="10" stroke-linecap="round" stroke-linejoin="round"/>
<path d="M12.4482 8.98181V23.7151" stroke="#FFE7AA" stroke-miterlimit="10" stroke-linecap="round" stroke-linejoin="round"/>
<path d="M13.6304 8.90303V6.22424" stroke="#FFE7AA" stroke-miterlimit="10" stroke-linecap="round" stroke-linejoin="round"/>
<path d="M18.1211 8.90303V6.22424" stroke="#FFE7AA" stroke-miterlimit="10" stroke-linecap="round" stroke-linejoin="round"/>
<path d="M35.6121 35.6909C33.4848 35.6909 31.7515 33.9576 31.7515 31.8303C31.7515 29.7031 33.4848 27.9697 35.6121 27.9697C37.7393 27.9697 39.4727 29.7031 39.4727 31.8303" stroke="#FFE7AA" stroke-miterlimit="10" stroke-linecap="round" stroke-linejoin="round"/>
<path d="M35.6121 35.6909C37.7393 35.6909 39.4727 37.4243 39.4727 39.5515C39.4727 41.6788 37.7393 43.4121 35.6121 43.4121C33.4848 43.4121 31.7515 41.6788 31.7515 39.5515" stroke="#FFE7AA" stroke-miterlimit="10" stroke-linecap="round" stroke-linejoin="round"/>
<path d="M35.6118 28.0485V26.3939" stroke="#FFE7AA" stroke-miterlimit="10" stroke-linecap="round" stroke-linejoin="round"/>
<path d="M35.6118 43.4121V44.8303" stroke="#FFE7AA" stroke-miterlimit="10" stroke-linecap="round" stroke-linejoin="round"/>
<path d="M30.0968 21.903C31.8301 21.1939 33.6422 20.8788 35.6119 20.8788C43.8059 20.8788 50.424 27.497 50.424 35.6909C50.424 43.8848 43.8059 50.4242 35.6119 50.4242C27.418 50.4242 20.7998 43.8061 20.7998 35.6121C20.7998 33.8 21.115 32.1455 21.6665 30.5697" stroke="#FFE7AA" stroke-miterlimit="10" stroke-linecap="round" stroke-linejoin="round"/>
<path d="M14.8584 45.7333C9.26446 45.7333 4.77355 41.2424 4.77355 35.6484" stroke="#FFE7AA" stroke-miterlimit="10" stroke-linecap="round" stroke-linejoin="round"/>
<path d="M12.4948 47.1515L14.8584 45.7333L12.8887 43.9212" stroke="#FFE7AA" stroke-miterlimit="10" stroke-linecap="round" stroke-linejoin="round"/>
<path d="M37.375 6.29315C42.9689 6.29315 47.4598 10.7841 47.4598 16.378" stroke="#FFE7AA" stroke-miterlimit="10" stroke-linecap="round" stroke-linejoin="round"/>
<path d="M39.7386 4.875L37.375 6.29318L39.3447 8.1053" stroke="#FFE7AA" stroke-miterlimit="10" stroke-linecap="round" stroke-linejoin="round"/>
</svg>
