<svg width="42" height="42" viewBox="0 0 42 42" fill="none" xmlns="http://www.w3.org/2000/svg">
<path fill-rule="evenodd" clip-rule="evenodd" d="M9.50627 20.7779C15.6282 18.1107 19.7104 16.3523 21.753 15.5027C27.5849 13.077 28.7968 12.6557 29.5866 12.6417C29.7603 12.6387 30.1488 12.6817 30.4004 12.8859C30.6128 13.0583 30.6713 13.2912 30.6992 13.4546C30.7272 13.6181 30.762 13.9904 30.7344 14.2813C30.4183 17.6019 29.0508 25.6601 28.3551 29.3792C28.0608 30.9529 27.4811 31.4806 26.92 31.5322C25.7005 31.6444 24.7744 30.7263 23.5933 29.952C21.745 28.7405 20.7009 27.9862 18.9068 26.804C16.8334 25.4377 18.1775 24.6867 19.3591 23.4595C19.6683 23.1383 25.0415 18.251 25.1455 17.8076C25.1585 17.7522 25.1706 17.5455 25.0478 17.4363C24.925 17.3272 24.7438 17.3645 24.613 17.3942C24.4276 17.4363 21.475 19.3879 15.7551 23.249C14.917 23.8245 14.1579 24.1049 13.4777 24.0902C12.7279 24.074 11.2856 23.6662 10.2133 23.3177C8.89822 22.8902 7.85298 22.6642 7.944 21.9381C7.99141 21.56 8.51216 21.1732 9.50627 20.7779Z" fill="white"/>
</svg>
