<svg width="52" height="52" viewBox="0 0 52 52" fill="none" xmlns="http://www.w3.org/2000/svg">
<mask id="path-1-inside-1_732_286" fill="white">
<path d="M50.0138 27.6078L47.8839 26.9255C47.6111 26.838 47.3961 26.6203 47.3088 26.3429C46.8599 24.9157 46.1825 23.5757 45.2953 22.3602C44.891 21.8062 44.4414 21.2772 43.9503 20.7735C44.2645 19.395 44.4353 17.8349 44.4132 16.4871C44.3815 14.5589 43.9962 13.428 43.2353 13.0295C42.8255 12.8146 41.5783 12.1617 34.8277 15.2519C34.6679 15.325 34.5186 15.4151 34.3803 15.5183C33.9252 15.396 33.4601 15.2829 32.9921 15.1813C32.9357 15.169 32.8776 15.1581 32.8208 15.1462C33.3679 13.9512 33.6873 12.6533 33.7473 11.3135C33.766 10.8959 33.4427 10.5422 33.0251 10.5236C32.6086 10.5029 32.2538 10.8281 32.2352 11.2458C32.1366 13.4487 31.2228 15.5215 29.6621 17.0822C28.7297 18.0147 27.6379 18.692 26.4743 19.1186C24.4564 18.8354 22.4009 18.8354 20.383 19.1186C19.2193 18.692 18.1276 18.0147 17.1951 17.0822C15.5301 15.4172 14.6131 13.2035 14.6131 10.8487C14.6131 8.49391 15.5301 6.28026 17.1951 4.61524C18.8602 2.95013 21.074 2.03312 23.4286 2.03312C25.7833 2.03312 27.9971 2.95013 29.6621 4.61524C30.3312 5.28434 30.8841 6.04788 31.3055 6.88445C31.4935 7.2578 31.9486 7.40811 32.3219 7.22002C32.6952 7.03212 32.8454 6.57702 32.6574 6.20378C32.1635 5.22279 31.5159 4.32833 30.7325 3.54487C28.7816 1.59396 26.1877 0.519531 23.4287 0.519531C20.6698 0.519531 18.0759 1.59396 16.125 3.54487C14.1741 5.49589 13.0996 8.0897 13.0996 10.8486C13.0996 13.6076 14.1741 16.2015 16.125 18.1524C16.6877 18.7152 17.3 19.1991 17.9475 19.6045C17.9477 19.6045 17.9479 19.6044 17.9481 19.6044C17.4776 19.7267 17.0106 19.864 16.5488 20.0184C16.1524 20.151 15.9385 20.5796 16.071 20.9761C16.2035 21.3725 16.6324 21.5864 17.0287 21.454C21.1558 20.0743 25.7017 20.0743 29.8288 21.454C29.9084 21.4806 29.9893 21.4932 30.0688 21.4932C30.3854 21.4932 30.6805 21.2929 30.7864 20.9761C30.919 20.5797 30.7051 20.151 30.3087 20.0184C29.8469 19.864 29.3799 19.7266 28.9094 19.6044C28.9096 19.6044 28.9098 19.6045 28.91 19.6045C29.5576 19.1991 30.1697 18.7152 30.7325 18.1524C31.2304 17.6545 31.6698 17.1109 32.0514 16.5331C32.26 16.5736 32.4671 16.6161 32.6711 16.6604C32.9429 16.7194 33.2135 16.7827 33.4816 16.8493C33.4732 16.8822 33.4645 16.915 33.4575 16.9484C33.0885 18.6998 33.1124 20.2489 33.5287 21.5522C33.9029 22.7237 34.5782 23.6728 35.5356 24.3733C36.6641 25.1988 38.0264 25.5554 39.2605 25.5554C40.1893 25.5554 41.0456 25.3533 41.6744 24.9971C42.3858 24.5942 42.9818 23.7452 43.4535 22.4706C43.6716 22.7252 43.8783 22.9859 44.073 23.2528C44.8629 24.3348 45.4659 25.5274 45.8652 26.7971C46.0997 27.5429 46.6819 28.1297 47.4224 28.3671L49.5523 29.0494C50.1112 29.2284 50.4867 29.7428 50.4867 30.3297V33.8615C50.4867 34.4483 50.1112 34.9627 49.5523 35.1418L46.1206 36.241C45.5716 36.417 45.107 36.7943 44.8123 37.3035C43.4641 39.6336 41.3444 41.5618 38.5117 43.0345C38.1845 43.2048 37.9578 43.5094 37.8895 43.8704L36.7904 49.6902C36.76 49.8506 36.6196 49.9669 36.4564 49.9669H32.8827C32.7195 49.9669 32.579 49.8505 32.5486 49.6902L31.9399 46.4738C31.82 45.841 31.2265 45.4206 30.5877 45.5174C29.0483 45.7502 27.4621 45.8681 25.8734 45.8681C24.6914 45.8681 23.5245 45.8022 22.405 45.6721C21.786 45.6009 21.2093 46.0229 21.0936 46.6341L20.5151 49.6902C20.4847 49.8506 20.3443 49.9669 20.1811 49.9669H16.6074C16.4442 49.9669 16.3037 49.8505 16.273 49.6878L15.2147 44.191C15.1465 43.8369 14.9241 43.5357 14.6041 43.3648C9.77539 40.787 7.22313 36.4804 7.22313 30.9107C7.22313 28.0966 7.8388 25.6082 9.05298 23.5144C10.186 21.5604 11.8409 19.9449 13.9715 18.7124C14.3333 18.5031 14.4569 18.0402 14.2477 17.6783C14.0385 17.3165 13.5756 17.1931 13.2137 17.4022C9.08223 19.7921 6.59039 23.4793 5.90434 28.1623V28.1622C5.83152 28.1556 5.75859 28.1493 5.68598 28.1418C5.69918 27.6365 5.60777 27.1267 5.40871 26.6319C4.96966 25.5405 4.06778 24.7528 3.11096 24.6251C2.35696 24.5241 1.63942 24.8443 1.14146 25.5022C0.419453 26.4563 0.537164 27.2113 0.762937 27.6766C1.1441 28.462 2.12388 29.0176 3.74979 29.3668C3.7051 29.4338 3.65595 29.501 3.60212 29.5685C2.64144 30.7734 1.50962 31.0398 0.774719 31.0649C0.3445 31.0794 0 31.4248 0 31.8553V31.859C0 32.2836 0.335055 32.6299 0.759281 32.6493C0.813617 32.6519 0.870391 32.6532 0.9295 32.6532C1.85941 32.6532 3.35187 32.3102 4.78573 30.5123C5.01211 30.2285 5.19655 29.9291 5.33833 29.6197C5.48112 29.6359 5.61834 29.6497 5.74976 29.6619C5.74976 29.6616 5.74976 29.6614 5.74986 29.6611C5.72406 30.0712 5.70974 30.4873 5.70974 30.9107C5.70974 34.062 6.461 36.8717 7.94249 39.2622C9.30851 41.4661 11.2643 43.2706 13.7575 44.6277L14.7863 49.9715C14.9517 50.8458 15.7176 51.4803 16.6074 51.4803H20.1811C21.0709 51.4803 21.8368 50.8458 22.0022 49.9715L22.5252 47.2082C23.6116 47.3233 24.7363 47.3816 25.8732 47.3816C27.4333 47.3816 28.9914 47.2729 30.51 47.0584L31.0614 49.9717C31.2269 50.846 31.9928 51.4804 32.8825 51.4804H36.4562C37.346 51.4804 38.1118 50.8459 38.2774 49.9713L39.3475 44.3051C42.3709 42.7064 44.6497 40.6063 46.1222 38.0615C46.2283 37.8781 46.3917 37.7435 46.5823 37.6825L50.0138 36.5833C51.2018 36.2025 52 35.1088 52 33.8613V30.3294C52 29.0821 51.2018 27.9883 50.0138 27.6078ZM42.786 18.6137C42.4948 21.1046 41.7134 23.2354 40.9284 23.68C40.036 24.1855 37.9758 24.2831 36.429 23.1516C34.8804 22.0188 34.365 19.9816 34.9383 17.2604C34.9959 16.9871 35.1901 16.7505 35.4577 16.6281C39.2464 14.8938 41.4307 14.3265 42.2422 14.3265C42.3647 14.3265 42.4559 14.3394 42.5166 14.3632C42.7604 14.623 43.0801 16.0998 42.786 18.6137ZM2.12479 27.0158C2.04648 26.8543 2.23133 26.5704 2.34853 26.4154C2.53429 26.1701 2.70542 26.1199 2.83471 26.1199C2.86203 26.1199 2.88752 26.1221 2.91088 26.1253C3.25884 26.1717 3.74634 26.5546 4.00461 27.1965C4.06545 27.3477 4.14446 27.598 4.16295 27.9102C3.11533 27.6932 2.30141 27.3803 2.12479 27.0158Z"/>
</mask>
<path d="M50.0138 27.6078L47.8839 26.9255C47.6111 26.838 47.3961 26.6203 47.3088 26.3429C46.8599 24.9157 46.1825 23.5757 45.2953 22.3602C44.891 21.8062 44.4414 21.2772 43.9503 20.7735C44.2645 19.395 44.4353 17.8349 44.4132 16.4871C44.3815 14.5589 43.9962 13.428 43.2353 13.0295C42.8255 12.8146 41.5783 12.1617 34.8277 15.2519C34.6679 15.325 34.5186 15.4151 34.3803 15.5183C33.9252 15.396 33.4601 15.2829 32.9921 15.1813C32.9357 15.169 32.8776 15.1581 32.8208 15.1462C33.3679 13.9512 33.6873 12.6533 33.7473 11.3135C33.766 10.8959 33.4427 10.5422 33.0251 10.5236C32.6086 10.5029 32.2538 10.8281 32.2352 11.2458C32.1366 13.4487 31.2228 15.5215 29.6621 17.0822C28.7297 18.0147 27.6379 18.692 26.4743 19.1186C24.4564 18.8354 22.4009 18.8354 20.383 19.1186C19.2193 18.692 18.1276 18.0147 17.1951 17.0822C15.5301 15.4172 14.6131 13.2035 14.6131 10.8487C14.6131 8.49391 15.5301 6.28026 17.1951 4.61524C18.8602 2.95013 21.074 2.03312 23.4286 2.03312C25.7833 2.03312 27.9971 2.95013 29.6621 4.61524C30.3312 5.28434 30.8841 6.04788 31.3055 6.88445C31.4935 7.2578 31.9486 7.40811 32.3219 7.22002C32.6952 7.03212 32.8454 6.57702 32.6574 6.20378C32.1635 5.22279 31.5159 4.32833 30.7325 3.54487C28.7816 1.59396 26.1877 0.519531 23.4287 0.519531C20.6698 0.519531 18.0759 1.59396 16.125 3.54487C14.1741 5.49589 13.0996 8.0897 13.0996 10.8486C13.0996 13.6076 14.1741 16.2015 16.125 18.1524C16.6877 18.7152 17.3 19.1991 17.9475 19.6045C17.9477 19.6045 17.9479 19.6044 17.9481 19.6044C17.4776 19.7267 17.0106 19.864 16.5488 20.0184C16.1524 20.151 15.9385 20.5796 16.071 20.9761C16.2035 21.3725 16.6324 21.5864 17.0287 21.454C21.1558 20.0743 25.7017 20.0743 29.8288 21.454C29.9084 21.4806 29.9893 21.4932 30.0688 21.4932C30.3854 21.4932 30.6805 21.2929 30.7864 20.9761C30.919 20.5797 30.7051 20.151 30.3087 20.0184C29.8469 19.864 29.3799 19.7266 28.9094 19.6044C28.9096 19.6044 28.9098 19.6045 28.91 19.6045C29.5576 19.1991 30.1697 18.7152 30.7325 18.1524C31.2304 17.6545 31.6698 17.1109 32.0514 16.5331C32.26 16.5736 32.4671 16.6161 32.6711 16.6604C32.9429 16.7194 33.2135 16.7827 33.4816 16.8493C33.4732 16.8822 33.4645 16.915 33.4575 16.9484C33.0885 18.6998 33.1124 20.2489 33.5287 21.5522C33.9029 22.7237 34.5782 23.6728 35.5356 24.3733C36.6641 25.1988 38.0264 25.5554 39.2605 25.5554C40.1893 25.5554 41.0456 25.3533 41.6744 24.9971C42.3858 24.5942 42.9818 23.7452 43.4535 22.4706C43.6716 22.7252 43.8783 22.9859 44.073 23.2528C44.8629 24.3348 45.4659 25.5274 45.8652 26.7971C46.0997 27.5429 46.6819 28.1297 47.4224 28.3671L49.5523 29.0494C50.1112 29.2284 50.4867 29.7428 50.4867 30.3297V33.8615C50.4867 34.4483 50.1112 34.9627 49.5523 35.1418L46.1206 36.241C45.5716 36.417 45.107 36.7943 44.8123 37.3035C43.4641 39.6336 41.3444 41.5618 38.5117 43.0345C38.1845 43.2048 37.9578 43.5094 37.8895 43.8704L36.7904 49.6902C36.76 49.8506 36.6196 49.9669 36.4564 49.9669H32.8827C32.7195 49.9669 32.579 49.8505 32.5486 49.6902L31.9399 46.4738C31.82 45.841 31.2265 45.4206 30.5877 45.5174C29.0483 45.7502 27.4621 45.8681 25.8734 45.8681C24.6914 45.8681 23.5245 45.8022 22.405 45.6721C21.786 45.6009 21.2093 46.0229 21.0936 46.6341L20.5151 49.6902C20.4847 49.8506 20.3443 49.9669 20.1811 49.9669H16.6074C16.4442 49.9669 16.3037 49.8505 16.273 49.6878L15.2147 44.191C15.1465 43.8369 14.9241 43.5357 14.6041 43.3648C9.77539 40.787 7.22313 36.4804 7.22313 30.9107C7.22313 28.0966 7.8388 25.6082 9.05298 23.5144C10.186 21.5604 11.8409 19.9449 13.9715 18.7124C14.3333 18.5031 14.4569 18.0402 14.2477 17.6783C14.0385 17.3165 13.5756 17.1931 13.2137 17.4022C9.08223 19.7921 6.59039 23.4793 5.90434 28.1623V28.1622C5.83152 28.1556 5.75859 28.1493 5.68598 28.1418C5.69918 27.6365 5.60777 27.1267 5.40871 26.6319C4.96966 25.5405 4.06778 24.7528 3.11096 24.6251C2.35696 24.5241 1.63942 24.8443 1.14146 25.5022C0.419453 26.4563 0.537164 27.2113 0.762937 27.6766C1.1441 28.462 2.12388 29.0176 3.74979 29.3668C3.7051 29.4338 3.65595 29.501 3.60212 29.5685C2.64144 30.7734 1.50962 31.0398 0.774719 31.0649C0.3445 31.0794 0 31.4248 0 31.8553V31.859C0 32.2836 0.335055 32.6299 0.759281 32.6493C0.813617 32.6519 0.870391 32.6532 0.9295 32.6532C1.85941 32.6532 3.35187 32.3102 4.78573 30.5123C5.01211 30.2285 5.19655 29.9291 5.33833 29.6197C5.48112 29.6359 5.61834 29.6497 5.74976 29.6619C5.74976 29.6616 5.74976 29.6614 5.74986 29.6611C5.72406 30.0712 5.70974 30.4873 5.70974 30.9107C5.70974 34.062 6.461 36.8717 7.94249 39.2622C9.30851 41.4661 11.2643 43.2706 13.7575 44.6277L14.7863 49.9715C14.9517 50.8458 15.7176 51.4803 16.6074 51.4803H20.1811C21.0709 51.4803 21.8368 50.8458 22.0022 49.9715L22.5252 47.2082C23.6116 47.3233 24.7363 47.3816 25.8732 47.3816C27.4333 47.3816 28.9914 47.2729 30.51 47.0584L31.0614 49.9717C31.2269 50.846 31.9928 51.4804 32.8825 51.4804H36.4562C37.346 51.4804 38.1118 50.8459 38.2774 49.9713L39.3475 44.3051C42.3709 42.7064 44.6497 40.6063 46.1222 38.0615C46.2283 37.8781 46.3917 37.7435 46.5823 37.6825L50.0138 36.5833C51.2018 36.2025 52 35.1088 52 33.8613V30.3294C52 29.0821 51.2018 27.9883 50.0138 27.6078ZM42.786 18.6137C42.4948 21.1046 41.7134 23.2354 40.9284 23.68C40.036 24.1855 37.9758 24.2831 36.429 23.1516C34.8804 22.0188 34.365 19.9816 34.9383 17.2604C34.9959 16.9871 35.1901 16.7505 35.4577 16.6281C39.2464 14.8938 41.4307 14.3265 42.2422 14.3265C42.3647 14.3265 42.4559 14.3394 42.5166 14.3632C42.7604 14.623 43.0801 16.0998 42.786 18.6137ZM2.12479 27.0158C2.04648 26.8543 2.23133 26.5704 2.34853 26.4154C2.53429 26.1701 2.70542 26.1199 2.83471 26.1199C2.86203 26.1199 2.88752 26.1221 2.91088 26.1253C3.25884 26.1717 3.74634 26.5546 4.00461 27.1965C4.06545 27.3477 4.14446 27.598 4.16295 27.9102C3.11533 27.6932 2.30141 27.3803 2.12479 27.0158Z" fill="black" stroke="#FFE7AA" stroke-width="2" mask="url(#path-1-inside-1_732_286)"/>
</svg>
