<svg width="52" height="52" viewBox="0 0 52 52" fill="none" xmlns="http://www.w3.org/2000/svg">
<mask id="path-1-inside-1_732_322" fill="white">
<path d="M46.6005 47.5901H46.4399V28.2691C46.4399 26.7657 45.2165 25.5423 43.7131 25.5423H36.2641C34.7606 25.5423 33.5372 26.7657 33.5372 28.2691V47.5901H32.451V19.7344C32.451 18.231 31.2281 17.0076 29.7248 17.0076H22.2758C20.7723 17.0076 19.5489 18.231 19.5489 19.7344V47.5901H18.4627V32.9248C18.4627 31.4214 17.2393 30.198 15.7359 30.198H8.28696C6.78353 30.198 5.56011 31.4214 5.56011 32.9248V47.5901H5.40014C4.34918 47.5901 3.49463 48.4446 3.49463 49.4956C3.49463 50.5466 4.34918 51.4011 5.40014 51.4011H46.6004C47.6508 51.4011 48.5054 50.5466 48.5054 49.4956C48.5054 48.4446 47.6509 47.5901 46.6005 47.5901ZM34.3353 28.2691C34.3353 27.2058 35.2008 26.3402 36.2642 26.3402H43.7132C44.7765 26.3402 45.6421 27.2058 45.6421 28.2691V47.5901H34.3353V28.2691ZM20.347 19.7344C20.347 18.6711 21.2125 17.8055 22.2759 17.8055H29.7249C30.7882 17.8055 31.6532 18.6711 31.6532 19.7344V47.5901H20.347V19.7344ZM6.35808 32.9248C6.35808 31.8615 7.2236 30.996 8.28696 30.996H15.736C16.7993 30.996 17.6648 31.8615 17.6648 32.9248V47.5901H6.35808V32.9248ZM46.6005 50.6031H5.40014C4.78925 50.6031 4.29261 50.1065 4.29261 49.4956C4.29261 48.8847 4.78925 48.388 5.40014 48.388H46.6004C47.2108 48.388 47.7074 48.8847 47.7074 49.4956C47.7074 50.1065 47.2109 50.6031 46.6005 50.6031Z"/>
</mask>
<path d="M46.6005 47.5901H46.4399V28.2691C46.4399 26.7657 45.2165 25.5423 43.7131 25.5423H36.2641C34.7606 25.5423 33.5372 26.7657 33.5372 28.2691V47.5901H32.451V19.7344C32.451 18.231 31.2281 17.0076 29.7248 17.0076H22.2758C20.7723 17.0076 19.5489 18.231 19.5489 19.7344V47.5901H18.4627V32.9248C18.4627 31.4214 17.2393 30.198 15.7359 30.198H8.28696C6.78353 30.198 5.56011 31.4214 5.56011 32.9248V47.5901H5.40014C4.34918 47.5901 3.49463 48.4446 3.49463 49.4956C3.49463 50.5466 4.34918 51.4011 5.40014 51.4011H46.6004C47.6508 51.4011 48.5054 50.5466 48.5054 49.4956C48.5054 48.4446 47.6509 47.5901 46.6005 47.5901ZM34.3353 28.2691C34.3353 27.2058 35.2008 26.3402 36.2642 26.3402H43.7132C44.7765 26.3402 45.6421 27.2058 45.6421 28.2691V47.5901H34.3353V28.2691ZM20.347 19.7344C20.347 18.6711 21.2125 17.8055 22.2759 17.8055H29.7249C30.7882 17.8055 31.6532 18.6711 31.6532 19.7344V47.5901H20.347V19.7344ZM6.35808 32.9248C6.35808 31.8615 7.2236 30.996 8.28696 30.996H15.736C16.7993 30.996 17.6648 31.8615 17.6648 32.9248V47.5901H6.35808V32.9248ZM46.6005 50.6031H5.40014C4.78925 50.6031 4.29261 50.1065 4.29261 49.4956C4.29261 48.8847 4.78925 48.388 5.40014 48.388H46.6004C47.2108 48.388 47.7074 48.8847 47.7074 49.4956C47.7074 50.1065 47.2109 50.6031 46.6005 50.6031Z" fill="black"/>
<path d="M46.4399 47.5901H45.4399V48.5901H46.4399V47.5901ZM33.5372 47.5901V48.5901H34.5372V47.5901H33.5372ZM32.451 47.5901H31.451V48.5901H32.451V47.5901ZM19.5489 47.5901V48.5901H20.5489V47.5901H19.5489ZM18.4627 47.5901H17.4627V48.5901H18.4627V47.5901ZM5.56011 47.5901V48.5901H6.56011V47.5901H5.56011ZM45.6421 47.5901V48.5901H46.6421V47.5901H45.6421ZM34.3353 47.5901H33.3353V48.5901H34.3353V47.5901ZM31.6532 47.5901V48.5901H32.6532V47.5901H31.6532ZM20.347 47.5901H19.347V48.5901H20.347V47.5901ZM17.6648 47.5901V48.5901H18.6648V47.5901H17.6648ZM6.35808 47.5901H5.35808V48.5901H6.35808V47.5901ZM46.6005 46.5901H46.4399V48.5901H46.6005V46.5901ZM47.4399 47.5901V28.2691H45.4399V47.5901H47.4399ZM47.4399 28.2691C47.4399 26.2134 45.7688 24.5423 43.7131 24.5423V26.5423C44.6642 26.5423 45.4399 27.318 45.4399 28.2691H47.4399ZM43.7131 24.5423H36.2641V26.5423H43.7131V24.5423ZM36.2641 24.5423C34.2084 24.5423 32.5372 26.2134 32.5372 28.2691H34.5372C34.5372 27.318 35.3129 26.5423 36.2641 26.5423V24.5423ZM32.5372 28.2691V47.5901H34.5372V28.2691H32.5372ZM33.5372 46.5901H32.451V48.5901H33.5372V46.5901ZM33.451 47.5901V19.7344H31.451V47.5901H33.451ZM33.451 19.7344C33.451 17.679 31.7807 16.0076 29.7248 16.0076V18.0076C30.6756 18.0076 31.451 18.783 31.451 19.7344H33.451ZM29.7248 16.0076H22.2758V18.0076H29.7248V16.0076ZM22.2758 16.0076C20.2201 16.0076 18.5489 17.6787 18.5489 19.7344H20.5489C20.5489 18.7833 21.3246 18.0076 22.2758 18.0076V16.0076ZM18.5489 19.7344V47.5901H20.5489V19.7344H18.5489ZM19.5489 46.5901H18.4627V48.5901H19.5489V46.5901ZM19.4627 47.5901V32.9248H17.4627V47.5901H19.4627ZM19.4627 32.9248C19.4627 30.8691 17.7916 29.198 15.7359 29.198V31.198C16.687 31.198 17.4627 31.9737 17.4627 32.9248H19.4627ZM15.7359 29.198H8.28696V31.198H15.7359V29.198ZM8.28696 29.198C6.23124 29.198 4.56011 30.8691 4.56011 32.9248H6.56011C6.56011 31.9737 7.33581 31.198 8.28696 31.198V29.198ZM4.56011 32.9248V47.5901H6.56011V32.9248H4.56011ZM5.56011 46.5901H5.40014V48.5901H5.56011V46.5901ZM5.40014 46.5901C3.79689 46.5901 2.49463 47.8923 2.49463 49.4956H4.49463C4.49463 48.9969 4.90146 48.5901 5.40014 48.5901V46.5901ZM2.49463 49.4956C2.49463 51.0988 3.79689 52.4011 5.40014 52.4011V50.4011C4.90146 50.4011 4.49463 49.9943 4.49463 49.4956H2.49463ZM5.40014 52.4011H46.6004V50.4011H5.40014V52.4011ZM46.6004 52.4011C48.2032 52.4011 49.5054 51.0987 49.5054 49.4956H47.5054C47.5054 49.9944 47.0983 50.4011 46.6004 50.4011V52.4011ZM49.5054 49.4956C49.5054 47.8925 48.2034 46.5901 46.6005 46.5901V48.5901C47.0984 48.5901 47.5054 48.9967 47.5054 49.4956H49.5054ZM35.3353 28.2691C35.3353 27.758 35.7531 27.3402 36.2642 27.3402V25.3402C34.6485 25.3402 33.3353 26.6535 33.3353 28.2691H35.3353ZM36.2642 27.3402H43.7132V25.3402H36.2642V27.3402ZM43.7132 27.3402C44.2243 27.3402 44.6421 27.758 44.6421 28.2691H46.6421C46.6421 26.6535 45.3288 25.3402 43.7132 25.3402V27.3402ZM44.6421 28.2691V47.5901H46.6421V28.2691H44.6421ZM45.6421 46.5901H34.3353V48.5901H45.6421V46.5901ZM35.3353 47.5901V28.2691H33.3353V47.5901H35.3353ZM21.347 19.7344C21.347 19.2233 21.7648 18.8055 22.2759 18.8055V16.8055C20.6602 16.8055 19.347 18.1188 19.347 19.7344H21.347ZM22.2759 18.8055H29.7249V16.8055H22.2759V18.8055ZM29.7249 18.8055C30.2356 18.8055 30.6532 19.223 30.6532 19.7344H32.6532C32.6532 18.1191 31.3409 16.8055 29.7249 16.8055V18.8055ZM30.6532 19.7344V47.5901H32.6532V19.7344H30.6532ZM31.6532 46.5901H20.347V48.5901H31.6532V46.5901ZM21.347 47.5901V19.7344H19.347V47.5901H21.347ZM7.35808 32.9248C7.35808 32.4138 7.77588 31.996 8.28696 31.996V29.996C6.67131 29.996 5.35808 31.3092 5.35808 32.9248H7.35808ZM8.28696 31.996H15.736V29.996H8.28696V31.996ZM15.736 31.996C16.247 31.996 16.6648 32.4138 16.6648 32.9248H18.6648C18.6648 31.3092 17.3516 29.996 15.736 29.996V31.996ZM16.6648 32.9248V47.5901H18.6648V32.9248H16.6648ZM17.6648 46.5901H6.35808V48.5901H17.6648V46.5901ZM7.35808 47.5901V32.9248H5.35808V47.5901H7.35808ZM46.6005 49.6031H5.40014V51.6031H46.6005V49.6031ZM5.40014 49.6031C5.34153 49.6031 5.29261 49.5542 5.29261 49.4956H3.29261C3.29261 50.6588 4.23696 51.6031 5.40014 51.6031V49.6031ZM5.29261 49.4956C5.29261 49.437 5.34153 49.388 5.40014 49.388V47.388C4.23696 47.388 3.29261 48.3324 3.29261 49.4956H5.29261ZM5.40014 49.388H46.6004V47.388H5.40014V49.388ZM46.6004 49.388C46.6582 49.388 46.7074 49.4367 46.7074 49.4956H48.7074C48.7074 48.3327 47.7634 47.388 46.6004 47.388V49.388ZM46.7074 49.4956C46.7074 49.5546 46.6582 49.6031 46.6005 49.6031V51.6031C47.7636 51.6031 48.7074 50.6584 48.7074 49.4956H46.7074Z" fill="#FFE7AA" mask="url(#path-1-inside-1_732_322)"/>
<mask id="path-3-inside-2_732_322" fill="white">
<path d="M26.0013 15.6746C30.1572 15.6746 33.538 12.2927 33.538 8.13575C33.538 3.97981 30.1572 0.598999 26.0013 0.598999C21.8443 0.598999 18.4624 3.97981 18.4624 8.13575C18.4625 12.2927 21.8443 15.6746 26.0013 15.6746ZM26.0013 1.39687C29.7172 1.39687 32.7402 4.41978 32.7402 8.13575C32.7402 11.8527 29.7173 14.8767 26.0013 14.8767C22.2843 14.8767 19.2604 11.8527 19.2604 8.13575C19.2604 4.41978 22.2844 1.39687 26.0013 1.39687Z"/>
</mask>
<path d="M26.0013 15.6746C30.1572 15.6746 33.538 12.2927 33.538 8.13575C33.538 3.97981 30.1572 0.598999 26.0013 0.598999C21.8443 0.598999 18.4624 3.97981 18.4624 8.13575C18.4625 12.2927 21.8443 15.6746 26.0013 15.6746ZM26.0013 1.39687C29.7172 1.39687 32.7402 4.41978 32.7402 8.13575C32.7402 11.8527 29.7173 14.8767 26.0013 14.8767C22.2843 14.8767 19.2604 11.8527 19.2604 8.13575C19.2604 4.41978 22.2844 1.39687 26.0013 1.39687Z" fill="black"/>
<path d="M18.4624 8.13575H17.4624V8.13577L18.4624 8.13575ZM26.0013 16.6746C30.7098 16.6746 34.538 12.8447 34.538 8.13575H32.538C32.538 11.7407 29.6047 14.6746 26.0013 14.6746V16.6746ZM34.538 8.13575C34.538 3.42753 30.7095 -0.401001 26.0013 -0.401001V1.599C29.6049 1.599 32.538 4.5321 32.538 8.13575H34.538ZM26.0013 -0.401001C21.2923 -0.401001 17.4624 3.42725 17.4624 8.13575H19.4624C19.4624 4.53238 22.3963 1.599 26.0013 1.599V-0.401001ZM17.4624 8.13577C17.4625 12.845 21.292 16.6746 26.0013 16.6746V14.6746C22.3966 14.6746 19.4625 11.7404 19.4624 8.13572L17.4624 8.13577ZM26.0013 2.39687C29.1649 2.39687 31.7402 4.97207 31.7402 8.13575H33.7402C33.7402 3.86749 30.2694 0.396874 26.0013 0.396874V2.39687ZM31.7402 8.13575C31.7402 11.3007 29.1647 13.8767 26.0013 13.8767V15.8767C30.2698 15.8767 33.7402 12.4047 33.7402 8.13575H31.7402ZM26.0013 13.8767C22.8366 13.8767 20.2604 11.3004 20.2604 8.13575H18.2604C18.2604 12.405 21.732 15.8767 26.0013 15.8767V13.8767ZM20.2604 8.13575C20.2604 4.97237 22.8364 2.39687 26.0013 2.39687V0.396874C21.7324 0.396874 18.2604 3.86719 18.2604 8.13575H20.2604Z" fill="#FFE7AA" mask="url(#path-3-inside-2_732_322)"/>
<mask id="path-5-inside-3_732_322" fill="white">
<path d="M26.001 13.8335C29.1413 13.8335 31.6962 11.2776 31.6962 8.13628C31.6962 4.99546 29.1413 2.44055 26.001 2.44055C22.8596 2.44055 20.3037 4.99546 20.3037 8.13628C20.3037 11.2776 22.8596 13.8335 26.001 13.8335ZM26.001 3.23853C28.7013 3.23853 30.8982 5.43543 30.8982 8.13628C30.8982 10.8376 28.7013 13.0356 26.001 13.0356C23.2996 13.0356 21.1017 10.8375 21.1017 8.13628C21.1017 5.43543 23.2996 3.23853 26.001 3.23853Z"/>
</mask>
<path d="M26.001 13.8335C29.1413 13.8335 31.6962 11.2776 31.6962 8.13628C31.6962 4.99546 29.1413 2.44055 26.001 2.44055C22.8596 2.44055 20.3037 4.99546 20.3037 8.13628C20.3037 11.2776 22.8596 13.8335 26.001 13.8335ZM26.001 3.23853C28.7013 3.23853 30.8982 5.43543 30.8982 8.13628C30.8982 10.8376 28.7013 13.0356 26.001 13.0356C23.2996 13.0356 21.1017 10.8375 21.1017 8.13628C21.1017 5.43543 23.2996 3.23853 26.001 3.23853Z" fill="black"/>
<path d="M26.001 14.8335C29.6939 14.8335 32.6962 11.8295 32.6962 8.13628H30.6962C30.6962 10.7257 28.5886 12.8335 26.001 12.8335V14.8335ZM32.6962 8.13628C32.6962 4.44323 29.6936 1.44055 26.001 1.44055V3.44055C28.5889 3.44055 30.6962 5.54768 30.6962 8.13628H32.6962ZM26.001 1.44055C22.3076 1.44055 19.3037 4.44288 19.3037 8.13628H21.3037C21.3037 5.54803 23.4116 3.44055 26.001 3.44055V1.44055ZM19.3037 8.13628C19.3037 11.8299 22.3073 14.8335 26.001 14.8335V12.8335C23.4119 12.8335 21.3037 10.7253 21.3037 8.13628H19.3037ZM26.001 4.23853C28.149 4.23853 29.8982 5.98764 29.8982 8.13628H31.8982C31.8982 4.88321 29.2537 2.23853 26.001 2.23853V4.23853ZM29.8982 8.13628C29.8982 10.2858 28.1486 12.0356 26.001 12.0356V14.0356C29.254 14.0356 31.8982 11.3895 31.8982 8.13628H29.8982ZM26.001 12.0356C23.8519 12.0356 22.1017 10.2853 22.1017 8.13628H20.1017C20.1017 11.3898 22.7473 14.0356 26.001 14.0356V12.0356ZM22.1017 8.13628C22.1017 5.98805 23.8515 4.23853 26.001 4.23853V2.23853C22.7477 2.23853 20.1017 4.8828 20.1017 8.13628H22.1017Z" fill="#FFE7AA" mask="url(#path-5-inside-3_732_322)"/>
<mask id="path-7-inside-4_732_322" fill="white">
<path d="M26.3306 9.73624H24.6709C24.4506 9.73624 24.272 9.91499 24.272 10.1352C24.272 10.3554 24.4507 10.5341 24.6709 10.5341H25.6013V10.9653C25.6013 11.1855 25.7801 11.3642 26.0003 11.3642C26.2206 11.3642 26.3992 11.1854 26.3992 10.9653V10.5271C27.1377 10.4904 27.7286 9.8832 27.7286 9.1357C27.7286 8.36474 27.1015 7.7378 26.3306 7.7378H25.6704C25.3395 7.7378 25.0698 7.46866 25.0698 7.13777C25.0698 6.80687 25.3395 6.53773 25.6704 6.53773H27.3296C27.5499 6.53773 27.7286 6.35898 27.7286 6.1388C27.7286 5.91861 27.5498 5.73986 27.3296 5.73986H26.3992V5.30812C26.3992 5.08783 26.2204 4.90918 26.0003 4.90918C25.78 4.90918 25.6013 5.08793 25.6013 5.30812V5.74687C24.863 5.78373 24.272 6.39047 24.272 7.13777C24.272 7.90873 24.8995 8.53567 25.6705 8.53567H26.3307C26.6616 8.53567 26.9308 8.80481 26.9308 9.1357C26.9308 9.46659 26.6615 9.73624 26.3306 9.73624Z"/>
</mask>
<path d="M26.3306 9.73624H24.6709C24.4506 9.73624 24.272 9.91499 24.272 10.1352C24.272 10.3554 24.4507 10.5341 24.6709 10.5341H25.6013V10.9653C25.6013 11.1855 25.7801 11.3642 26.0003 11.3642C26.2206 11.3642 26.3992 11.1854 26.3992 10.9653V10.5271C27.1377 10.4904 27.7286 9.8832 27.7286 9.1357C27.7286 8.36474 27.1015 7.7378 26.3306 7.7378H25.6704C25.3395 7.7378 25.0698 7.46866 25.0698 7.13777C25.0698 6.80687 25.3395 6.53773 25.6704 6.53773H27.3296C27.5499 6.53773 27.7286 6.35898 27.7286 6.1388C27.7286 5.91861 27.5498 5.73986 27.3296 5.73986H26.3992V5.30812C26.3992 5.08783 26.2204 4.90918 26.0003 4.90918C25.78 4.90918 25.6013 5.08793 25.6013 5.30812V5.74687C24.863 5.78373 24.272 6.39047 24.272 7.13777C24.272 7.90873 24.8995 8.53567 25.6705 8.53567H26.3307C26.6616 8.53567 26.9308 8.80481 26.9308 9.1357C26.9308 9.46659 26.6615 9.73624 26.3306 9.73624Z" fill="black"/>
<path d="M25.6013 10.5341H26.6013V9.53412H25.6013V10.5341ZM26.3992 10.5271L26.3496 9.52834L25.3992 9.57553V10.5271H26.3992ZM26.3992 5.73986H25.3992V6.73986H26.3992V5.73986ZM25.6013 5.74687L25.6512 6.74562L26.6013 6.69818V5.74687H25.6013ZM26.3306 8.73624H24.6709V10.7362H26.3306V8.73624ZM24.6709 8.73624C23.8982 8.73624 23.272 9.36288 23.272 10.1352H25.272C25.272 10.4671 25.0031 10.7362 24.6709 10.7362V8.73624ZM23.272 10.1352C23.272 10.9076 23.8984 11.5341 24.6709 11.5341V9.53412C25.003 9.53412 25.272 9.80308 25.272 10.1352H23.272ZM24.6709 11.5341H25.6013V9.53412H24.6709V11.5341ZM24.6013 10.5341V10.9653H26.6013V10.5341H24.6013ZM24.6013 10.9653C24.6013 11.738 25.228 12.3642 26.0003 12.3642V10.3642C26.3322 10.3642 26.6013 10.6331 26.6013 10.9653H24.6013ZM26.0003 12.3642C26.773 12.3642 27.3992 11.7376 27.3992 10.9653H25.3992C25.3992 10.6333 25.6681 10.3642 26.0003 10.3642V12.3642ZM27.3992 10.9653V10.5271H25.3992V10.9653H27.3992ZM26.4488 11.5259C27.7108 11.4632 28.7286 10.425 28.7286 9.1357H26.7286C26.7286 9.34138 26.5646 9.51767 26.3496 9.52834L26.4488 11.5259ZM28.7286 9.1357C28.7286 7.81241 27.6537 6.7378 26.3306 6.7378V8.7378C26.5493 8.7378 26.7286 8.91708 26.7286 9.1357H28.7286ZM26.3306 6.7378H25.6704V8.7378H26.3306V6.7378ZM25.6704 6.7378C25.8907 6.7378 26.0698 6.91527 26.0698 7.13777H24.0698C24.0698 8.02204 24.7883 8.7378 25.6704 8.7378V6.7378ZM26.0698 7.13777C26.0698 7.36026 25.8907 7.53773 25.6704 7.53773V5.53773C24.7883 5.53773 24.0698 6.25349 24.0698 7.13777H26.0698ZM25.6704 7.53773H27.3296V5.53773H25.6704V7.53773ZM27.3296 7.53773C28.1023 7.53773 28.7286 6.91111 28.7286 6.1388H26.7286C26.7286 5.80686 26.9975 5.53773 27.3296 5.53773V7.53773ZM28.7286 6.1388C28.7286 5.36632 28.1021 4.73986 27.3296 4.73986V6.73986C26.9975 6.73986 26.7286 6.4709 26.7286 6.1388H28.7286ZM27.3296 4.73986H26.3992V6.73986H27.3296V4.73986ZM27.3992 5.73986V5.30812H25.3992V5.73986H27.3992ZM27.3992 5.30812C27.3992 4.53537 26.7726 3.90918 26.0003 3.90918V5.90918C25.6683 5.90918 25.3992 5.64028 25.3992 5.30812H27.3992ZM26.0003 3.90918C25.2275 3.90918 24.6013 4.53581 24.6013 5.30812H26.6013C26.6013 5.64005 26.3324 5.90918 26.0003 5.90918V3.90918ZM24.6013 5.30812V5.74687H26.6013V5.30812H24.6013ZM25.5515 4.74811C24.2905 4.81107 23.272 5.84799 23.272 7.13777H25.272C25.272 6.93295 25.4354 6.75639 25.6512 6.74562L25.5515 4.74811ZM23.272 7.13777C23.272 8.46158 24.3478 9.53567 25.6705 9.53567V7.53567C25.4512 7.53567 25.272 7.35587 25.272 7.13777H23.272ZM25.6705 9.53567H26.3307V7.53567H25.6705V9.53567ZM26.3307 9.53567C26.1093 9.53567 25.9308 9.35709 25.9308 9.1357H27.9308C27.9308 8.25253 27.2139 7.53567 26.3307 7.53567V9.53567ZM25.9308 9.1357C25.9308 8.91519 26.1084 8.73624 26.3306 8.73624V10.7362C27.2147 10.7362 27.9308 10.018 27.9308 9.1357H25.9308Z" fill="#FFE7AA" mask="url(#path-7-inside-4_732_322)"/>
<mask id="path-9-inside-5_732_322" fill="white">
<path d="M36.1713 5.63954L36.4524 5.35852C36.6082 5.20272 36.6082 4.95024 36.4524 4.79434C36.2965 4.63854 36.0441 4.63854 35.8882 4.79434L35.6072 5.07536C35.4513 5.23116 35.4513 5.48364 35.6072 5.63954C35.7631 5.79544 36.0155 5.79544 36.1713 5.63954Z"/>
</mask>
<path d="M36.1713 5.63954L36.4524 5.35852C36.6082 5.20272 36.6082 4.95024 36.4524 4.79434C36.2965 4.63854 36.0441 4.63854 35.8882 4.79434L35.6072 5.07536C35.4513 5.23116 35.4513 5.48364 35.6072 5.63954C35.7631 5.79544 36.0155 5.79544 36.1713 5.63954Z" fill="black"/>
<path d="M36.1713 5.63954L35.4642 4.93243L35.464 4.93266L36.1713 5.63954ZM36.4524 5.35852L35.7453 4.65141L35.7453 4.65141L36.4524 5.35852ZM36.4524 4.79434L37.1597 4.08746L37.1592 4.087L36.4524 4.79434ZM35.8882 4.79434L35.1813 4.087L35.1811 4.08723L35.8882 4.79434ZM35.6072 5.07536L36.314 5.7827L36.3143 5.78247L35.6072 5.07536ZM36.8784 6.34665L37.1595 6.06562L35.7453 4.65141L35.4642 4.93243L36.8784 6.34665ZM37.1595 6.06562C37.7059 5.51918 37.7056 4.6337 37.1597 4.08746L35.745 5.50121C35.5107 5.26677 35.5104 4.88627 35.7453 4.65141L37.1595 6.06562ZM37.1592 4.087C36.6129 3.54099 35.7277 3.54099 35.1813 4.087L36.5951 5.50168C36.3605 5.7361 35.9801 5.7361 35.7455 5.50168L37.1592 4.087ZM35.1811 4.08723L34.9001 4.36825L36.3143 5.78247L36.5953 5.50144L35.1811 4.08723ZM34.9003 4.36802C34.3534 4.91453 34.3538 5.80035 34.9001 6.34665L36.3143 4.93243C36.5488 5.16693 36.5491 5.54779 36.314 5.7827L34.9003 4.36802ZM34.9001 6.34665C35.4463 6.89294 36.3322 6.89327 36.8787 6.34642L35.464 4.93266C35.6989 4.6976 36.0798 4.69794 36.3143 4.93243L34.9001 6.34665Z" fill="#FFE7AA" mask="url(#path-9-inside-5_732_322)"/>
<mask id="path-11-inside-6_732_322" fill="white">
<path d="M38.0592 8.53567C38.2795 8.53567 38.4581 8.35692 38.4581 8.13673C38.4581 7.91654 38.2794 7.73779 38.0592 7.73779H37.0405C36.8203 7.73779 36.6416 7.91654 36.6416 8.13673C36.6416 8.35692 36.8204 8.53567 37.0405 8.53567H38.0592Z"/>
</mask>
<path d="M38.0592 8.53567C38.2795 8.53567 38.4581 8.35692 38.4581 8.13673C38.4581 7.91654 38.2794 7.73779 38.0592 7.73779H37.0405C36.8203 7.73779 36.6416 7.91654 36.6416 8.13673C36.6416 8.35692 36.8204 8.53567 37.0405 8.53567H38.0592Z" fill="black"/>
<path d="M38.0592 9.53567C38.832 9.53567 39.4581 8.90903 39.4581 8.13673H37.4581C37.4581 7.80481 37.727 7.53567 38.0592 7.53567V9.53567ZM39.4581 8.13673C39.4581 7.36426 38.8317 6.73779 38.0592 6.73779V8.73779C37.7271 8.73779 37.4581 8.46882 37.4581 8.13673H39.4581ZM38.0592 6.73779H37.0405V8.73779H38.0592V6.73779ZM37.0405 6.73779C36.2678 6.73779 35.6416 7.36442 35.6416 8.13673H37.6416C37.6416 8.46867 37.3727 8.73779 37.0405 8.73779V6.73779ZM35.6416 8.13673C35.6416 8.9092 36.2681 9.53567 37.0405 9.53567V7.53567C37.3726 7.53567 37.6416 7.80463 37.6416 8.13673H35.6416ZM37.0405 9.53567H38.0592V7.53567H37.0405V9.53567Z" fill="#FFE7AA" mask="url(#path-11-inside-6_732_322)"/>
<mask id="path-13-inside-7_732_322" fill="white">
<path d="M35.6071 11.1992L35.8882 11.4797C36.0444 11.6348 36.2971 11.635 36.4529 11.4792C36.6081 11.3228 36.6081 11.0704 36.4523 10.9146L36.1713 10.634C36.0149 10.4787 35.7619 10.4793 35.6066 10.6345C35.4513 10.7909 35.4513 11.0433 35.6071 11.1992Z"/>
</mask>
<path d="M35.6071 11.1992L35.8882 11.4797C36.0444 11.6348 36.2971 11.635 36.4529 11.4792C36.6081 11.3228 36.6081 11.0704 36.4523 10.9146L36.1713 10.634C36.0149 10.4787 35.7619 10.4793 35.6066 10.6345C35.4513 10.7909 35.4513 11.0433 35.6071 11.1992Z" fill="black"/>
<path d="M35.6071 11.1992L34.8998 11.9061L34.9007 11.907L35.6071 11.1992ZM35.8882 11.4797L35.1817 12.1875L35.1836 12.1894L35.8882 11.4797ZM36.4529 11.4792L37.16 12.1863L37.1625 12.1838L36.4529 11.4792ZM36.4523 10.9146L37.1597 10.2077L37.1588 10.2068L36.4523 10.9146ZM36.1713 10.634L36.8778 9.92629L36.8759 9.9244L36.1713 10.634ZM35.6066 10.6345L34.8995 9.92743L34.897 9.92998L35.6066 10.6345ZM34.9007 11.907L35.1817 12.1875L36.5946 10.772L36.3136 10.4915L34.9007 11.907ZM35.1836 12.1894C35.7288 12.7307 36.6127 12.7336 37.16 12.1863L35.7457 10.7721C35.9814 10.5365 36.3599 10.5389 36.5927 10.7701L35.1836 12.1894ZM37.1625 12.1838C37.7045 11.6379 37.7061 10.7545 37.1597 10.2077L35.745 11.6214C35.5102 11.3864 35.5118 11.0078 35.7432 10.7747L37.1625 12.1838ZM37.1588 10.2068L36.8778 9.92629L35.4649 11.3418L35.7459 11.6223L37.1588 10.2068ZM36.8759 9.9244C36.3293 9.3817 35.4451 9.38188 34.8995 9.92744L36.3137 11.3416C36.0788 11.5766 35.7005 11.5758 35.4668 11.3437L36.8759 9.9244ZM34.897 9.92998C34.355 10.4759 34.3534 11.3593 34.8998 11.9061L36.3145 10.4924C36.5493 10.7274 36.5477 11.106 36.3163 11.3391L34.897 9.92998Z" fill="#FFE7AA" mask="url(#path-13-inside-7_732_322)"/>
<mask id="path-15-inside-8_732_322" fill="white">
<path d="M15.829 5.63954C15.9849 5.79544 16.2373 5.79544 16.3932 5.63954C16.549 5.48374 16.549 5.23126 16.3932 5.07536L16.1122 4.79434C15.9563 4.63854 15.7039 4.63854 15.548 4.79434C15.3922 4.95013 15.3922 5.20262 15.548 5.35852L15.829 5.63954Z"/>
</mask>
<path d="M15.829 5.63954C15.9849 5.79544 16.2373 5.79544 16.3932 5.63954C16.549 5.48374 16.549 5.23126 16.3932 5.07536L16.1122 4.79434C15.9563 4.63854 15.7039 4.63854 15.548 4.79434C15.3922 4.95013 15.3922 5.20262 15.548 5.35852L15.829 5.63954Z" fill="black"/>
<path d="M15.829 5.63954L15.1219 6.34665L15.1219 6.34665L15.829 5.63954ZM16.3932 5.07536L17.1005 4.36848L17.1003 4.36825L16.3932 5.07536ZM16.1122 4.79434L16.8193 4.08723L16.8191 4.087L16.1122 4.79434ZM15.548 4.79434L14.8411 4.087L14.8409 4.08723L15.548 4.79434ZM15.548 5.35852L14.8407 6.06539L14.8409 6.06562L15.548 5.35852ZM15.1219 6.34665C15.6683 6.89307 16.5539 6.89307 17.1003 6.34665L15.6861 4.93243C15.9207 4.69781 16.3015 4.69781 16.5361 4.93243L15.1219 6.34665ZM17.1003 6.34665C17.6468 5.8002 17.6464 4.91473 17.1005 4.36848L15.6859 5.78224C15.4516 5.54779 15.4512 5.16729 15.6861 4.93243L17.1003 6.34665ZM17.1003 4.36825L16.8193 4.08723L15.4051 5.50144L15.6861 5.78247L17.1003 4.36825ZM16.8191 4.087C16.2727 3.54099 15.3875 3.54099 14.8411 4.087L16.2549 5.50168C16.0203 5.7361 15.6399 5.7361 15.4053 5.50168L16.8191 4.087ZM14.8409 4.08723C14.2944 4.63368 14.2948 5.51915 14.8407 6.06539L16.2553 4.65164C16.4896 4.88609 16.49 5.26659 16.2551 5.50144L14.8409 4.08723ZM14.8409 6.06562L15.1219 6.34665L16.5361 4.93243L16.2551 4.65141L14.8409 6.06562Z" fill="#FFE7AA" mask="url(#path-15-inside-8_732_322)"/>
<mask id="path-17-inside-9_732_322" fill="white">
<path d="M14.9596 8.53567C15.1799 8.53567 15.3585 8.35692 15.3585 8.13673C15.3585 7.91654 15.1798 7.73779 14.9596 7.73779H13.9414C13.7211 7.73779 13.5425 7.91654 13.5425 8.13673C13.5425 8.35692 13.7212 8.53567 13.9414 8.53567H14.9596Z"/>
</mask>
<path d="M14.9596 8.53567C15.1799 8.53567 15.3585 8.35692 15.3585 8.13673C15.3585 7.91654 15.1798 7.73779 14.9596 7.73779H13.9414C13.7211 7.73779 13.5425 7.91654 13.5425 8.13673C13.5425 8.35692 13.7212 8.53567 13.9414 8.53567H14.9596Z" fill="black"/>
<path d="M14.9596 9.53567C15.7323 9.53567 16.3585 8.90903 16.3585 8.13673H14.3585C14.3585 7.8048 14.6274 7.53567 14.9596 7.53567V9.53567ZM16.3585 8.13673C16.3585 7.36426 15.7321 6.73779 14.9596 6.73779V8.73779C14.6275 8.73779 14.3585 8.46883 14.3585 8.13673H16.3585ZM14.9596 6.73779H13.9414V8.73779H14.9596V6.73779ZM13.9414 6.73779C13.1687 6.73779 12.5425 7.36442 12.5425 8.13673H14.5425C14.5425 8.46866 14.2736 8.73779 13.9414 8.73779V6.73779ZM12.5425 8.13673C12.5425 8.9092 13.1689 9.53567 13.9414 9.53567V7.53567C14.2735 7.53567 14.5425 7.80464 14.5425 8.13673H12.5425ZM13.9414 9.53567H14.9596V7.53567H13.9414V9.53567Z" fill="#FFE7AA" mask="url(#path-17-inside-9_732_322)"/>
<mask id="path-19-inside-10_732_322" fill="white">
<path d="M15.5476 11.4792C15.7031 11.6348 15.9558 11.6351 16.1122 11.4797L16.3933 11.1992C16.5491 11.0434 16.5491 10.7909 16.3938 10.6345C16.2379 10.4793 15.985 10.4787 15.8291 10.634L15.5481 10.9146C15.3923 11.0703 15.3923 11.3228 15.5476 11.4792Z"/>
</mask>
<path d="M15.5476 11.4792C15.7031 11.6348 15.9558 11.6351 16.1122 11.4797L16.3933 11.1992C16.5491 11.0434 16.5491 10.7909 16.3938 10.6345C16.2379 10.4793 15.985 10.4787 15.8291 10.634L15.5481 10.9146C15.3923 11.0703 15.3923 11.3228 15.5476 11.4792Z" fill="black"/>
<path d="M15.5476 11.4792L14.8379 12.1838L14.8404 12.1863L15.5476 11.4792ZM16.1122 11.4797L16.817 12.1892L16.8187 12.1875L16.1122 11.4797ZM16.3933 11.1992L17.0997 11.907L17.1004 11.9063L16.3933 11.1992ZM16.3938 10.6345L17.1034 9.92996L17.0995 9.92605L16.3938 10.6345ZM15.8291 10.634L15.1234 9.92555L15.1226 9.92629L15.8291 10.634ZM15.5481 10.9146L14.8416 10.2068L14.841 10.2074L15.5481 10.9146ZM14.8404 12.1863C15.3865 12.7324 16.2706 12.7321 16.817 12.1892L15.4074 10.7703C15.6411 10.5382 16.0198 10.5373 16.2547 10.7721L14.8404 12.1863ZM16.8187 12.1875L17.0997 11.907L15.6868 10.4915L15.4058 10.772L16.8187 12.1875ZM17.1004 11.9063C17.6473 11.3594 17.6453 10.4757 17.1034 9.92998L15.6841 11.3391C15.4528 11.1062 15.4509 10.7274 15.6862 10.4921L17.1004 11.9063ZM17.0995 9.92605C16.555 9.38373 15.6711 9.37993 15.1234 9.92555L16.5348 11.3425C16.2988 11.5776 15.9207 11.5748 15.6881 11.343L17.0995 9.92605ZM15.1226 9.92629L14.8416 10.2068L16.2545 11.6223L16.5356 11.3418L15.1226 9.92629ZM14.841 10.2074C14.2941 10.7543 14.296 11.638 14.8379 12.1838L16.2572 10.7747C16.4885 11.0076 16.4905 11.3864 16.2552 11.6217L14.841 10.2074Z" fill="#FFE7AA" mask="url(#path-19-inside-10_732_322)"/>
</svg>
