<svg width="83" height="83" viewBox="0 0 83 83" fill="none" xmlns="http://www.w3.org/2000/svg">
<path d="M41.1651 6.61121C41.8194 10.5061 43.1216 15.6888 45.7169 20.8795C48.3291 26.1039 52.2578 31.3485 58.1634 35.2855C62.3067 38.0478 67.4037 40.1533 73.6673 41.1651C67.4037 42.177 62.3067 44.2825 58.1634 47.0447C52.2578 50.9817 48.3291 56.2263 45.7169 61.4507C43.1216 66.6414 41.8194 71.8241 41.1651 75.719C40.5108 71.8241 39.2087 66.6414 36.6133 61.4507C34.0011 56.2263 30.0724 50.9817 24.1669 47.0447C20.0235 44.2825 14.9265 42.177 8.66292 41.1651C14.9265 40.1533 20.0235 38.0478 24.1669 35.2855C30.0724 31.3485 34.0011 26.1039 36.6133 20.8795C39.2087 15.6888 40.5108 10.5061 41.1651 6.61121Z" stroke="#FFE7AA" stroke-width="1.32791"/>
</svg>
