<svg width="174" height="180" viewBox="0 0 174 180" fill="none" xmlns="http://www.w3.org/2000/svg">
<path d="M85.1932 154.512C122.964 154.512 153.539 124.069 153.539 86.4313C153.539 48.7932 122.997 18.3179 85.1932 18.3179C47.5551 18.3179 16.8809 48.76 16.8809 86.3981C16.8809 124.036 47.4225 154.512 85.1932 154.512Z" fill="#2C3039"/>
<path d="M159.605 164.514C173.633 149.989 163.452 125.35 142.991 125.35C133.673 125.35 125.681 130.855 122 138.78C118.751 138.979 115.733 140.007 109.2 144.318L108.139 120.973H100.114L99.4506 135.497C96.8309 133.474 94.3106 133.707 92.553 133.839L92.9841 133.773L92.2877 119.414H78.9237L78.0947 136.492C75.8397 134.768 75.1433 135.597 74.4469 135.597C73.0873 135.597 71.794 135.962 70.6997 136.558L69.9702 120.939H61.9451L61.3814 133.309C57.7336 131.153 53.4558 129.893 48.9127 129.893C43.4079 129.893 38.3342 131.717 34.2222 134.768C16.3482 126.278 -3.28327 142.76 2.02254 161.861L14.856 170.085C14.5575 170.284 14.2591 170.483 13.9606 170.682L14.856 170.085C10.7108 173.964 23.0137 162.756 26.363 164.281C26.6283 164.878 26.8936 165.442 27.192 166.006L26.6283 164.447C26.993 164.746 27.192 165.243 27.192 166.006C27.192 166.006 27.192 166.039 27.2252 166.039C23.909 166.205 20.7919 167.001 17.94 168.36L28.618 166.437C37.7373 168.393 87.7446 175.258 87.8441 176.12L87.1146 174.76C87.413 174.794 87.7446 174.827 88.0763 174.86C89.7012 177.247 92.0888 179.104 94.8743 180C92.6194 178.839 90.7292 177.115 89.3696 174.992C100.346 176.054 114.639 175.324 119.878 174.76C124.686 175.623 129.727 174.528 133.839 171.544C134.701 170.914 135.53 170.184 136.293 169.388C141.367 169.355 150.685 170.814 150.552 168.559L159.705 170.184C157.118 168.99 154.333 168.194 151.348 167.929L159.605 164.514ZM133.109 170.217C133.143 170.118 133.176 170.051 133.275 169.952L133.109 170.217Z" fill="#100C15"/>
<path d="M70.7002 136.558L69.9706 120.973H61.9456L61.3818 133.309" fill="#1E1F28"/>
<path d="M70.7002 136.558L69.9706 120.973H61.9456L61.3818 133.309" stroke="#353B4A" stroke-width="2" stroke-miterlimit="10" stroke-linecap="round" stroke-linejoin="round"/>
<path d="M109.234 144.915L108.14 120.973H100.115L99.4517 135.53" fill="#1E1F28"/>
<path d="M109.234 144.915L108.14 120.973H100.115L99.4517 135.53" stroke="#353B4A" stroke-width="2" stroke-miterlimit="10" stroke-linecap="round" stroke-linejoin="round"/>
<path d="M92.9847 133.74L92.2551 119.414H78.9242L78.0952 136.26L78.1284 136.525" fill="#1E1F28"/>
<path d="M92.9847 133.74L92.2551 119.414H78.9242L78.0952 136.26L78.1284 136.525" stroke="#353B4A" stroke-width="2" stroke-miterlimit="10" stroke-linecap="round" stroke-linejoin="round"/>
<path d="M20.8252 158.08C21.9858 157.682 23.2128 157.417 24.5061 157.284" stroke="#353B4A" stroke-width="2" stroke-miterlimit="10" stroke-linecap="round" stroke-linejoin="round"/>
<path d="M90.8623 114.307H79.9191L77.6641 115.833C77.1999 116.164 76.9346 116.662 76.9346 117.225V118.718H94.1785V117.292C94.1785 116.695 93.88 116.164 93.3826 115.866L90.8623 114.307Z" fill="#5C6479"/>
<path d="M94.9079 119.414C94.9079 119.779 94.6095 120.077 94.2447 120.077H76.7355C76.3707 120.077 76.0723 119.779 76.0723 119.414C76.0723 119.049 76.3707 118.751 76.7355 118.751H94.2447C94.6095 118.751 94.9079 119.049 94.9079 119.414Z" fill="#5C6479"/>
<path d="M56.8052 21.8202H56.5399C56.1088 21.8202 55.7772 21.4886 55.7772 21.0575V20.7922C55.7772 20.4606 55.5119 20.1953 55.1803 20.1953C54.8487 20.1953 54.5834 20.4606 54.5834 20.7922V21.0575C54.5834 21.4886 54.2518 21.8202 53.8207 21.8202H53.5554C53.2238 21.8202 52.9585 22.0855 52.9585 22.4171C52.9585 22.7487 53.2238 23.014 53.5554 23.014H53.8207C54.2518 23.014 54.5834 23.3456 54.5834 23.7767V24.042C54.5834 24.3736 54.8487 24.6389 55.1803 24.6389C55.5119 24.6389 55.7772 24.3736 55.7772 24.042V23.7767C55.7772 23.3456 56.1088 23.014 56.5399 23.014H56.8052C57.1368 23.014 57.4021 22.7487 57.4021 22.4171C57.4021 22.1187 57.1368 21.8202 56.8052 21.8202Z" fill="#4E5567"/>
<path d="M39.8934 11.2419H39.6613C39.3297 11.2419 39.0312 10.9766 39.0312 10.6119V10.3797C39.0312 10.1145 38.7991 9.88232 38.5338 9.88232C38.2685 9.88232 38.0364 10.1145 38.0364 10.3797V10.6119C38.0364 10.9435 37.7711 11.2419 37.4063 11.2419H37.1742C36.9089 11.2419 36.6768 11.4741 36.6768 11.7394C36.6768 12.0047 36.9089 12.2368 37.1742 12.2368H37.4063C37.7379 12.2368 38.0364 12.5021 38.0364 12.8668V13.099C38.0364 13.3643 38.2685 13.5964 38.5338 13.5964C38.7991 13.5964 39.0312 13.3643 39.0312 13.099V12.8668C39.0312 12.5352 39.2965 12.2368 39.6613 12.2368H39.8934C40.1587 12.2368 40.3908 12.0047 40.3908 11.7394C40.3908 11.4741 40.1587 11.2419 39.8934 11.2419Z" fill="#4E5567"/>
<path d="M19.3001 81.3777H19.068C18.7364 81.3777 18.438 81.1124 18.438 80.7476V80.5155C18.438 80.2502 18.2058 80.0181 17.9405 80.0181C17.6752 80.0181 17.4431 80.2502 17.4431 80.5155V80.7476C17.4431 81.0792 17.1778 81.3777 16.813 81.3777H16.5809C16.3156 81.3777 16.0835 81.6098 16.0835 81.8751C16.0835 82.1404 16.3156 82.3725 16.5809 82.3725H16.813C17.1447 82.3725 17.4431 82.6378 17.4431 83.0026V83.2347C17.4431 83.5 17.6752 83.7321 17.9405 83.7321C18.2058 83.7321 18.438 83.5 18.438 83.2347V83.0026C18.438 82.671 18.7032 82.3725 19.068 82.3725H19.3001C19.5654 82.3725 19.7976 82.1404 19.7976 81.8751C19.7976 81.5766 19.5654 81.3777 19.3001 81.3777Z" fill="#4E5567"/>
<path d="M73.8836 1.32645H73.6515C73.3199 1.32645 73.0214 1.06116 73.0214 0.696388V0.49742C73.0214 0.232129 72.7893 0 72.524 0C72.2587 0 72.0266 0.232129 72.0266 0.49742V0.72955C72.0266 1.06116 71.7613 1.35962 71.3965 1.35962H71.1644C70.8991 1.35962 70.667 1.59174 70.667 1.85704C70.667 2.12233 70.8991 2.35446 71.1644 2.35446H71.3965C71.7282 2.35446 72.0266 2.61975 72.0266 2.98452V3.21665C72.0266 3.48194 72.2587 3.71407 72.524 3.71407C72.7893 3.71407 73.0214 3.48194 73.0214 3.21665V2.9182C73.0214 2.58659 73.2867 2.28813 73.6515 2.28813H73.8836C74.1489 2.28813 74.3811 2.056 74.3811 1.79071C74.3811 1.55858 74.1821 1.32645 73.8836 1.32645Z" fill="#4E5567"/>
<path d="M160.998 40.656H160.766C160.435 40.656 160.136 40.3907 160.136 40.0259V39.7938C160.136 39.5285 159.904 39.2964 159.639 39.2964C159.373 39.2964 159.141 39.5285 159.141 39.7938V40.0259C159.141 40.3575 158.876 40.656 158.511 40.656H158.279C158.014 40.656 157.782 40.8881 157.782 41.1534C157.782 41.4187 158.014 41.6508 158.279 41.6508H158.511C158.843 41.6508 159.141 41.9161 159.141 42.2809V42.513C159.141 42.7783 159.373 43.0105 159.639 43.0105C159.904 43.0105 160.136 42.7783 160.136 42.513V42.2809C160.136 41.9493 160.401 41.6508 160.766 41.6508H160.998C161.264 41.6508 161.496 41.4187 161.496 41.1534C161.496 40.8881 161.264 40.656 160.998 40.656Z" fill="#4E5567"/>
<path d="M142.594 112.616H142.362C142.03 112.616 141.731 112.351 141.731 111.986V111.754C141.731 111.488 141.499 111.256 141.234 111.256C140.969 111.256 140.737 111.488 140.737 111.754V111.986C140.737 112.318 140.471 112.616 140.107 112.616H139.941C139.675 112.616 139.443 112.848 139.443 113.113C139.443 113.379 139.675 113.611 139.941 113.611H140.173C140.505 113.611 140.803 113.876 140.803 114.241V114.473C140.803 114.738 141.035 114.97 141.3 114.97C141.566 114.97 141.798 114.738 141.798 114.473V114.241C141.798 113.909 142.063 113.611 142.428 113.611H142.66C142.925 113.611 143.157 113.379 143.157 113.113C143.091 112.848 142.859 112.616 142.594 112.616Z" fill="#4E5567"/>
<path d="M17.1107 117.656H16.9118C16.5802 117.656 16.2817 117.391 16.2817 117.026V116.794C16.2817 116.529 16.0496 116.296 15.7843 116.296C15.519 116.296 15.2869 116.529 15.2869 116.794V117.026C15.2869 117.358 15.0216 117.656 14.6568 117.656H14.4247C14.1594 117.656 13.9272 117.888 13.9272 118.153C13.9272 118.419 14.1594 118.651 14.4247 118.651H14.6568C14.9884 118.651 15.2869 118.916 15.2869 119.281V119.513C15.2869 119.778 15.519 120.01 15.7843 120.01C16.0496 120.01 16.2817 119.778 16.2817 119.513V119.281C16.2817 118.949 16.547 118.651 16.9118 118.651H17.1439C17.4092 118.651 17.6413 118.419 17.6413 118.153C17.6082 117.888 17.376 117.656 17.1107 117.656Z" fill="#4E5567"/>
<path d="M121.437 58.5961H121.172C120.741 58.5961 120.409 58.2645 120.409 57.8334V57.5681C120.409 57.2365 120.144 56.9712 119.812 56.9712C119.481 56.9712 119.215 57.2365 119.215 57.5681V57.8334C119.215 58.2645 118.884 58.5961 118.453 58.5961H118.187C117.856 58.5961 117.59 58.8614 117.59 59.193C117.59 59.5246 117.856 59.7899 118.187 59.7899H118.453C118.884 59.7899 119.215 60.1215 119.215 60.5526V60.8179C119.215 61.1495 119.481 61.4148 119.812 61.4148C120.144 61.4148 120.409 61.1495 120.409 60.8179V60.5526C120.409 60.1215 120.741 59.7899 121.172 59.7899H121.437C121.769 59.7899 122.034 59.5246 122.034 59.193C122.034 58.8614 121.769 58.5961 121.437 58.5961Z" fill="#4E5567"/>
<path d="M128.965 104.259H128.7C128.268 104.259 127.937 103.928 127.937 103.496V103.231C127.937 102.9 127.672 102.634 127.34 102.634C127.008 102.634 126.743 102.9 126.743 103.231V103.496C126.743 103.928 126.411 104.259 125.98 104.259H125.682C125.35 104.259 125.085 104.524 125.085 104.856C125.085 105.188 125.35 105.453 125.682 105.453H125.947C126.378 105.453 126.71 105.785 126.71 106.216V106.481C126.71 106.813 126.975 107.078 127.307 107.078C127.638 107.078 127.904 106.813 127.904 106.481V106.216C127.904 105.785 128.235 105.453 128.666 105.453H128.932C129.263 105.453 129.529 105.188 129.529 104.856C129.562 104.524 129.296 104.259 128.965 104.259Z" fill="#4E5567"/>
<path d="M158.014 57.634H157.848C157.583 57.634 157.384 57.4351 157.384 57.1698V57.0371C157.384 56.8382 157.218 56.6724 157.019 56.6724C156.82 56.6724 156.654 56.8382 156.654 57.0371V57.2029C156.654 57.4682 156.455 57.6672 156.19 57.6672H156.024C155.825 57.6672 155.659 57.833 155.659 58.032C155.659 58.2309 155.825 58.3968 156.024 58.3968H156.19C156.455 58.3968 156.654 58.5957 156.654 58.861V59.0268C156.654 59.2258 156.82 59.3916 157.019 59.3916C157.218 59.3916 157.384 59.2258 157.384 59.0268V58.861C157.384 58.5957 157.583 58.3968 157.848 58.3968H158.014C158.213 58.3968 158.378 58.2309 158.378 58.032C158.378 57.7999 158.213 57.634 158.014 57.634Z" fill="#4E5567"/>
<path d="M142.495 65.8584H142.362C142.163 65.8584 141.997 65.6926 141.997 65.4936V65.361C141.997 65.1951 141.865 65.0625 141.699 65.0625C141.533 65.0625 141.4 65.1951 141.4 65.361V65.4936C141.4 65.6926 141.235 65.8584 141.036 65.8584H140.903C140.737 65.8584 140.604 65.991 140.604 66.1568C140.604 66.3226 140.737 66.4553 140.903 66.4553H141.036C141.235 66.4553 141.4 66.6211 141.4 66.8201V66.9527C141.4 67.1185 141.533 67.2512 141.699 67.2512C141.865 67.2512 141.997 67.1185 141.997 66.9527V66.8201C141.997 66.6211 142.163 66.4553 142.362 66.4553H142.495C142.66 66.4553 142.793 66.3226 142.793 66.1568C142.793 65.991 142.66 65.8584 142.495 65.8584Z" fill="#4E5567"/>
<path d="M110.726 23.2461H110.593C110.395 23.2461 110.229 23.0803 110.229 22.8813V22.7486C110.229 22.5828 110.096 22.4502 109.93 22.4502C109.764 22.4502 109.632 22.5828 109.632 22.7486V22.8813C109.632 23.0803 109.466 23.2461 109.267 23.2461H109.134C108.969 23.2461 108.836 23.3787 108.836 23.5445C108.836 23.7103 108.969 23.843 109.134 23.843H109.267C109.466 23.843 109.632 24.0088 109.632 24.2077V24.3404C109.632 24.5062 109.764 24.6388 109.93 24.6388C110.096 24.6388 110.229 24.5062 110.229 24.3404V24.2077C110.229 24.0088 110.395 23.843 110.593 23.843H110.726C110.892 23.843 111.025 23.7103 111.025 23.5445C110.991 23.3787 110.892 23.2461 110.726 23.2461Z" fill="#4E5567"/>
<path d="M143.589 22.1513H143.456C143.257 22.1513 143.092 21.9855 143.092 21.7866V21.6539C143.092 21.4881 142.959 21.3555 142.793 21.3555C142.627 21.3555 142.495 21.4881 142.495 21.6539V21.7866C142.495 21.9855 142.329 22.1513 142.13 22.1513H141.997C141.831 22.1513 141.699 22.284 141.699 22.4498C141.699 22.6156 141.831 22.7482 141.997 22.7482H142.13C142.329 22.7482 142.495 22.9141 142.495 23.113V23.2457C142.495 23.4115 142.627 23.5441 142.793 23.5441C142.959 23.5441 143.092 23.4115 143.092 23.2457V23.113C143.092 22.9141 143.257 22.7482 143.456 22.7482H143.589C143.755 22.7482 143.887 22.6156 143.887 22.4498C143.887 22.284 143.755 22.1513 143.589 22.1513Z" fill="#4E5567"/>
<path d="M10.4788 49.7418H10.313C10.0477 49.7418 9.81553 49.5097 9.81553 49.2444V49.0786C9.81553 48.8465 9.64973 48.6807 9.4176 48.6807C9.18547 48.6807 9.01966 48.8465 9.01966 49.0786V49.2444C9.01966 49.5097 8.78753 49.7418 8.52224 49.7418H8.35643C8.1243 49.7418 7.9585 49.9076 7.9585 50.1398C7.9585 50.3719 8.1243 50.5377 8.35643 50.5377H8.52224C8.78753 50.5377 9.01966 50.7698 9.01966 51.0351V51.2009C9.01966 51.4331 9.18547 51.5989 9.4176 51.5989C9.64973 51.5989 9.81553 51.4331 9.81553 51.2009V51.0351C9.81553 50.7698 10.0477 50.5377 10.313 50.5377H10.4788C10.7109 50.5377 10.8767 50.3719 10.8767 50.1398C10.8767 49.9408 10.6777 49.7418 10.4788 49.7418Z" fill="#4E5567"/>
<path d="M42.7454 97.4611H42.5796C42.3143 97.4611 42.0821 97.2289 42.0821 96.9636V96.7978C42.0821 96.5657 41.9163 96.3999 41.6842 96.3999C41.4521 96.3999 41.2863 96.5657 41.2863 96.7978V96.9636C41.2863 97.2289 41.0541 97.4611 40.7888 97.4611H40.623C40.3909 97.4611 40.2251 97.6269 40.2251 97.859C40.2251 98.0911 40.3909 98.2569 40.623 98.2569H40.7888C41.0541 98.2569 41.2863 98.4891 41.2863 98.7544V98.9202C41.2863 99.1523 41.4521 99.3181 41.6842 99.3181C41.9163 99.3181 42.0821 99.1523 42.0821 98.9202V98.7544C42.0821 98.4891 42.3143 98.2569 42.5796 98.2569H42.7454C42.9775 98.2569 43.1433 98.0911 43.1433 97.859C43.1433 97.6269 42.9443 97.4611 42.7454 97.4611Z" fill="#4E5567"/>
<path d="M164.448 113.975H164.282C164.016 113.975 163.784 113.743 163.784 113.478V113.312C163.784 113.08 163.618 112.914 163.386 112.914C163.154 112.914 162.988 113.08 162.988 113.312V113.478C162.988 113.743 162.756 113.975 162.491 113.975H162.325C162.093 113.975 161.927 114.141 161.927 114.373C161.927 114.605 162.093 114.771 162.325 114.771H162.491C162.756 114.771 162.988 115.003 162.988 115.269V115.434C162.988 115.666 163.154 115.832 163.386 115.832C163.618 115.832 163.784 115.666 163.784 115.434V115.269C163.784 115.003 164.016 114.771 164.282 114.771H164.448C164.68 114.771 164.845 114.605 164.845 114.373C164.845 114.174 164.646 113.975 164.448 113.975Z" fill="#4E5567"/>
<path d="M7.19614 28.6181H7.0635C6.83137 28.6181 6.66556 28.4522 6.66556 28.2201V28.0875C6.66556 27.9217 6.53291 27.7559 6.33395 27.7559C6.16814 27.7559 6.00233 27.8885 6.00233 28.0875V28.2201C6.00233 28.4522 5.83653 28.6181 5.6044 28.6181H5.47175C5.30594 28.6181 5.14014 28.7507 5.14014 28.9497C5.14014 29.1155 5.27278 29.2813 5.47175 29.2813H5.63756C5.86969 29.2813 6.03549 29.4471 6.03549 29.6792V29.8119C6.03549 29.9777 6.16814 30.1435 6.36711 30.1435C6.53291 30.1435 6.69872 30.0108 6.69872 29.8119V29.6792C6.69872 29.4471 6.86453 29.2813 7.09666 29.2813H7.2293C7.39511 29.2813 7.56092 29.1486 7.56092 28.9497C7.52775 28.7507 7.36195 28.6181 7.19614 28.6181Z" fill="#4E5567"/>
<path d="M19.6976 13.6625H19.565C19.3328 13.6625 19.167 13.4967 19.167 13.2646V13.1319C19.167 12.9661 19.0344 12.8003 18.8354 12.8003C18.6696 12.8003 18.5038 12.9329 18.5038 13.1319V13.2646C18.5038 13.4967 18.338 13.6625 18.1059 13.6625H17.9732C17.8074 13.6625 17.6416 13.7951 17.6416 13.9941C17.6416 14.1599 17.7742 14.3257 17.9732 14.3257H18.1059C18.338 14.3257 18.5038 14.4915 18.5038 14.7237V14.8563C18.5038 15.0221 18.6364 15.1879 18.8354 15.1879C19.0012 15.1879 19.167 15.0553 19.167 14.8563V14.7237C19.167 14.4915 19.3328 14.3257 19.565 14.3257H19.6976C19.8634 14.3257 20.0292 14.1931 20.0292 13.9941C20.0292 13.7951 19.8966 13.6625 19.6976 13.6625Z" fill="#4E5567"/>
<path d="M2.02284 78.6918H1.8902C1.65807 78.6918 1.49226 78.526 1.49226 78.2939V78.1612C1.49226 77.9954 1.35962 77.8296 1.16065 77.8296C0.994841 77.8296 0.829034 77.9622 0.829034 78.1612V78.2939C0.829034 78.526 0.663227 78.6918 0.431098 78.6918H0.331614C0.165807 78.6918 0 78.8244 0 79.0234C0 79.1892 0.132645 79.355 0.331614 79.355H0.464259C0.696388 79.355 0.862195 79.5208 0.862195 79.7529V79.8856C0.862195 80.0514 0.994841 80.2172 1.19381 80.2172C1.35962 80.2172 1.52542 80.0846 1.52542 79.8856V79.7529C1.52542 79.5208 1.69123 79.355 1.92336 79.355H2.056C2.22181 79.355 2.38762 79.2224 2.38762 79.0234C2.35446 78.8244 2.22181 78.6918 2.02284 78.6918Z" fill="#4E5567"/>
<path d="M50.704 38.8319H50.5713C50.3392 38.8319 50.1734 38.6661 50.1734 38.434V38.3013C50.1734 38.1355 50.0407 37.9697 49.8418 37.9697C49.676 37.9697 49.5101 38.1024 49.5101 38.3013V38.434C49.5101 38.6661 49.3443 38.8319 49.1122 38.8319H48.9796C48.8138 38.8319 48.6479 38.9646 48.6479 39.1635C48.6479 39.3293 48.7806 39.4951 48.9796 39.4951H49.1122C49.3443 39.4951 49.5101 39.661 49.5101 39.8931V40.0257C49.5101 40.1915 49.6428 40.3573 49.8418 40.3573C50.0076 40.3573 50.1734 40.2247 50.1734 40.0257V39.8931C50.1734 39.661 50.3392 39.4951 50.5713 39.4951H50.704C50.8698 39.4951 51.0356 39.3625 51.0356 39.1635C51.0356 38.9646 50.8698 38.8319 50.704 38.8319Z" fill="#4E5567"/>
<path d="M41.7835 77.4979H41.6509C41.4188 77.4979 41.253 77.3321 41.253 77.1V76.9674C41.253 76.8015 41.1203 76.6357 40.9213 76.6357C40.7555 76.6357 40.5897 76.7684 40.5897 76.9674V77.1C40.5897 77.3321 40.4239 77.4979 40.1918 77.4979H40.0592C39.8933 77.4979 39.7275 77.6306 39.7275 77.8295C39.7275 77.9954 39.8602 78.1612 40.0592 78.1612H40.1918C40.4239 78.1612 40.5897 78.327 40.5897 78.5591V78.6917C40.5897 78.8576 40.7224 79.0234 40.9213 79.0234C41.0872 79.0234 41.253 78.8907 41.253 78.6917V78.5591C41.253 78.327 41.4188 78.1612 41.6509 78.1612H41.7835C41.9493 78.1612 42.1152 78.0285 42.1152 77.8295C42.082 77.6306 41.9493 77.4979 41.7835 77.4979Z" fill="#4E5567"/>
<path d="M99.0196 9.15255C97.9916 9.15255 97.1626 8.32351 97.1626 7.29551C97.1626 6.26751 97.9916 5.43848 99.0196 5.43848C100.048 5.43848 100.877 6.26751 100.877 7.29551C100.877 8.32351 100.014 9.15255 99.0196 9.15255ZM99.0196 6.46648C98.5554 6.46648 98.1574 6.83125 98.1574 7.32867C98.1574 7.82609 98.5222 8.19087 99.0196 8.19087C99.4839 8.19087 99.8818 7.82609 99.8818 7.32867C99.8818 6.83125 99.4839 6.46648 99.0196 6.46648Z" fill="#4E5567"/>
<path d="M34.2223 29.5798C33.1943 29.5798 32.3652 28.7508 32.3652 27.7228C32.3652 26.6948 33.1943 25.8657 34.2223 25.8657C35.2503 25.8657 36.0793 26.6948 36.0793 27.7228C36.0793 28.7508 35.2171 29.5798 34.2223 29.5798ZM34.2223 26.8937C33.758 26.8937 33.3601 27.2585 33.3601 27.7559C33.3601 28.2533 33.7248 28.6181 34.2223 28.6181C34.7197 28.6181 35.0845 28.2533 35.0845 27.7559C35.0845 27.2585 34.6865 26.8937 34.2223 26.8937Z" fill="#4E5567"/>
<path d="M114.175 14.9224C113.445 14.9224 112.815 14.3255 112.815 13.5627C112.815 12.8 113.412 12.2031 114.175 12.2031C114.904 12.2031 115.534 12.8 115.534 13.5627C115.534 14.3255 114.904 14.9224 114.175 14.9224ZM114.175 12.9327C113.843 12.9327 113.544 13.198 113.544 13.5627C113.544 13.9275 113.81 14.1928 114.175 14.1928C114.506 14.1928 114.805 13.9275 114.805 13.5627C114.805 13.198 114.506 12.9327 114.175 12.9327Z" fill="#4E5567"/>
<path d="M124.123 122.73C123.394 122.73 122.764 122.133 122.764 121.37C122.764 120.641 123.361 120.011 124.123 120.011C124.853 120.011 125.483 120.608 125.483 121.37C125.45 122.133 124.853 122.73 124.123 122.73ZM124.123 120.773C123.792 120.773 123.493 121.039 123.493 121.404C123.493 121.735 123.759 122.034 124.123 122.034C124.455 122.034 124.753 121.768 124.753 121.404C124.753 121.039 124.455 120.773 124.123 120.773Z" fill="#4E5567"/>
<path d="M71.1638 121.005H60.519C60.2869 121.005 60.1211 120.84 60.1211 120.607C60.1211 120.375 60.2869 120.209 60.519 120.209H71.1638C71.396 120.209 71.5618 120.375 71.5618 120.607C71.5618 120.84 71.3628 121.005 71.1638 121.005Z" fill="#5C6479"/>
<path d="M70.6334 118.452C70.9319 118.651 71.1308 118.983 71.1308 119.314V120.176H60.6519V119.281C60.6519 118.95 60.8177 118.618 61.083 118.419L62.4426 117.49H62.4757V113.743H69.1412V117.557L70.6334 118.452Z" fill="#848B9D"/>
<path opacity="0.3" d="M71.0977 119.347V120.21H68.0136V119.347C68.0136 118.983 67.9473 118.651 67.8147 118.485L67.2178 117.557V113.743H69.1411V117.557L70.6334 118.485C70.9318 118.651 71.0977 118.983 71.0977 119.347Z" fill="#2C3039"/>
<g filter="url(#filter0_d_1160_12026)">
<path d="M66.5217 29.2819C66.1237 28.9171 65.4937 28.9171 65.0957 29.2819C63.1392 30.9399 60.0884 36.8095 60.0884 43.0438V116.297C60.0884 116.994 60.6521 117.524 61.3153 117.524H65.7921H70.3021C70.9985 117.524 71.529 116.961 71.529 116.297V43.0438C71.5622 36.8095 68.4782 30.9731 66.5217 29.2819Z" fill="url(#paint0_linear_1160_12026)"/>
</g>
<path d="M71.5616 43.0439V116.297C71.5616 116.994 70.9979 117.557 70.3015 117.557H67.118C67.317 117.557 67.4828 116.994 67.4828 116.297V43.0439C67.4828 36.8095 66.5874 30.9731 66.0237 29.2819C65.9574 29.1161 65.891 29.0166 65.8247 29.0166C66.09 29.0166 66.3221 29.1161 66.5211 29.2819C68.4776 30.9731 71.5616 36.8095 71.5616 43.0439Z" fill="url(#paint1_linear_1160_12026)"/>
<path d="M86.6831 10.3794C85.7214 9.91519 84.2954 9.91519 83.3338 10.3794C78.7907 12.6676 71.5283 23.3787 71.5283 31.9012C71.5283 41.5511 71.5283 113.08 71.5283 113.08H84.9918H98.4553C98.4553 113.08 98.4553 41.5511 98.4553 31.9012C98.4553 23.4119 91.2262 12.7007 86.6831 10.3794Z" fill="url(#paint2_linear_1160_12026)"/>
<path d="M98.4557 31.9348C98.4557 41.5848 98.4557 113.114 98.4557 113.114H90.5965C90.5965 113.114 90.5965 41.5848 90.5965 31.9348C90.5965 23.4124 87.5788 12.7012 85.6886 10.4131C85.4896 10.181 85.2243 10.0483 84.9922 10.0483C85.5891 10.0483 86.186 10.181 86.6503 10.4131C91.2265 12.7012 98.4557 23.4124 98.4557 31.9348Z" fill="url(#paint3_linear_1160_12026)"/>
<path opacity="0.2" d="M84.9919 10.0483C84.7929 10.0483 84.594 10.181 84.4613 10.4131C82.9691 12.7012 80.6478 23.4124 80.6478 31.9348C80.6478 41.5848 80.6478 113.114 80.6478 113.114H75.0767C75.0767 113.114 75.0767 41.5848 75.0767 31.9348C75.0767 23.4124 80.4156 12.7012 83.7981 10.4131C84.1297 10.1478 84.5608 10.0483 84.9919 10.0483Z" fill="url(#paint4_linear_1160_12026)"/>
<path opacity="0.4" fill-rule="evenodd" clip-rule="evenodd" d="M71.8027 37.4482H98.544V38.6825H71.8027V37.4482Z" fill="#2E323B"/>
<path opacity="0.4" fill-rule="evenodd" clip-rule="evenodd" d="M71.3916 51.8477H98.5443V53.0819H71.3916V51.8477Z" fill="#2E323B"/>
<path opacity="0.4" fill-rule="evenodd" clip-rule="evenodd" d="M59.8823 70.0503H71.7676V71.2845H59.8823V70.0503Z" fill="#2C3039"/>
<path opacity="0.4" fill-rule="evenodd" clip-rule="evenodd" d="M59.8823 58.6357H71.7676V59.87H59.8823V58.6357Z" fill="#2C3039"/>
<path opacity="0.4" fill-rule="evenodd" clip-rule="evenodd" d="M59.8823 43.4136H71.7676V44.6478H59.8823V43.4136Z" fill="#2C3039"/>
<path d="M109.531 121.005H98.8867C98.6546 121.005 98.4888 120.84 98.4888 120.607C98.4888 120.375 98.6546 120.209 98.8867 120.209H109.531C109.764 120.209 109.929 120.375 109.929 120.607C109.929 120.84 109.73 121.005 109.531 121.005Z" fill="#5C6479"/>
<path d="M109.001 118.452C109.3 118.651 109.499 118.983 109.499 119.314V120.176H99.0195V119.281C99.0195 118.95 99.1853 118.618 99.4506 118.419L100.81 117.49H100.843V113.743H107.509V117.557L109.001 118.452Z" fill="#848B9D"/>
<path opacity="0.3" d="M109.465 119.347V120.21H106.713V119.347C106.713 118.983 106.613 118.651 106.481 118.485L105.784 117.557V113.743H107.509V117.557L109.001 118.485C109.299 118.651 109.465 118.983 109.465 119.347Z" fill="#2C3039"/>
<g filter="url(#filter1_d_1160_12026)">
<path d="M104.888 29.2819C104.49 28.9171 103.86 28.9171 103.462 29.2819C101.506 30.9399 98.4551 36.8095 98.4551 43.0438V116.297C98.4551 116.994 99.0188 117.524 99.6821 117.524H104.159H108.636C109.332 117.524 109.863 116.961 109.863 116.297V43.0438C109.929 36.8095 106.845 30.9731 104.888 29.2819Z" fill="url(#paint5_linear_1160_12026)"/>
</g>
<path d="M109.929 43.0439V116.297C109.929 116.994 109.366 117.557 108.669 117.557H105.486C105.685 117.557 105.85 116.994 105.85 116.297V43.0439C105.85 36.8095 104.955 30.9731 104.391 29.2819C104.325 29.1161 104.259 29.0166 104.192 29.0166C104.458 29.0166 104.69 29.1161 104.889 29.2819C106.845 30.9731 109.929 36.8095 109.929 43.0439Z" fill="url(#paint6_linear_1160_12026)"/>
<path opacity="0.4" fill-rule="evenodd" clip-rule="evenodd" d="M98.1426 70.0503H110.028V71.2845H98.1426V70.0503Z" fill="#2C3039"/>
<path opacity="0.4" fill-rule="evenodd" clip-rule="evenodd" d="M98.1426 58.6357H110.028V59.87H98.1426V58.6357Z" fill="#2C3039"/>
<path opacity="0.4" fill-rule="evenodd" clip-rule="evenodd" d="M98.1426 43.4136H110.028V44.6478H98.1426V43.4136Z" fill="#2C3039"/>
<g filter="url(#filter2_d_1160_12026)">
<path d="M77.2658 53.8209L77.8296 51.6985L79.2224 51.3669L81.5437 50.8363L81.8089 50.77L82.0079 53.8209L85.4567 104.16L77.9954 114.34L75.0772 113.843L54.7824 110.361C53.5223 110.162 52.627 109.068 52.627 107.808V98.2239C52.627 97.0964 53.0912 95.9689 53.8871 95.1731L67.5496 81.3116C69.7714 79.0567 71.3631 76.2711 72.159 73.2203L75.0772 62.2107L77.2658 53.8209Z" fill="#848B9D"/>
</g>
<circle cx="67.8943" cy="96.0735" r="2.29123" stroke="#2D313A" stroke-width="2"/>
<path d="M79.1892 51.3672V65.2618L77.6969 66.9199L77.5642 66.0245C77.4979 65.5934 77.1331 65.2618 76.7021 65.2618C76.3041 65.2618 75.9725 65.5271 75.8399 65.8919L71.8605 80.5823C71.5952 81.5772 71.0646 82.4725 70.3682 83.2021L55.4456 98.1579C55.1472 98.4563 54.9814 98.8542 54.9814 99.2522V102.502C54.9814 103.364 55.6778 104.061 56.5399 104.061H75.6077L76.0388 107.145C76.0388 107.344 56.7389 107.178 52.5938 107.145V98.1579C52.5938 97.0304 53.0248 95.9029 53.8539 95.107L67.5164 81.2456C69.7382 78.9906 71.3299 76.205 72.1258 73.1542L77.7964 51.6656L79.1892 51.3672Z" fill="#2C3039"/>
<path d="M85.4566 104.16L77.9953 114.307L75.0439 113.81V62.1775L77.2658 53.8208H82.0078L85.4566 104.16Z" fill="url(#paint7_linear_1160_12026)"/>
<g filter="url(#filter3_d_1160_12026)">
<path d="M118.386 98.1908V107.774C118.386 109.035 117.491 110.129 116.23 110.328L101.009 112.948L93.0175 114.307L85.5562 104.16L89.2039 50.77L89.4692 50.8363L91.7905 51.4001L93.1833 51.7317L98.2569 70.8658L98.887 73.2203C99.6829 76.2711 101.275 79.0567 103.496 81.3116L117.159 95.1731C117.955 95.9689 118.386 97.0633 118.386 98.1908Z" fill="#848B9D"/>
</g>
<path opacity="0.4" d="M105.751 93.7803H99.4507V98.2571H105.751V93.7803Z" fill="#2C3039"/>
<path d="M102.734 93.7803H99.4507V96.2342H102.734V93.7803Z" fill="#2C3039"/>
<path d="M91.79 51.3672V65.2618L93.2823 66.9199L93.415 66.0245C93.4813 65.5934 93.846 65.2618 94.2771 65.2618C94.6751 65.2618 95.0067 65.5271 95.1393 65.8919L99.1519 80.5823C99.4172 81.5772 99.9477 82.4725 100.644 83.2021L115.567 98.1579C115.865 98.4563 116.031 98.8542 116.031 99.2522V102.502C116.031 103.364 115.335 104.061 114.472 104.061H95.4378L95.0067 107.145C95.0067 107.344 114.307 107.178 118.452 107.145V98.1579C118.452 97.0304 118.021 95.9029 117.192 95.107L103.463 81.2787C101.241 79.0238 99.6493 76.2382 98.8534 73.1874L93.1828 51.6988L91.79 51.3672Z" fill="#2C3039"/>
<path d="M101.009 103.696V112.948L93.0175 114.307L85.5562 104.16L89.2039 50.77L89.4692 50.8363L91.7905 51.4001L93.1833 51.7317L98.2569 70.8658V99.7493C99.8487 100.313 101.009 101.872 101.009 103.696Z" fill="url(#paint8_linear_1160_12026)"/>
<g filter="url(#filter4_d_1160_12026)">
<path d="M93.2823 48.9791V113.113H77.4644V48.9791C77.4644 46.1936 78.0613 43.4412 79.2551 40.9209C79.4872 40.4566 79.7193 39.9592 79.9846 39.495V39.4618L83.3008 33.957C84.2293 32.3984 86.4842 32.3984 87.4459 33.957L90.7621 39.4618V39.495C91.0274 39.9592 91.2595 40.4235 91.4916 40.8877C92.6854 43.4412 93.2823 46.1936 93.2823 48.9791Z" fill="#848B9D"/>
</g>
<path d="M93.2825 48.9792V113.113H88.5404V48.9792C88.5404 46.1936 88.3083 43.4412 87.8109 40.921C87.7114 40.4567 87.6451 39.9924 87.5124 39.5282V39.495L86.186 33.9902C85.987 33.1944 85.6885 32.8296 85.3569 32.8296C86.1528 32.8296 86.9487 33.2275 87.4129 33.9902L90.7291 39.495V39.5282C90.9944 39.9924 91.2265 40.4567 91.4586 40.921C92.6856 43.4412 93.2825 46.1936 93.2825 48.9792Z" fill="url(#paint9_linear_1160_12026)"/>
<path d="M91.4915 40.9209C90.9277 40.0587 89.966 39.495 88.9049 39.495H81.9078C80.8467 39.495 79.8518 40.0587 79.2881 40.9209C79.5202 40.4566 79.7523 39.9592 80.0176 39.495V39.4618L83.3338 33.957C84.2623 32.3984 86.5173 32.3984 87.4789 33.957L90.7951 39.4618V39.495C91.0272 39.9592 91.2925 40.4235 91.4915 40.9209Z" fill="#69768C"/>
<path d="M88.9382 47.9511C88.9382 48.2164 88.6398 48.3159 88.474 48.1169C88.1092 47.6526 87.5455 47.3873 86.8822 47.3873H83.8314C83.2345 47.3873 82.6707 47.6526 82.306 48.0837C82.2728 48.1169 82.2728 48.1169 82.2396 48.15C82.0738 48.349 81.7754 48.2164 81.7754 47.9842C81.7754 47.7853 81.7754 47.52 81.7754 47.1884C81.7754 46.0609 82.7039 45.1655 83.8314 45.1655H86.8822C86.9486 45.1655 87.0149 45.1655 87.0812 45.1655C87.3797 45.1987 87.645 45.2982 87.9102 45.4308C88.5071 45.7956 88.9382 46.4588 88.9382 47.1884C88.9382 47.52 88.9382 47.7521 88.9382 47.9511Z" fill="#2C3039"/>
<path opacity="0.3" fill-rule="evenodd" clip-rule="evenodd" d="M77.3677 66.4351H93.4882V67.6693H77.3677V66.4351Z" fill="#2C3039"/>
<path opacity="0.3" fill-rule="evenodd" clip-rule="evenodd" d="M77.3677 84.1431H93.4882V85.3773H77.3677V84.1431Z" fill="#2C3039"/>
<g filter="url(#filter5_d_1160_12026)">
<path d="M81.2447 99.4507H79.3213C76.9669 99.4507 75.0767 101.341 75.0767 103.695V114.373H85.4893V103.695C85.4562 101.341 83.566 99.4507 81.2447 99.4507Z" fill="url(#paint10_linear_1160_12026)"/>
</g>
<path d="M85.4563 103.695V114.373H81.3112V100.512C81.3112 99.9149 80.8469 99.4507 80.25 99.4507H81.2117C83.5661 99.4507 85.4563 101.341 85.4563 103.695Z" fill="url(#paint11_linear_1160_12026)"/>
<g filter="url(#filter6_d_1160_12026)">
<path d="M91.5581 99.4507H89.6348C87.2803 99.4507 85.3901 101.341 85.3901 103.695V114.373H95.8028V103.695C95.8028 101.341 93.9126 99.4507 91.5581 99.4507Z" fill="url(#paint12_linear_1160_12026)"/>
</g>
<path d="M95.8028 103.695V114.373H92.1882V100.843C92.1882 100.081 91.5581 99.4507 90.7954 99.4507H91.5581C93.9126 99.4507 95.8028 101.341 95.8028 103.695Z" fill="url(#paint13_linear_1160_12026)"/>
<path opacity="0.4" d="M85.3569 103.695V114.373H88.9715V100.843C88.9715 100.081 89.6016 99.4507 90.3643 99.4507H89.6016C87.2803 99.4507 85.3569 101.341 85.3569 103.695Z" fill="url(#paint14_linear_1160_12026)"/>
<g filter="url(#filter7_d_1160_12026)">
<path d="M90.8614 114.307H79.9181L77.6631 115.833C77.1989 116.164 76.9336 116.662 76.9336 117.225V118.718H94.1775V117.292C94.1775 116.695 93.879 116.164 93.3816 115.866L90.8614 114.307Z" fill="#848B9D"/>
</g>
<path opacity="0.3" d="M94.1778 117.325V118.751H89.0047V117.325C89.0047 116.728 88.872 116.197 88.6731 115.866L87.6782 114.307H90.8617L93.382 115.866C93.8794 116.164 94.1778 116.728 94.1778 117.325Z" fill="#2C3039"/>
<path d="M84.3288 56.9383H83.5993C83.2345 56.9383 82.936 56.6399 82.936 56.2751V55.5456C82.936 55.1808 83.2345 54.8823 83.5993 54.8823H84.3288C84.6936 54.8823 84.992 55.1808 84.992 55.5456V56.2751C84.992 56.6399 84.6936 56.9383 84.3288 56.9383Z" fill="#2C3039"/>
<path d="M87.4128 56.9383H86.6832C86.3185 56.9383 86.02 56.6399 86.02 56.2751V55.5456C86.02 55.1808 86.3185 54.8823 86.6832 54.8823H87.4128C87.7776 54.8823 88.076 55.1808 88.076 55.5456V56.2751C88.076 56.6399 87.7776 56.9383 87.4128 56.9383Z" fill="#2C3039"/>
<g filter="url(#filter8_d_1160_12026)">
<path d="M86.4514 121.404H84.2959V96.8644C84.2959 96.2675 84.7933 95.8032 85.3571 95.8032C85.954 95.8032 86.4182 96.3006 86.4182 96.8644V121.404H86.4514Z" fill="#8E96AB"/>
</g>
<path d="M69.5063 137.354C70.8328 136.26 72.5572 135.597 74.4474 135.597C77.4982 135.597 80.118 137.354 81.3781 139.908" stroke="#353B4A" stroke-width="2" stroke-miterlimit="10" stroke-linecap="round" stroke-linejoin="round"/>
<path opacity="0.3" d="M85.7881 45.1323L84.5943 47.3873H83.8316C83.2347 47.3873 82.6709 47.6526 82.3062 48.0837L83.8647 45.1323H85.7881Z" fill="#5C6479"/>
<path opacity="0.3" d="M87.9105 45.3976L86.8825 47.3873H85.8877L87.0815 45.1323C87.38 45.1655 87.6452 45.265 87.9105 45.3976Z" fill="#5C6479"/>
<path d="M24.5057 157.251C24.4062 156.323 24.3398 155.394 24.3398 154.466C24.3398 140.903 35.3162 129.926 48.8792 129.926C60.1873 129.926 69.7046 137.553 72.5565 147.966" stroke="#353B4A" stroke-width="2" stroke-miterlimit="10" stroke-linecap="round" stroke-linejoin="round"/>
<path d="M27.2255 166.006C26.1644 164.016 25.3685 161.827 24.8711 159.572" stroke="#353B4A" stroke-width="2" stroke-miterlimit="10" stroke-linecap="round" stroke-linejoin="round"/>
<path d="M72.7559 147.866C73.0212 143.423 76.7352 139.875 81.2452 139.875C82.9364 139.875 84.495 140.372 85.8214 141.201" stroke="#353B4A" stroke-width="2" stroke-miterlimit="10" stroke-linecap="round" stroke-linejoin="round"/>
<path d="M89.4692 135.199C90.8289 134.27 92.4869 133.74 94.2445 133.74C97.0632 133.74 99.5171 135.099 101.076 137.189" stroke="#353B4A" stroke-width="2" stroke-miterlimit="10" stroke-linecap="round" stroke-linejoin="round"/>
<path d="M139.477 149.027C140.637 151.414 141.267 154.067 141.267 156.886C141.267 158.345 141.101 159.771 140.77 161.131" stroke="#353B4A" stroke-width="2" stroke-miterlimit="10" stroke-linecap="round" stroke-linejoin="round"/>
<path d="M108.206 146.54C111.489 141.831 116.927 138.747 123.095 138.747C128.965 138.747 134.204 141.533 137.52 145.877" stroke="#353B4A" stroke-width="2" stroke-miterlimit="10" stroke-linecap="round" stroke-linejoin="round"/>
<path d="M141.267 155.626C141.433 155.626 141.599 155.626 141.765 155.626C146.175 155.626 149.756 159.208 149.756 163.618C149.756 165.21 149.292 166.669 148.496 167.896" stroke="#353B4A" stroke-width="2" stroke-miterlimit="10" stroke-linecap="round" stroke-linejoin="round"/>
<path opacity="0.3" d="M141.268 156.92C141.268 169.587 128.6 178.342 116.762 173.931C128.103 176.418 138.847 167.796 138.847 156.19C138.847 148.397 133.939 141.732 127.009 139.178C135.166 140.969 141.268 148.231 141.268 156.92Z" fill="#414655"/>
<path d="M131.253 173.136C130.954 173.302 130.656 173.434 130.357 173.567" stroke="#353B4A" stroke-width="2" stroke-miterlimit="10" stroke-linecap="round" stroke-linejoin="round"/>
<path d="M140.803 160.932C139.808 165.276 137.288 169.024 133.806 171.577" stroke="#353B4A" stroke-width="2" stroke-miterlimit="10" stroke-linecap="round" stroke-linejoin="round"/>
<path d="M52.9917 160.435C55.114 160.767 56.8053 162.358 57.3027 164.414" stroke="#353B4A" stroke-width="2" stroke-miterlimit="10" stroke-linecap="round" stroke-linejoin="round"/>
<path d="M55.147 161.164C56.8382 158.511 59.8227 156.721 63.2052 156.721C65.1285 156.721 66.9193 157.284 68.4115 158.279" stroke="#353B4A" stroke-width="2" stroke-miterlimit="10" stroke-linecap="round" stroke-linejoin="round"/>
<path d="M66.7866 157.417C66.7534 157.185 66.7534 156.953 66.7534 156.72C66.7534 151.448 71.0312 147.203 76.2707 147.203C81.5102 147.203 85.788 151.481 85.788 156.72C85.788 157.417 85.7217 158.08 85.5891 158.743" stroke="#353B4A" stroke-width="2" stroke-miterlimit="10" stroke-linecap="round" stroke-linejoin="round"/>
<path d="M85.5894 158.743C86.3189 159.44 86.949 160.269 87.3801 161.197" stroke="#353B4A" stroke-width="2" stroke-miterlimit="10" stroke-linecap="round" stroke-linejoin="round"/>
<path d="M86.3188 163.817C87.9106 158.279 92.9843 154.233 99.0528 154.233C105.353 154.233 110.626 158.644 111.953 164.513" stroke="#353B4A" stroke-width="2" stroke-miterlimit="10" stroke-linecap="round" stroke-linejoin="round"/>
<path opacity="0.3" d="M94.8748 180C89.6021 178.242 85.7886 173.301 85.7886 167.432C85.7886 161.297 89.9669 156.157 95.6043 154.631C84.7606 159.373 84.3295 174.661 94.8748 180Z" fill="#414655"/>
<path d="M85.8213 166.801C85.8213 166.569 85.8545 166.37 85.8545 166.171" stroke="#353B4A" stroke-width="2" stroke-miterlimit="10" stroke-linecap="round" stroke-linejoin="round"/>
<path d="M107.608 175.059C107.575 174.727 107.542 174.429 107.542 174.097C107.542 170.449 110.493 167.465 114.174 167.465C117.822 167.465 120.807 170.416 120.807 174.097" stroke="#353B4A" stroke-width="2" stroke-miterlimit="10" stroke-linecap="round" stroke-linejoin="round"/>
<path d="M158.578 156.953C159.042 156.223 159.871 155.726 160.799 155.726C162.225 155.726 163.386 156.886 163.386 158.312" stroke="#353B4A" stroke-width="2" stroke-miterlimit="10" stroke-linecap="round" stroke-linejoin="round"/>
<path d="M158.246 158.809C158.246 158.776 158.246 158.743 158.213 158.71" stroke="#353B4A" stroke-width="2" stroke-miterlimit="10" stroke-linecap="round" stroke-linejoin="round"/>
<path d="M162.722 160.037C162.258 160.567 161.562 160.899 160.766 160.899C159.871 160.899 159.108 160.468 158.644 159.805" stroke="#353B4A" stroke-width="2" stroke-miterlimit="10" stroke-linecap="round" stroke-linejoin="round"/>
<path d="M62.1445 165.807C62.6088 165.077 63.4378 164.58 64.3663 164.58C65.7923 164.58 66.9529 165.74 66.9529 167.166" stroke="#353B4A" stroke-width="2" stroke-miterlimit="10" stroke-linecap="round" stroke-linejoin="round"/>
<path d="M61.8129 167.697C61.8129 167.663 61.8129 167.63 61.7798 167.597" stroke="#353B4A" stroke-width="2" stroke-miterlimit="10" stroke-linecap="round" stroke-linejoin="round"/>
<path d="M66.2898 168.891C65.8255 169.421 65.1291 169.753 64.3333 169.753C63.4379 169.753 62.6752 169.322 62.2109 168.659" stroke="#353B4A" stroke-width="2" stroke-miterlimit="10" stroke-linecap="round" stroke-linejoin="round"/>
<path d="M17.9736 168.36C21.1903 166.868 24.7717 166.006 28.5189 166.006C29.2153 166.006 29.9117 166.039 30.5749 166.105" stroke="#353B4A" stroke-width="2" stroke-miterlimit="10" stroke-linecap="round" stroke-linejoin="round"/>
<path d="M13.9609 170.715C14.5578 170.284 15.1547 169.886 15.7848 169.521" stroke="#353B4A" stroke-width="2" stroke-miterlimit="10" stroke-linecap="round" stroke-linejoin="round"/>
<path d="M159.672 170.217C156.455 168.724 152.874 167.862 149.126 167.862C148.43 167.862 147.734 167.895 147.07 167.962" stroke="#353B4A" stroke-width="2" stroke-miterlimit="10" stroke-linecap="round" stroke-linejoin="round"/>
<path d="M120.973 84.6609C120.973 82.008 123.128 79.8525 125.781 79.8525C126.312 79.8525 126.809 79.952 127.306 80.0847" stroke="#353B4A" stroke-width="2" stroke-miterlimit="10" stroke-linecap="round" stroke-linejoin="round"/>
<path d="M153.039 85.1587H161.528" stroke="#353B4A" stroke-width="2" stroke-miterlimit="10" stroke-linecap="round" stroke-linejoin="round"/>
<path d="M138.681 81.8423C140.505 81.8423 141.964 83.3014 141.964 85.1253H149.126" stroke="#353B4A" stroke-width="2" stroke-miterlimit="10" stroke-linecap="round" stroke-linejoin="round"/>
<path d="M127.339 80.0844C128.069 77.7962 130.224 76.1382 132.778 76.1382C135.928 76.1382 138.482 78.6916 138.482 81.8419" stroke="#353B4A" stroke-width="2" stroke-miterlimit="10" stroke-linecap="round" stroke-linejoin="round"/>
<path d="M49.842 91.5582C49.842 90.3312 48.8471 89.3032 47.587 89.3032C47.3549 89.3032 47.0896 89.3364 46.8906 89.4027" stroke="#353B4A" stroke-width="2" stroke-miterlimit="10" stroke-linecap="round" stroke-linejoin="round"/>
<path d="M34.8861 91.7573H30.9067" stroke="#353B4A" stroke-width="2" stroke-miterlimit="10" stroke-linecap="round" stroke-linejoin="round"/>
<path d="M41.5847 90.2324C40.7225 90.2324 40.0593 90.9288 40.0593 91.7578H36.71" stroke="#353B4A" stroke-width="2" stroke-miterlimit="10" stroke-linecap="round" stroke-linejoin="round"/>
<path d="M46.8577 89.4029C46.5261 88.3418 45.4981 87.5459 44.3375 87.5459C42.8784 87.5459 41.6846 88.7397 41.6846 90.1988" stroke="#353B4A" stroke-width="2" stroke-miterlimit="10" stroke-linecap="round" stroke-linejoin="round"/>
<path d="M6.33398 109.465C6.33398 108.04 7.49463 106.846 8.95373 106.846C9.25218 106.846 9.51747 106.879 9.78276 106.978" stroke="#353B4A" stroke-width="2" stroke-miterlimit="10" stroke-linecap="round" stroke-linejoin="round"/>
<path d="M15.9175 107.94C16.9123 107.94 17.7082 108.736 17.7082 109.731H21.5881" stroke="#353B4A" stroke-width="2" stroke-miterlimit="10" stroke-linecap="round" stroke-linejoin="round"/>
<path d="M9.78223 107.012C10.1802 105.785 11.3408 104.856 12.7336 104.856C14.4248 104.856 15.8176 106.249 15.8176 107.94" stroke="#353B4A" stroke-width="2" stroke-miterlimit="10" stroke-linecap="round" stroke-linejoin="round"/>
<path opacity="0.3" d="M122.001 138.78C125.649 130.854 133.674 125.35 142.992 125.35C155.759 125.35 166.106 135.696 166.106 148.463C166.106 154.697 163.652 160.368 159.639 164.513" stroke="#353B4A" stroke-width="2" stroke-miterlimit="10" stroke-linecap="round" stroke-linejoin="round"/>
<path opacity="0.3" d="M2.02313 161.86C-0.331328 153.437 2.2221 144.053 9.31863 138.051C16.4815 131.982 26.2641 131.02 34.2228 134.801" stroke="#353B4A" stroke-width="2" stroke-miterlimit="10" stroke-linecap="round" stroke-linejoin="round"/>
<path d="M28.8174 119.911H31.5698V119.745C31.5698 118.319 32.7304 117.159 34.1564 117.159C34.8196 117.159 35.4165 117.424 35.8807 117.822V117.789C36.5771 115.666 38.5668 114.108 40.9213 114.108C43.8395 114.108 46.2271 116.496 46.2271 119.414C46.2271 119.679 46.1939 119.977 46.1608 120.243L46.2271 120.309H47.653" stroke="#353B4A" stroke-width="2" stroke-miterlimit="10" stroke-linecap="round" stroke-linejoin="round"/>
<path d="M153.67 101.772H151.05V101.606C151.05 100.246 149.956 99.1521 148.596 99.1521C147.966 99.1521 147.402 99.3842 146.938 99.7821V99.749C146.275 97.7261 144.385 96.2339 142.096 96.2339C139.311 96.2339 137.023 98.4889 137.023 101.308C137.023 101.573 137.056 101.838 137.089 102.103L137.023 102.17H135.663" stroke="#353B4A" stroke-width="2" stroke-miterlimit="10" stroke-linecap="round" stroke-linejoin="round"/>
<g filter="url(#filter9_d_1160_12026)">
<path d="M142.122 43.9334C145.943 40.1131 145.943 33.9191 142.122 30.0988C138.302 26.2785 132.108 26.2785 128.288 30.0988C124.468 33.9191 124.468 40.1131 128.288 43.9334C132.108 47.7537 138.302 47.7537 142.122 43.9334Z" fill="#414655"/>
</g>
<g filter="url(#filter10_d_1160_12026)">
<path d="M129.296 29.2152C122.531 23.213 117.159 19.6315 116.098 20.6927C115.004 21.787 119.016 27.7229 125.615 34.9852C136.492 47.0228 149.79 57.8666 151.548 56.109C153.371 54.2851 141.566 40.0589 129.296 29.2152ZM139.842 45.63C128.003 36.6433 117.988 21.6544 128.733 29.6463C136.293 35.2505 146.043 46.5586 144.65 47.9513C144.153 48.4488 142.329 47.5202 139.842 45.63Z" fill="#D5DDEA"/>
</g>
<path opacity="0.3" d="M120.641 24.5725C119.414 25.7995 124.455 32.8297 131.916 40.291C139.378 47.7523 146.408 52.7929 147.635 51.5659C150.52 48.6808 123.56 21.6543 120.641 24.5725ZM124.256 27.5571C125.151 26.6617 130.457 30.4753 136.095 36.1127C141.732 41.7501 145.546 47.0228 144.65 47.9513C142.495 50.1068 122.101 29.7125 124.256 27.5571Z" fill="url(#paint15_linear_1160_12026)"/>
<g filter="url(#filter11_d_1160_12026)">
<path d="M139.842 45.63C135.498 42.3471 129.861 36.7096 126.578 32.3655C129.595 26.7281 137.388 25.3353 142.13 30.0773C146.839 34.7863 145.513 42.5792 139.842 45.63Z" fill="#414655"/>
</g>
<path opacity="0.3" d="M142.097 43.9725C141.401 44.6357 140.638 45.1995 139.842 45.6306C135.498 42.3476 129.861 36.7102 126.578 32.366C126.976 31.6033 127.539 30.9401 128.169 30.2769C127.473 32.9961 140.174 45.4316 142.097 43.9725Z" fill="#1E1F28"/>
<path d="M141.898 39.9929C142.649 39.9929 143.258 38.9982 143.258 37.7711C143.258 36.5441 142.649 35.5493 141.898 35.5493C141.147 35.5493 140.539 36.5441 140.539 37.7711C140.539 38.9982 141.147 39.9929 141.898 39.9929Z" fill="#2C3039"/>
<path d="M138.515 33.2608C139.12 33.2608 139.61 32.6669 139.61 31.9344C139.61 31.2018 139.12 30.6079 138.515 30.6079C137.911 30.6079 137.421 31.2018 137.421 31.9344C137.421 32.6669 137.911 33.2608 138.515 33.2608Z" fill="#2C3039"/>
<path d="M131.775 32.2244C132.335 32.1336 132.73 31.6937 132.657 31.2417C132.584 30.7898 132.07 30.497 131.51 30.5877C130.949 30.6784 130.554 31.1183 130.628 31.5703C130.701 32.0222 131.214 32.3151 131.775 32.2244Z" fill="#2C3039"/>
<path d="M135.413 35.8992C136.317 35.7529 136.95 35.0187 136.827 34.2594C136.705 33.5002 135.872 33.0033 134.968 33.1496C134.064 33.2959 133.431 34.0301 133.554 34.7894C133.677 35.5486 134.509 36.0455 135.413 35.8992Z" fill="#2C3039"/>
<path d="M46.9567 53.7877C46.9567 64.3661 36.2788 71.6616 26.4299 67.7818C23.8433 66.7538 21.6215 65.0625 19.9634 62.8739C12.5021 53.0581 19.4328 38.7324 31.9346 38.7324C33.659 38.7324 35.2839 39.0309 36.8094 39.5283C42.7452 41.6175 46.9567 47.2549 46.9567 53.7877Z" fill="url(#paint16_linear_1160_12026)"/>
<path opacity="0.5" d="M30.044 55.2139C30.044 57.3362 28.3196 59.0606 26.1973 59.0606C25.6004 59.0606 25.0367 58.928 24.5061 58.6627C23.2128 58.0326 22.3506 56.7393 22.3506 55.2139C22.3506 53.0916 24.075 51.3672 26.1973 51.3672C27.2916 51.3672 28.3196 51.8315 29.016 52.5942C29.6461 53.2574 30.044 54.1859 30.044 55.2139Z" fill="#69768C"/>
<path opacity="0.4" d="M30.0445 55.2135C30.0445 57.3358 28.3201 59.0602 26.1977 59.0602C25.6008 59.0602 25.0371 58.9276 24.5065 58.6623C23.8765 57.9659 23.4785 57.0705 23.4785 56.0425C23.4785 53.9202 25.2029 52.1958 27.3252 52.1958C27.9221 52.1958 28.4859 52.3285 29.0165 52.5937C29.6465 53.257 30.0445 54.1855 30.0445 55.2135Z" fill="#69768C"/>
<path opacity="0.5" d="M35.8474 48.7477C35.8474 50.2068 34.6868 51.3674 33.2277 51.3674C32.9624 51.3674 32.7302 51.3343 32.4981 51.2679C31.4038 50.9695 30.6079 49.9415 30.6079 48.7477C30.6079 47.2886 31.7686 46.1279 33.2277 46.1279C33.9572 46.1279 34.5873 46.4264 35.0515 46.8575C35.5489 47.3549 35.8474 48.0181 35.8474 48.7477Z" fill="#69768C"/>
<path opacity="0.4" d="M35.8473 48.7475C35.8473 50.2066 34.6867 51.3673 33.2276 51.3673C32.9623 51.3673 32.7302 51.3341 32.498 51.2678C32.0006 50.8035 31.7021 50.1403 31.7021 49.4108C31.7021 47.9517 32.8628 46.791 34.3219 46.791C34.5872 46.791 34.8193 46.8242 35.0514 46.8905C35.5489 47.3548 35.8473 48.018 35.8473 48.7475Z" fill="#69768C"/>
<path opacity="0.5" d="M38.0032 59.4918C38.0032 60.9509 36.8425 62.1116 35.3834 62.1116C35.2508 62.1116 35.085 62.1116 34.9523 62.0784C33.6922 61.8794 32.7637 60.7851 32.7637 59.4918C32.7637 58.0327 33.9243 56.8721 35.3834 56.8721C35.914 56.8721 36.4114 57.0379 36.8425 57.3032C37.5389 57.7674 38.0032 58.5633 38.0032 59.4918Z" fill="#69768C"/>
<path opacity="0.4" d="M38.003 59.4913C38.003 60.9504 36.8423 62.1111 35.3832 62.1111C35.2506 62.1111 35.0848 62.1111 34.9522 62.0779C34.2558 61.6137 33.7915 60.8178 33.7915 59.8893C33.7915 58.4302 34.9522 57.2695 36.4113 57.2695C36.5439 57.2695 36.6765 57.2695 36.8423 57.3027C37.5387 57.767 38.003 58.5628 38.003 59.4913Z" fill="#69768C"/>
<path opacity="0.5" d="M40.9214 53.4563C40.9214 54.418 40.1587 55.1807 39.197 55.1807C39.0975 55.1807 38.998 55.1807 38.8986 55.1475C38.0695 55.0149 37.4395 54.2853 37.4395 53.4231C37.4395 52.4614 38.2353 51.6987 39.1638 51.6987C39.5618 51.6987 39.9266 51.8314 40.225 52.0635C40.6561 52.4283 40.9214 52.9257 40.9214 53.4563Z" fill="#69768C"/>
<path opacity="0.4" d="M40.9214 53.4563C40.9214 54.4179 40.1587 55.1806 39.197 55.1806C39.0975 55.1806 38.9981 55.1806 38.8986 55.1475C38.5006 54.8159 38.2354 54.3184 38.2354 53.7879C38.2354 52.8262 38.9981 52.0635 39.9597 52.0635C40.0592 52.0635 40.1587 52.0635 40.2582 52.0966C40.6561 52.4283 40.9214 52.9257 40.9214 53.4563Z" fill="#69768C"/>
<path opacity="0.1" d="M46.9571 53.788C46.9571 64.3665 36.2791 71.662 26.4302 67.7821C26.6623 67.5831 26.9608 67.4505 27.226 67.3178C32.3661 64.7976 37.1081 66.8536 39.131 63.2721C40.0595 61.6141 39.5289 59.4586 40.3911 57.7673C40.789 56.9383 41.4854 56.2751 41.8834 55.4792C43.3093 52.561 40.3911 46.2604 40.9548 44.5028C41.187 43.8064 41.8834 43.3753 42.6129 43.2427C45.299 45.9619 46.9571 49.676 46.9571 53.788Z" fill="#69768C"/>
<path opacity="0.1" d="M37.1741 41.8496C36.3451 43.9388 32.8963 43.3087 31.3709 43.3418C28.2869 43.375 27.8558 44.9336 27.2257 45.7626C26.2308 47.0559 24.407 47.5865 22.8816 47.0559C24.208 53.4229 21.4556 52.8592 20.9582 54.882C20.3945 57.2696 24.6391 58.7287 23.8432 61.0832C23.379 62.4428 21.3893 62.7744 19.9302 62.8739C12.4689 53.0581 19.3996 38.7324 31.9014 38.7324C33.6258 38.7324 35.2507 39.0309 36.7762 39.5283C37.2404 40.2578 37.4725 41.12 37.1741 41.8496Z" fill="#5C6479"/>
<path opacity="0.3" d="M25.1696 48.4817C25.7556 48.4817 26.2307 48.0066 26.2307 47.4205C26.2307 46.8345 25.7556 46.3594 25.1696 46.3594C24.5835 46.3594 24.1084 46.8345 24.1084 47.4205C24.1084 48.0066 24.5835 48.4817 25.1696 48.4817Z" fill="#AAB2C5"/>
<defs>
<filter id="filter0_d_1160_12026" x="38.0884" y="18.0083" width="55.4409" height="132.516" filterUnits="userSpaceOnUse" color-interpolation-filters="sRGB">
<feFlood flood-opacity="0" result="BackgroundImageFix"/>
<feColorMatrix in="SourceAlpha" type="matrix" values="0 0 0 0 0 0 0 0 0 0 0 0 0 0 0 0 0 0 127 0" result="hardAlpha"/>
<feOffset dy="11"/>
<feGaussianBlur stdDeviation="11"/>
<feColorMatrix type="matrix" values="0 0 0 0 0 0 0 0 0 0 0 0 0 0 0 0 0 0 0.27 0"/>
<feBlend mode="normal" in2="BackgroundImageFix" result="effect1_dropShadow_1160_12026"/>
<feBlend mode="normal" in="SourceGraphic" in2="effect1_dropShadow_1160_12026" result="shape"/>
</filter>
<filter id="filter1_d_1160_12026" x="76.4551" y="18.0083" width="55.4087" height="132.516" filterUnits="userSpaceOnUse" color-interpolation-filters="sRGB">
<feFlood flood-opacity="0" result="BackgroundImageFix"/>
<feColorMatrix in="SourceAlpha" type="matrix" values="0 0 0 0 0 0 0 0 0 0 0 0 0 0 0 0 0 0 127 0" result="hardAlpha"/>
<feOffset dy="11"/>
<feGaussianBlur stdDeviation="11"/>
<feColorMatrix type="matrix" values="0 0 0 0 0 0 0 0 0 0 0 0 0 0 0 0 0 0 0.27 0"/>
<feBlend mode="normal" in2="BackgroundImageFix" result="effect1_dropShadow_1160_12026"/>
<feBlend mode="normal" in="SourceGraphic" in2="effect1_dropShadow_1160_12026" result="shape"/>
</filter>
<filter id="filter2_d_1160_12026" x="30.627" y="39.77" width="76.8296" height="107.57" filterUnits="userSpaceOnUse" color-interpolation-filters="sRGB">
<feFlood flood-opacity="0" result="BackgroundImageFix"/>
<feColorMatrix in="SourceAlpha" type="matrix" values="0 0 0 0 0 0 0 0 0 0 0 0 0 0 0 0 0 0 127 0" result="hardAlpha"/>
<feOffset dy="11"/>
<feGaussianBlur stdDeviation="11"/>
<feColorMatrix type="matrix" values="0 0 0 0 0 0 0 0 0 0 0 0 0 0 0 0 0 0 0.27 0"/>
<feBlend mode="normal" in2="BackgroundImageFix" result="effect1_dropShadow_1160_12026"/>
<feBlend mode="normal" in="SourceGraphic" in2="effect1_dropShadow_1160_12026" result="shape"/>
</filter>
<filter id="filter3_d_1160_12026" x="63.5562" y="39.77" width="76.8296" height="107.537" filterUnits="userSpaceOnUse" color-interpolation-filters="sRGB">
<feFlood flood-opacity="0" result="BackgroundImageFix"/>
<feColorMatrix in="SourceAlpha" type="matrix" values="0 0 0 0 0 0 0 0 0 0 0 0 0 0 0 0 0 0 127 0" result="hardAlpha"/>
<feOffset dy="11"/>
<feGaussianBlur stdDeviation="11"/>
<feColorMatrix type="matrix" values="0 0 0 0 0 0 0 0 0 0 0 0 0 0 0 0 0 0 0.27 0"/>
<feBlend mode="normal" in2="BackgroundImageFix" result="effect1_dropShadow_1160_12026"/>
<feBlend mode="normal" in="SourceGraphic" in2="effect1_dropShadow_1160_12026" result="shape"/>
</filter>
<filter id="filter4_d_1160_12026" x="55.4644" y="21.7881" width="59.8179" height="124.325" filterUnits="userSpaceOnUse" color-interpolation-filters="sRGB">
<feFlood flood-opacity="0" result="BackgroundImageFix"/>
<feColorMatrix in="SourceAlpha" type="matrix" values="0 0 0 0 0 0 0 0 0 0 0 0 0 0 0 0 0 0 127 0" result="hardAlpha"/>
<feOffset dy="11"/>
<feGaussianBlur stdDeviation="11"/>
<feColorMatrix type="matrix" values="0 0 0 0 0 0 0 0 0 0 0 0 0 0 0 0 0 0 0.27 0"/>
<feBlend mode="normal" in2="BackgroundImageFix" result="effect1_dropShadow_1160_12026"/>
<feBlend mode="normal" in="SourceGraphic" in2="effect1_dropShadow_1160_12026" result="shape"/>
</filter>
<filter id="filter5_d_1160_12026" x="53.0767" y="88.4507" width="54.4126" height="58.9229" filterUnits="userSpaceOnUse" color-interpolation-filters="sRGB">
<feFlood flood-opacity="0" result="BackgroundImageFix"/>
<feColorMatrix in="SourceAlpha" type="matrix" values="0 0 0 0 0 0 0 0 0 0 0 0 0 0 0 0 0 0 127 0" result="hardAlpha"/>
<feOffset dy="11"/>
<feGaussianBlur stdDeviation="11"/>
<feColorMatrix type="matrix" values="0 0 0 0 0 0 0 0 0 0 0 0 0 0 0 0 0 0 0.27 0"/>
<feBlend mode="normal" in2="BackgroundImageFix" result="effect1_dropShadow_1160_12026"/>
<feBlend mode="normal" in="SourceGraphic" in2="effect1_dropShadow_1160_12026" result="shape"/>
</filter>
<filter id="filter6_d_1160_12026" x="63.3901" y="88.4507" width="54.4126" height="58.9229" filterUnits="userSpaceOnUse" color-interpolation-filters="sRGB">
<feFlood flood-opacity="0" result="BackgroundImageFix"/>
<feColorMatrix in="SourceAlpha" type="matrix" values="0 0 0 0 0 0 0 0 0 0 0 0 0 0 0 0 0 0 127 0" result="hardAlpha"/>
<feOffset dy="11"/>
<feGaussianBlur stdDeviation="11"/>
<feColorMatrix type="matrix" values="0 0 0 0 0 0 0 0 0 0 0 0 0 0 0 0 0 0 0.27 0"/>
<feBlend mode="normal" in2="BackgroundImageFix" result="effect1_dropShadow_1160_12026"/>
<feBlend mode="normal" in="SourceGraphic" in2="effect1_dropShadow_1160_12026" result="shape"/>
</filter>
<filter id="filter7_d_1160_12026" x="54.9336" y="103.307" width="61.2441" height="48.4106" filterUnits="userSpaceOnUse" color-interpolation-filters="sRGB">
<feFlood flood-opacity="0" result="BackgroundImageFix"/>
<feColorMatrix in="SourceAlpha" type="matrix" values="0 0 0 0 0 0 0 0 0 0 0 0 0 0 0 0 0 0 127 0" result="hardAlpha"/>
<feOffset dy="11"/>
<feGaussianBlur stdDeviation="11"/>
<feColorMatrix type="matrix" values="0 0 0 0 0 0 0 0 0 0 0 0 0 0 0 0 0 0 0.27 0"/>
<feBlend mode="normal" in2="BackgroundImageFix" result="effect1_dropShadow_1160_12026"/>
<feBlend mode="normal" in="SourceGraphic" in2="effect1_dropShadow_1160_12026" result="shape"/>
</filter>
<filter id="filter8_d_1160_12026" x="62.2959" y="84.8032" width="46.1553" height="69.6006" filterUnits="userSpaceOnUse" color-interpolation-filters="sRGB">
<feFlood flood-opacity="0" result="BackgroundImageFix"/>
<feColorMatrix in="SourceAlpha" type="matrix" values="0 0 0 0 0 0 0 0 0 0 0 0 0 0 0 0 0 0 127 0" result="hardAlpha"/>
<feOffset dy="11"/>
<feGaussianBlur stdDeviation="11"/>
<feColorMatrix type="matrix" values="0 0 0 0 0.397708 0 0 0 0 0.47749 0 0 0 0 0.575 0 0 0 0.27 0"/>
<feBlend mode="normal" in2="BackgroundImageFix" result="effect1_dropShadow_1160_12026"/>
<feBlend mode="normal" in="SourceGraphic" in2="effect1_dropShadow_1160_12026" result="shape"/>
</filter>
<filter id="filter9_d_1160_12026" x="112.423" y="25.2334" width="45.5649" height="45.5654" filterUnits="userSpaceOnUse" color-interpolation-filters="sRGB">
<feFlood flood-opacity="0" result="BackgroundImageFix"/>
<feColorMatrix in="SourceAlpha" type="matrix" values="0 0 0 0 0 0 0 0 0 0 0 0 0 0 0 0 0 0 127 0" result="hardAlpha"/>
<feOffset dy="11"/>
<feGaussianBlur stdDeviation="6.5"/>
<feColorMatrix type="matrix" values="0 0 0 0 0 0 0 0 0 0 0 0 0 0 0 0 0 0 0.22 0"/>
<feBlend mode="normal" in2="BackgroundImageFix" result="effect1_dropShadow_1160_12026"/>
<feBlend mode="normal" in="SourceGraphic" in2="effect1_dropShadow_1160_12026" result="shape"/>
</filter>
<filter id="filter10_d_1160_12026" x="93.9189" y="9.50732" width="79.8159" height="79.7896" filterUnits="userSpaceOnUse" color-interpolation-filters="sRGB">
<feFlood flood-opacity="0" result="BackgroundImageFix"/>
<feColorMatrix in="SourceAlpha" type="matrix" values="0 0 0 0 0 0 0 0 0 0 0 0 0 0 0 0 0 0 127 0" result="hardAlpha"/>
<feOffset dy="11"/>
<feGaussianBlur stdDeviation="11"/>
<feColorMatrix type="matrix" values="0 0 0 0 0 0 0 0 0 0 0 0 0 0 0 0 0 0 0.27 0"/>
<feBlend mode="normal" in2="BackgroundImageFix" result="effect1_dropShadow_1160_12026"/>
<feBlend mode="normal" in="SourceGraphic" in2="effect1_dropShadow_1160_12026" result="shape"/>
</filter>
<filter id="filter11_d_1160_12026" x="113.578" y="25.208" width="44.418" height="44.4219" filterUnits="userSpaceOnUse" color-interpolation-filters="sRGB">
<feFlood flood-opacity="0" result="BackgroundImageFix"/>
<feColorMatrix in="SourceAlpha" type="matrix" values="0 0 0 0 0 0 0 0 0 0 0 0 0 0 0 0 0 0 127 0" result="hardAlpha"/>
<feOffset dy="11"/>
<feGaussianBlur stdDeviation="6.5"/>
<feColorMatrix type="matrix" values="0 0 0 0 0 0 0 0 0 0 0 0 0 0 0 0 0 0 0.22 0"/>
<feBlend mode="normal" in2="BackgroundImageFix" result="effect1_dropShadow_1160_12026"/>
<feBlend mode="normal" in="SourceGraphic" in2="effect1_dropShadow_1160_12026" result="shape"/>
</filter>
<linearGradient id="paint0_linear_1160_12026" x1="60.078" y1="71.5953" x2="69.746" y2="71.801" gradientUnits="userSpaceOnUse">
<stop stop-color="#5D6271"/>
<stop offset="0.9964" stop-color="#383C49"/>
</linearGradient>
<linearGradient id="paint1_linear_1160_12026" x1="73.1354" y1="69.9496" x2="65.7301" y2="69.7439" gradientUnits="userSpaceOnUse">
<stop stop-color="#191D28"/>
<stop offset="1" stop-color="#454957" stop-opacity="0"/>
</linearGradient>
<linearGradient id="paint2_linear_1160_12026" x1="81.0589" y1="32.3057" x2="98.3379" y2="33.3342" gradientUnits="userSpaceOnUse">
<stop stop-color="#555C6D"/>
<stop offset="1" stop-color="#22262F"/>
</linearGradient>
<linearGradient id="paint3_linear_1160_12026" x1="100.807" y1="59.8703" x2="91.7558" y2="59.8703" gradientUnits="userSpaceOnUse">
<stop stop-color="#11151D"/>
<stop offset="1" stop-color="#3D465A" stop-opacity="0"/>
</linearGradient>
<linearGradient id="paint4_linear_1160_12026" x1="92.3727" y1="37.243" x2="67.6885" y2="28.3979" gradientUnits="userSpaceOnUse">
<stop stop-color="white"/>
<stop offset="1" stop-color="white" stop-opacity="0"/>
</linearGradient>
<linearGradient id="paint5_linear_1160_12026" x1="98.4448" y1="71.5953" x2="108.085" y2="71.7998" gradientUnits="userSpaceOnUse">
<stop stop-color="#5D6271"/>
<stop offset="0.9964" stop-color="#383C49"/>
</linearGradient>
<linearGradient id="paint6_linear_1160_12026" x1="111.503" y1="69.9496" x2="104.098" y2="69.7439" gradientUnits="userSpaceOnUse">
<stop stop-color="#191D28"/>
<stop offset="1" stop-color="#454957" stop-opacity="0"/>
</linearGradient>
<linearGradient id="paint7_linear_1160_12026" x1="78.3854" y1="83.1143" x2="75.2998" y2="83.1143" gradientUnits="userSpaceOnUse">
<stop stop-color="#373D4B" stop-opacity="0.27"/>
<stop offset="1" stop-color="#546181" stop-opacity="0"/>
</linearGradient>
<linearGradient id="paint8_linear_1160_12026" x1="92.5788" y1="85.7884" x2="97.5157" y2="85.7883" gradientUnits="userSpaceOnUse">
<stop stop-color="#2E3544" stop-opacity="0.38"/>
<stop offset="1" stop-color="#82899B" stop-opacity="0"/>
</linearGradient>
<linearGradient id="paint9_linear_1160_12026" x1="95.4566" y1="69.9453" x2="89.2909" y2="69.7969" gradientUnits="userSpaceOnUse">
<stop stop-color="#414857"/>
<stop offset="1" stop-color="#606778" stop-opacity="0"/>
</linearGradient>
<linearGradient id="paint10_linear_1160_12026" x1="80.2796" y1="99.1055" x2="80.2796" y2="114.534" gradientUnits="userSpaceOnUse">
<stop stop-color="#5C6479"/>
<stop offset="0.9964" stop-color="#5C6479"/>
</linearGradient>
<linearGradient id="paint11_linear_1160_12026" x1="87.451" y1="106.77" x2="81.4624" y2="106.77" gradientUnits="userSpaceOnUse">
<stop stop-color="#474E5F"/>
<stop offset="1" stop-color="#5C657A"/>
</linearGradient>
<linearGradient id="paint12_linear_1160_12026" x1="90.5931" y1="99.1055" x2="90.5931" y2="114.534" gradientUnits="userSpaceOnUse">
<stop stop-color="#5C6479"/>
<stop offset="0.9964" stop-color="#5C6479"/>
</linearGradient>
<linearGradient id="paint13_linear_1160_12026" x1="97.7212" y1="106.77" x2="91.9615" y2="106.77" gradientUnits="userSpaceOnUse">
<stop stop-color="#474E5F"/>
<stop offset="1" stop-color="#5C657A"/>
</linearGradient>
<linearGradient id="paint14_linear_1160_12026" x1="86.4075" y1="109.855" x2="88.8854" y2="109.787" gradientUnits="userSpaceOnUse">
<stop stop-color="#AAB2C5"/>
<stop offset="1" stop-color="#AAB2C5" stop-opacity="0"/>
</linearGradient>
<linearGradient id="paint15_linear_1160_12026" x1="134.145" y1="23.7188" x2="134.145" y2="52.0452" gradientUnits="userSpaceOnUse">
<stop stop-color="#5C6479"/>
<stop offset="0.9964" stop-color="#5C6479"/>
</linearGradient>
<linearGradient id="paint16_linear_1160_12026" x1="31.9241" y1="39.7782" x2="31.9241" y2="56.676" gradientUnits="userSpaceOnUse">
<stop stop-color="#B0BACC"/>
<stop offset="1" stop-color="#969EAE"/>
</linearGradient>
</defs>
</svg>
 