<svg width="52" height="52" viewBox="0 0 52 52" fill="none" xmlns="http://www.w3.org/2000/svg">
<path d="M37.8555 14.5171C37.5095 14.8027 37.4605 15.3149 37.7461 15.6609C37.9068 15.8556 38.1391 15.9561 38.3732 15.9561C38.5553 15.9561 38.7386 15.8952 38.8899 15.7702L41.272 13.8038C42.1959 14.8719 43.5595 15.5497 45.0791 15.5497C47.8553 15.5497 50.114 13.291 50.114 10.5148C50.114 7.73863 47.8553 5.47998 45.0791 5.47998C42.3029 5.47998 40.0443 7.73863 40.0443 10.5148C40.0443 11.1832 40.1763 11.821 40.4139 12.405L37.8555 14.5171ZM45.0793 7.10508C46.9596 7.10508 48.4892 8.63471 48.4892 10.5149C48.4892 12.3952 46.9595 13.9248 45.0793 13.9248C43.1992 13.9248 41.6695 12.3952 41.6695 10.5149C41.6695 8.63471 43.1991 7.10508 45.0793 7.10508ZM11.6482 9.42274C11.3309 9.10545 11.3309 8.59104 11.6482 8.27376C14.9728 4.94921 19.1734 2.78512 23.7959 2.01527C27.6476 1.37391 31.5365 1.73456 35.1581 3.05365L34.4809 2.09327C34.2223 1.72653 34.31 1.21963 34.6767 0.961056C35.0433 0.702579 35.5503 0.790126 35.8089 1.15687L38.1714 4.50731C38.3273 4.72831 38.3629 5.01249 38.2664 5.26517C38.1699 5.51786 37.954 5.70606 37.6906 5.76699L34.0769 6.60336C34.0153 6.61768 33.9536 6.62449 33.8929 6.62449C33.5233 6.62449 33.189 6.37058 33.1021 5.995C33.0009 5.55788 33.2733 5.12136 33.7104 5.0202L34.9848 4.72527C27.3765 1.79194 18.6251 3.59467 12.7971 9.42274C12.6384 9.58138 12.4306 9.6607 12.2226 9.6607C12.0146 9.6607 11.8069 9.58138 11.6482 9.42274ZM22.6908 45.1967C22.5935 45.5597 22.2653 45.7992 21.9064 45.7992C21.8368 45.7992 21.7661 45.7901 21.6957 45.7713C17.1542 44.5545 13.1797 41.9987 10.2018 38.3803C7.72059 35.3656 6.08828 31.8172 5.41989 28.0212L4.92681 29.0878C4.7895 29.3846 4.49568 29.5595 4.18875 29.5595C4.0746 29.5595 3.95871 29.5354 3.84832 29.4844C3.44095 29.2961 3.26342 28.8133 3.45182 28.4059L5.17218 24.6847C5.28563 24.4393 5.51394 24.2662 5.78105 24.2234C6.04796 24.1805 6.31903 24.2735 6.50357 24.4713L9.03471 27.1826C9.34092 27.5105 9.32325 28.0247 8.9952 28.3309C8.66715 28.6372 8.15294 28.6195 7.84683 28.2914L6.9541 27.3352C8.21814 35.3908 14.1549 42.0685 22.1161 44.2017C22.5497 44.3178 22.807 44.7633 22.6908 45.1967ZM49.1459 18.3211C50.3627 22.8625 50.1366 27.5824 48.492 31.9706C47.1218 35.6269 44.8649 38.8146 41.9116 41.2914L43.082 41.1852C43.5285 41.1449 43.9241 41.4739 43.9646 41.9209C44.0051 42.3678 43.6757 42.763 43.2289 42.8035L39.1461 43.1742C39.1215 43.1764 39.097 43.1775 39.0725 43.1775C38.8293 43.1775 38.5972 43.0683 38.4421 42.8775C38.2715 42.6677 38.2166 42.3867 38.2955 42.1279L39.3779 38.5801C39.5089 38.1509 39.9632 37.9093 40.3921 38.0401C40.8213 38.1711 41.063 38.6252 40.9321 39.0543L40.5504 40.3056C46.8948 35.1832 49.7094 26.7029 47.5762 18.7416C47.46 18.3081 47.7172 17.8627 48.1507 17.7465C48.5842 17.6304 49.0297 17.8876 49.1459 18.3211ZM31.1849 41.167L30.6351 37.8956C30.5608 37.4531 30.1417 37.1543 29.6992 37.229C29.2567 37.3034 28.9582 37.7224 29.0327 38.1649L29.544 41.2081C27.2183 41.6519 25.4544 43.6997 25.4544 46.1527C25.4544 48.9289 27.7131 51.1876 30.4893 51.1876C33.2655 51.1876 35.5241 48.9289 35.5241 46.1527C35.5241 43.6125 33.6329 41.5069 31.1849 41.167ZM30.4893 49.5625C28.6091 49.5625 27.0794 48.0327 27.0794 46.1526C27.0794 44.2731 28.6079 42.744 30.4872 42.7429H30.4883C30.4889 42.7429 30.4895 42.7428 30.4901 42.7428C32.3699 42.7433 33.899 44.2727 33.899 46.1525C33.8991 48.0328 32.3695 49.5625 30.4893 49.5625ZM10.8885 18.7928L13.9992 19.9533C14.0927 19.9883 14.1887 20.0048 14.2831 20.0048C14.6125 20.0048 14.9225 19.8029 15.0444 19.4761C15.2012 19.0556 14.9876 18.5877 14.5671 18.4308L11.6756 17.352C11.8564 16.8337 11.9559 16.2776 11.9559 15.6984C11.9559 12.9222 9.6973 10.6635 6.92109 10.6635C4.14488 10.6635 1.88623 12.9222 1.88623 15.6984C1.88623 18.4746 4.14488 20.7331 6.92109 20.7331C8.53126 20.7332 9.96624 19.9726 10.8885 18.7928ZM3.51123 15.6985C3.51123 13.8183 5.04086 12.2886 6.92109 12.2886C8.80132 12.2886 10.3309 13.8183 10.3309 15.6985C10.3309 17.5786 8.80121 19.1082 6.92109 19.1082C5.04096 19.1082 3.51123 17.5786 3.51123 15.6985ZM39.1576 26.4188C39.4713 26.2981 39.6782 25.9967 39.6782 25.6605V22.5834C39.6782 22.2472 39.4713 21.9459 39.1576 21.8251L37.6634 21.25C37.4389 20.4534 37.1215 19.6879 36.7161 18.9648L37.3664 17.5006C37.5029 17.1935 37.4361 16.834 37.1984 16.5963L35.0224 14.4203C34.7849 14.1826 34.4252 14.1158 34.1181 14.2522L32.6533 14.9028C31.9302 14.4975 31.165 14.1802 30.3688 13.9557L29.7935 12.461C29.6728 12.1473 29.3714 11.9404 29.0352 11.9404H25.958C25.6218 11.9404 25.3205 12.1474 25.1997 12.461L24.6243 13.9557C23.8283 14.1801 23.0629 14.4975 22.3399 14.9028L20.8751 14.2522C20.5679 14.1159 20.2084 14.1826 19.9708 14.4203L17.7948 16.5963C17.5571 16.834 17.4903 17.1934 17.6268 17.5006L18.2773 18.9652C17.8721 19.6881 17.5547 20.4535 17.3301 21.2499L15.8356 21.8251C15.5219 21.9458 15.315 22.2472 15.315 22.5834V25.6606C15.315 25.9968 15.522 26.2982 15.8356 26.4189L17.3299 26.9941C17.5546 27.7908 17.872 28.5564 18.2773 29.2792L17.627 30.7434C17.4905 31.0507 17.5573 31.4101 17.795 31.6478L19.971 33.8236C20.2086 34.0614 20.5681 34.1281 20.8753 33.9917L22.3401 33.3411C23.063 33.7464 23.8283 34.0637 24.6244 34.2883L25.1998 35.783C25.3205 36.0967 25.6219 36.3036 25.9581 36.3036H29.0353C29.3715 36.3036 29.6728 36.0966 29.7936 35.783L30.3687 34.2888C31.1653 34.0642 31.9311 33.7468 32.654 33.3414L34.1182 33.9917C34.4253 34.1282 34.7849 34.0613 35.0225 33.8237L37.1985 31.6478C37.4362 31.4101 37.503 31.0507 37.3666 30.7434L36.716 29.2786C37.1213 28.5556 37.4386 27.7903 37.6631 26.9943L39.1576 26.4188ZM36.6898 25.6275C36.4398 25.7237 36.2533 25.9371 36.1912 26.1977C35.9723 27.1174 35.6092 27.9932 35.1119 28.801C34.9714 29.0292 34.9524 29.3118 35.0611 29.5567L35.6546 30.8932L34.2676 32.2802L32.9319 31.687C32.687 31.5781 32.404 31.5971 32.176 31.7377C31.3686 32.235 30.4925 32.5982 29.5721 32.8172C29.3115 32.8791 29.0981 33.0657 29.0019 33.3157L28.4772 34.6787H26.5157L25.991 33.3153C25.8948 33.0653 25.6815 32.8788 25.4208 32.8167C24.5009 32.5979 23.6251 32.2348 22.8175 31.7374C22.5894 31.597 22.3067 31.5781 22.0617 31.6867L20.7253 32.2802L19.3382 30.8933L19.9316 29.5575C20.0403 29.3125 20.0213 29.0298 19.8808 28.8016C19.3835 27.9944 19.0203 27.1182 18.8013 26.1976C18.7392 25.937 18.5527 25.7237 18.3027 25.6275L16.9397 25.1029V23.1413L18.3029 22.6165C18.5529 22.5203 18.7394 22.3071 18.8015 22.0463C19.0204 21.1262 19.3836 20.2502 19.8808 19.4429C20.0213 19.2147 20.0403 18.9319 19.9316 18.6871L19.3381 17.3508L20.7252 15.9638L22.0616 16.5573C22.3066 16.666 22.5892 16.6471 22.8173 16.5065C23.6251 16.0093 24.5008 15.6461 25.4206 15.4272C25.6812 15.3652 25.8946 15.1787 25.9908 14.9286L26.5155 13.5653H28.477L29.0018 14.9286C29.098 15.1787 29.3113 15.3652 29.572 15.4272C30.4917 15.6461 31.3676 16.0092 32.1752 16.5065C32.4033 16.647 32.6862 16.6659 32.9309 16.5573L34.2674 15.9638L35.6544 17.3508L35.0612 18.6866C34.9524 18.9314 34.9714 19.2143 35.112 19.4424C35.6092 20.2499 35.9725 21.126 36.1914 22.0463C36.2534 22.307 36.4399 22.5203 36.69 22.6165L38.0529 23.1412V25.1027L36.6898 25.6275ZM27.4965 17.9428C24.0893 17.9428 21.3174 20.7148 21.3174 24.122C21.3174 27.5292 24.0893 30.3011 27.4965 30.3011C30.9038 30.3011 33.6758 27.5292 33.6758 24.122C33.6758 20.7148 30.9038 17.9428 27.4965 17.9428ZM27.4965 28.6762C24.9853 28.6762 22.9424 26.6333 22.9424 24.1221C22.9424 21.6108 24.9853 19.5679 27.4965 19.5679C30.0078 19.5679 32.0508 21.6109 32.0508 24.1221C32.0508 26.6332 30.0078 28.6762 27.4965 28.6762ZM29.9566 25.2371C30.0219 25.7746 29.8755 26.2677 29.5335 26.6632C29.2417 27.0005 28.8083 27.2501 28.309 27.3801V27.4013C28.309 27.85 27.9452 28.2138 27.4965 28.2138C27.0478 28.2138 26.684 27.85 26.684 27.4013V27.3654C25.8658 27.1242 25.2477 26.5231 25.0457 25.7125C24.9372 25.2771 25.2021 24.8362 25.6375 24.7277C26.0728 24.6187 26.5138 24.8841 26.6224 25.3195C26.7247 25.7294 27.1842 25.865 27.5448 25.8561C27.9056 25.8475 28.2001 25.7208 28.3044 25.6001C28.3318 25.5684 28.3552 25.5319 28.3433 25.4329C28.3297 25.3206 28.2977 25.0574 27.3696 24.9051C25.5461 24.6055 25.2246 23.5468 25.1952 22.9424C25.1495 22.0009 25.7392 21.204 26.6839 20.8944V20.8425C26.6839 20.3938 27.0477 20.03 27.4964 20.03C27.9451 20.03 28.3089 20.3938 28.3089 20.8425V20.8836C28.9564 21.095 29.4923 21.5688 29.7712 22.233C29.9449 22.6468 29.7504 23.123 29.3366 23.2967C28.9228 23.4704 28.4467 23.2758 28.273 22.8621C28.0691 22.3765 27.555 22.3515 27.2833 22.4129C27.1703 22.4385 26.8029 22.5467 26.8183 22.8635C26.8282 23.0669 27.1022 23.2143 27.6328 23.3015C29.047 23.5336 29.8288 24.1848 29.9566 25.2371Z" fill="#FFE7AA"/>
</svg>
