<svg width="52" height="52" viewBox="0 0 52 52" fill="none" xmlns="http://www.w3.org/2000/svg">
<g clip-path="url(#clip0_732_268)">
<mask id="path-1-inside-1_732_268" fill="white">
<path d="M2.6 43.3333V45.0666C2.6 45.5263 2.78262 45.9672 3.10768 46.2923C3.43274 46.6173 3.87362 46.8 4.33333 46.8H9.53333C9.99304 46.8 10.4339 46.6173 10.759 46.2923C11.084 45.9672 11.2667 45.5263 11.2667 45.0666V43.3333H28.7595C28.8745 43.6534 29.0512 43.9478 29.2795 44.2C28.9265 44.5809 28.699 45.061 28.6275 45.5754C28.5561 46.0898 28.6442 46.6137 28.8799 47.0764C28.5244 46.8965 28.1318 46.8018 27.7333 46.8H20.8C20.1104 46.8 19.4491 47.0739 18.9615 47.5615C18.4739 48.0491 18.2 48.7104 18.2 49.4C18.2 50.0895 18.4739 50.7508 18.9615 51.2384C19.4491 51.726 20.1104 52 20.8 52H27.7333C28.375 51.9977 28.9929 51.7567 29.4667 51.324C29.9404 51.7567 30.5583 51.9977 31.2 52H38.1333C38.775 51.9977 39.3929 51.7567 39.8667 51.324C40.3404 51.7567 40.9583 51.9977 41.6 52H48.5333C49.0362 52.0022 49.5288 51.8579 49.951 51.5847C50.3732 51.3116 50.7067 50.9214 50.9108 50.4618C51.1149 50.0022 51.1806 49.4931 51.1001 48.9967C51.0196 48.5003 50.7962 48.0381 50.4573 47.6666C50.8921 47.1941 51.1334 46.5754 51.1334 45.9333C51.1334 45.2912 50.8921 44.6725 50.4573 44.2C50.7962 43.8284 51.0196 43.3663 51.1001 42.8699C51.1806 42.3735 51.1149 41.8644 50.9108 41.4048C50.7067 40.9452 50.3732 40.555 49.951 40.2818C49.5288 40.0087 49.0362 39.8644 48.5333 39.8666H45.0667V7.79995C45.0667 7.11039 44.7927 6.44907 44.3051 5.96147C43.8176 5.47388 43.1562 5.19995 42.4667 5.19995H2.6C1.91044 5.19995 1.24912 5.47388 0.761522 5.96147C0.273928 6.44907 0 7.11039 0 7.79995L0 40.7333C0 41.4229 0.273928 42.0842 0.761522 42.5718C1.24912 43.0594 1.91044 43.3333 2.6 43.3333ZM9.53333 45.0666H4.33333V43.3333H9.53333V45.0666ZM6.06667 38.1333V37.2666H6.93333C7.39304 37.2666 7.83392 37.084 8.15899 36.7589C8.48405 36.4339 8.66667 35.993 8.66667 35.5333V30.3333C8.66667 29.8736 8.48405 29.4327 8.15899 29.1076C7.83392 28.7826 7.39304 28.6 6.93333 28.6H6.06667V19.9333H6.93333C7.39304 19.9333 7.83392 19.7507 8.15899 19.4256C8.48405 19.1005 8.66667 18.6597 8.66667 18.2V13C8.66667 12.5402 8.48405 12.0994 8.15899 11.7743C7.83392 11.4492 7.39304 11.2666 6.93333 11.2666H6.06667V10.4H39V33.0928C38.7224 32.9901 38.4292 32.9362 38.1333 32.9333H31.2C30.6971 32.9311 30.2045 33.0753 29.7823 33.3485C29.3601 33.6217 29.0266 34.0119 28.8225 34.4715C28.6185 34.9311 28.5527 35.4402 28.6332 35.9366C28.7137 36.4329 28.9371 36.8951 29.276 37.2666C29.0474 37.5186 28.8707 37.8131 28.756 38.1333H6.06667ZM6.93333 13V18.2H5.2V13H6.93333ZM6.93333 30.3333V35.5333H5.2V30.3333H6.93333ZM49.4 45.9333C49.4 46.1631 49.3087 46.3836 49.1462 46.5461C48.9836 46.7086 48.7632 46.8 48.5333 46.8H41.6C41.3701 46.8 41.1497 46.7086 40.9872 46.5461C40.8246 46.3836 40.7333 46.1631 40.7333 45.9333C40.7333 45.7034 40.8246 45.483 40.9872 45.3205C41.1497 45.1579 41.3701 45.0666 41.6 45.0666H48.5333C48.7632 45.0666 48.9836 45.1579 49.1462 45.3205C49.3087 45.483 49.4 45.7034 49.4 45.9333ZM30.3333 45.9333C30.3333 45.7034 30.4246 45.483 30.5872 45.3205C30.7497 45.1579 30.9701 45.0666 31.2 45.0666H38.1333C38.3632 45.0666 38.5836 45.1579 38.7462 45.3205C38.9087 45.483 39 45.7034 39 45.9333C39 46.1631 38.9087 46.3836 38.7462 46.5461C38.5836 46.7086 38.3632 46.8 38.1333 46.8H31.2C30.9701 46.8 30.7497 46.7086 30.5872 46.5461C30.4246 46.3836 30.3333 46.1631 30.3333 45.9333ZM30.3333 42.4666C30.3333 42.2368 30.4246 42.0163 30.5872 41.8538C30.7497 41.6913 30.9701 41.6 31.2 41.6H38.1333C38.3632 41.6 38.5836 41.6913 38.7462 41.8538C38.9087 42.0163 39 42.2368 39 42.4666C39 42.6965 38.9087 42.9169 38.7462 43.0794C38.5836 43.242 38.3632 43.3333 38.1333 43.3333H31.2C30.9701 43.3333 30.7497 43.242 30.5872 43.0794C30.4246 42.9169 30.3333 42.6965 30.3333 42.4666ZM30.3333 39C30.3333 38.7701 30.4246 38.5497 30.5872 38.3871C30.7497 38.2246 30.9701 38.1333 31.2 38.1333H38.1333C38.3632 38.1333 38.5836 38.2246 38.7462 38.3871C38.9087 38.5497 39 38.7701 39 39C39 39.2298 38.9087 39.4502 38.7462 39.6128C38.5836 39.7753 38.3632 39.8666 38.1333 39.8666H31.2C30.9701 39.8666 30.7497 39.7753 30.5872 39.6128C30.4246 39.4502 30.3333 39.2298 30.3333 39ZM38.1333 36.4H31.2C30.9701 36.4 30.7497 36.3086 30.5872 36.1461C30.4246 35.9836 30.3333 35.7631 30.3333 35.5333C30.3333 35.3034 30.4246 35.083 30.5872 34.9205C30.7497 34.7579 30.9701 34.6666 31.2 34.6666H38.1333C38.3632 34.6666 38.5836 34.7579 38.7462 34.9205C38.9087 35.083 39 35.3034 39 35.5333C39 35.7631 38.9087 35.9836 38.7462 36.1461C38.5836 36.3086 38.3632 36.4 38.1333 36.4ZM27.7333 50.2666H20.8C20.5701 50.2666 20.3497 50.1753 20.1872 50.0128C20.0246 49.8503 19.9333 49.6298 19.9333 49.4C19.9333 49.1701 20.0246 48.9497 20.1872 48.7871C20.3497 48.6246 20.5701 48.5333 20.8 48.5333H27.7333C27.9632 48.5333 28.1836 48.6246 28.3462 48.7871C28.5087 48.9497 28.6 49.1701 28.6 49.4C28.6 49.6298 28.5087 49.8503 28.3462 50.0128C28.1836 50.1753 27.9632 50.2666 27.7333 50.2666ZM38.1333 50.2666H31.2C30.9701 50.2666 30.7497 50.1753 30.5872 50.0128C30.4246 49.8503 30.3333 49.6298 30.3333 49.4C30.3333 49.1701 30.4246 48.9497 30.5872 48.7871C30.7497 48.6246 30.9701 48.5333 31.2 48.5333H38.1333C38.3632 48.5333 38.5836 48.6246 38.7462 48.7871C38.9087 48.9497 39 49.1701 39 49.4C39 49.6298 38.9087 49.8503 38.7462 50.0128C38.5836 50.1753 38.3632 50.2666 38.1333 50.2666ZM48.5333 50.2666H41.6C41.3701 50.2666 41.1497 50.1753 40.9872 50.0128C40.8246 49.8503 40.7333 49.6298 40.7333 49.4C40.7333 49.1701 40.8246 48.9497 40.9872 48.7871C41.1497 48.6246 41.3701 48.5333 41.6 48.5333H48.5333C48.7632 48.5333 48.9836 48.6246 49.1462 48.7871C49.3087 48.9497 49.4 49.1701 49.4 49.4C49.4 49.6298 49.3087 49.8503 49.1462 50.0128C48.9836 50.1753 48.7632 50.2666 48.5333 50.2666ZM49.4 42.4666C49.4 42.6965 49.3087 42.9169 49.1462 43.0794C48.9836 43.242 48.7632 43.3333 48.5333 43.3333H41.6C41.3701 43.3333 41.1497 43.242 40.9872 43.0794C40.8246 42.9169 40.7333 42.6965 40.7333 42.4666C40.7333 42.2368 40.8246 42.0163 40.9872 41.8538C41.1497 41.6913 41.3701 41.6 41.6 41.6H48.5333C48.7632 41.6 48.9836 41.6913 49.1462 41.8538C49.3087 42.0163 49.4 42.2368 49.4 42.4666ZM1.73333 7.79995C1.73333 7.5701 1.82464 7.34966 1.98717 7.18713C2.14971 7.02459 2.37015 6.93328 2.6 6.93328H42.4667C42.6965 6.93328 42.917 7.02459 43.0795 7.18713C43.242 7.34966 43.3333 7.5701 43.3333 7.79995V39.8666H41.6C41.2027 39.869 40.8114 39.9637 40.4569 40.1431C40.6926 39.6804 40.7807 39.1564 40.7093 38.6421C40.6378 38.1277 40.4103 37.6476 40.0573 37.2666C40.4901 36.7928 40.7311 36.175 40.7333 35.5333V10.4C40.7333 9.94024 40.5507 9.49936 40.2257 9.1743C39.9006 8.84924 39.4597 8.66662 39 8.66662H6.06667C5.60696 8.66662 5.16608 8.84924 4.84101 9.1743C4.51595 9.49936 4.33333 9.94024 4.33333 10.4V11.5076C4.0707 11.6585 3.85237 11.8758 3.70025 12.1378C3.54814 12.3997 3.46758 12.697 3.46667 13V18.2C3.46758 18.5029 3.54814 18.8002 3.70025 19.0621C3.85237 19.3241 4.0707 19.5414 4.33333 19.6924V28.8409C4.0707 28.9918 3.85237 29.2091 3.70025 29.4711C3.54814 29.733 3.46758 30.0304 3.46667 30.3333V35.5333C3.46758 35.8362 3.54814 36.1335 3.70025 36.3955C3.85237 36.6574 4.0707 36.8748 4.33333 37.0257V38.1333C4.33333 38.593 4.51595 39.0339 4.84101 39.3589C5.16608 39.684 5.60696 39.8666 6.06667 39.8666H28.7595C28.8745 40.1867 29.0512 40.4811 29.2795 40.7333C29.0509 40.9852 28.8742 41.2797 28.7595 41.6H2.6C2.37015 41.6 2.14971 41.5086 1.98717 41.3461C1.82464 41.1836 1.73333 40.9631 1.73333 40.7333V7.79995Z"/>
</mask>
<path d="M2.6 43.3333V45.0666C2.6 45.5263 2.78262 45.9672 3.10768 46.2923C3.43274 46.6173 3.87362 46.8 4.33333 46.8H9.53333C9.99304 46.8 10.4339 46.6173 10.759 46.2923C11.084 45.9672 11.2667 45.5263 11.2667 45.0666V43.3333H28.7595C28.8745 43.6534 29.0512 43.9478 29.2795 44.2C28.9265 44.5809 28.699 45.061 28.6275 45.5754C28.5561 46.0898 28.6442 46.6137 28.8799 47.0764C28.5244 46.8965 28.1318 46.8018 27.7333 46.8H20.8C20.1104 46.8 19.4491 47.0739 18.9615 47.5615C18.4739 48.0491 18.2 48.7104 18.2 49.4C18.2 50.0895 18.4739 50.7508 18.9615 51.2384C19.4491 51.726 20.1104 52 20.8 52H27.7333C28.375 51.9977 28.9929 51.7567 29.4667 51.324C29.9404 51.7567 30.5583 51.9977 31.2 52H38.1333C38.775 51.9977 39.3929 51.7567 39.8667 51.324C40.3404 51.7567 40.9583 51.9977 41.6 52H48.5333C49.0362 52.0022 49.5288 51.8579 49.951 51.5847C50.3732 51.3116 50.7067 50.9214 50.9108 50.4618C51.1149 50.0022 51.1806 49.4931 51.1001 48.9967C51.0196 48.5003 50.7962 48.0381 50.4573 47.6666C50.8921 47.1941 51.1334 46.5754 51.1334 45.9333C51.1334 45.2912 50.8921 44.6725 50.4573 44.2C50.7962 43.8284 51.0196 43.3663 51.1001 42.8699C51.1806 42.3735 51.1149 41.8644 50.9108 41.4048C50.7067 40.9452 50.3732 40.555 49.951 40.2818C49.5288 40.0087 49.0362 39.8644 48.5333 39.8666H45.0667V7.79995C45.0667 7.11039 44.7927 6.44907 44.3051 5.96147C43.8176 5.47388 43.1562 5.19995 42.4667 5.19995H2.6C1.91044 5.19995 1.24912 5.47388 0.761522 5.96147C0.273928 6.44907 0 7.11039 0 7.79995L0 40.7333C0 41.4229 0.273928 42.0842 0.761522 42.5718C1.24912 43.0594 1.91044 43.3333 2.6 43.3333ZM9.53333 45.0666H4.33333V43.3333H9.53333V45.0666ZM6.06667 38.1333V37.2666H6.93333C7.39304 37.2666 7.83392 37.084 8.15899 36.7589C8.48405 36.4339 8.66667 35.993 8.66667 35.5333V30.3333C8.66667 29.8736 8.48405 29.4327 8.15899 29.1076C7.83392 28.7826 7.39304 28.6 6.93333 28.6H6.06667V19.9333H6.93333C7.39304 19.9333 7.83392 19.7507 8.15899 19.4256C8.48405 19.1005 8.66667 18.6597 8.66667 18.2V13C8.66667 12.5402 8.48405 12.0994 8.15899 11.7743C7.83392 11.4492 7.39304 11.2666 6.93333 11.2666H6.06667V10.4H39V33.0928C38.7224 32.9901 38.4292 32.9362 38.1333 32.9333H31.2C30.6971 32.9311 30.2045 33.0753 29.7823 33.3485C29.3601 33.6217 29.0266 34.0119 28.8225 34.4715C28.6185 34.9311 28.5527 35.4402 28.6332 35.9366C28.7137 36.4329 28.9371 36.8951 29.276 37.2666C29.0474 37.5186 28.8707 37.8131 28.756 38.1333H6.06667ZM6.93333 13V18.2H5.2V13H6.93333ZM6.93333 30.3333V35.5333H5.2V30.3333H6.93333ZM49.4 45.9333C49.4 46.1631 49.3087 46.3836 49.1462 46.5461C48.9836 46.7086 48.7632 46.8 48.5333 46.8H41.6C41.3701 46.8 41.1497 46.7086 40.9872 46.5461C40.8246 46.3836 40.7333 46.1631 40.7333 45.9333C40.7333 45.7034 40.8246 45.483 40.9872 45.3205C41.1497 45.1579 41.3701 45.0666 41.6 45.0666H48.5333C48.7632 45.0666 48.9836 45.1579 49.1462 45.3205C49.3087 45.483 49.4 45.7034 49.4 45.9333ZM30.3333 45.9333C30.3333 45.7034 30.4246 45.483 30.5872 45.3205C30.7497 45.1579 30.9701 45.0666 31.2 45.0666H38.1333C38.3632 45.0666 38.5836 45.1579 38.7462 45.3205C38.9087 45.483 39 45.7034 39 45.9333C39 46.1631 38.9087 46.3836 38.7462 46.5461C38.5836 46.7086 38.3632 46.8 38.1333 46.8H31.2C30.9701 46.8 30.7497 46.7086 30.5872 46.5461C30.4246 46.3836 30.3333 46.1631 30.3333 45.9333ZM30.3333 42.4666C30.3333 42.2368 30.4246 42.0163 30.5872 41.8538C30.7497 41.6913 30.9701 41.6 31.2 41.6H38.1333C38.3632 41.6 38.5836 41.6913 38.7462 41.8538C38.9087 42.0163 39 42.2368 39 42.4666C39 42.6965 38.9087 42.9169 38.7462 43.0794C38.5836 43.242 38.3632 43.3333 38.1333 43.3333H31.2C30.9701 43.3333 30.7497 43.242 30.5872 43.0794C30.4246 42.9169 30.3333 42.6965 30.3333 42.4666ZM30.3333 39C30.3333 38.7701 30.4246 38.5497 30.5872 38.3871C30.7497 38.2246 30.9701 38.1333 31.2 38.1333H38.1333C38.3632 38.1333 38.5836 38.2246 38.7462 38.3871C38.9087 38.5497 39 38.7701 39 39C39 39.2298 38.9087 39.4502 38.7462 39.6128C38.5836 39.7753 38.3632 39.8666 38.1333 39.8666H31.2C30.9701 39.8666 30.7497 39.7753 30.5872 39.6128C30.4246 39.4502 30.3333 39.2298 30.3333 39ZM38.1333 36.4H31.2C30.9701 36.4 30.7497 36.3086 30.5872 36.1461C30.4246 35.9836 30.3333 35.7631 30.3333 35.5333C30.3333 35.3034 30.4246 35.083 30.5872 34.9205C30.7497 34.7579 30.9701 34.6666 31.2 34.6666H38.1333C38.3632 34.6666 38.5836 34.7579 38.7462 34.9205C38.9087 35.083 39 35.3034 39 35.5333C39 35.7631 38.9087 35.9836 38.7462 36.1461C38.5836 36.3086 38.3632 36.4 38.1333 36.4ZM27.7333 50.2666H20.8C20.5701 50.2666 20.3497 50.1753 20.1872 50.0128C20.0246 49.8503 19.9333 49.6298 19.9333 49.4C19.9333 49.1701 20.0246 48.9497 20.1872 48.7871C20.3497 48.6246 20.5701 48.5333 20.8 48.5333H27.7333C27.9632 48.5333 28.1836 48.6246 28.3462 48.7871C28.5087 48.9497 28.6 49.1701 28.6 49.4C28.6 49.6298 28.5087 49.8503 28.3462 50.0128C28.1836 50.1753 27.9632 50.2666 27.7333 50.2666ZM38.1333 50.2666H31.2C30.9701 50.2666 30.7497 50.1753 30.5872 50.0128C30.4246 49.8503 30.3333 49.6298 30.3333 49.4C30.3333 49.1701 30.4246 48.9497 30.5872 48.7871C30.7497 48.6246 30.9701 48.5333 31.2 48.5333H38.1333C38.3632 48.5333 38.5836 48.6246 38.7462 48.7871C38.9087 48.9497 39 49.1701 39 49.4C39 49.6298 38.9087 49.8503 38.7462 50.0128C38.5836 50.1753 38.3632 50.2666 38.1333 50.2666ZM48.5333 50.2666H41.6C41.3701 50.2666 41.1497 50.1753 40.9872 50.0128C40.8246 49.8503 40.7333 49.6298 40.7333 49.4C40.7333 49.1701 40.8246 48.9497 40.9872 48.7871C41.1497 48.6246 41.3701 48.5333 41.6 48.5333H48.5333C48.7632 48.5333 48.9836 48.6246 49.1462 48.7871C49.3087 48.9497 49.4 49.1701 49.4 49.4C49.4 49.6298 49.3087 49.8503 49.1462 50.0128C48.9836 50.1753 48.7632 50.2666 48.5333 50.2666ZM49.4 42.4666C49.4 42.6965 49.3087 42.9169 49.1462 43.0794C48.9836 43.242 48.7632 43.3333 48.5333 43.3333H41.6C41.3701 43.3333 41.1497 43.242 40.9872 43.0794C40.8246 42.9169 40.7333 42.6965 40.7333 42.4666C40.7333 42.2368 40.8246 42.0163 40.9872 41.8538C41.1497 41.6913 41.3701 41.6 41.6 41.6H48.5333C48.7632 41.6 48.9836 41.6913 49.1462 41.8538C49.3087 42.0163 49.4 42.2368 49.4 42.4666ZM1.73333 7.79995C1.73333 7.5701 1.82464 7.34966 1.98717 7.18713C2.14971 7.02459 2.37015 6.93328 2.6 6.93328H42.4667C42.6965 6.93328 42.917 7.02459 43.0795 7.18713C43.242 7.34966 43.3333 7.5701 43.3333 7.79995V39.8666H41.6C41.2027 39.869 40.8114 39.9637 40.4569 40.1431C40.6926 39.6804 40.7807 39.1564 40.7093 38.6421C40.6378 38.1277 40.4103 37.6476 40.0573 37.2666C40.4901 36.7928 40.7311 36.175 40.7333 35.5333V10.4C40.7333 9.94024 40.5507 9.49936 40.2257 9.1743C39.9006 8.84924 39.4597 8.66662 39 8.66662H6.06667C5.60696 8.66662 5.16608 8.84924 4.84101 9.1743C4.51595 9.49936 4.33333 9.94024 4.33333 10.4V11.5076C4.0707 11.6585 3.85237 11.8758 3.70025 12.1378C3.54814 12.3997 3.46758 12.697 3.46667 13V18.2C3.46758 18.5029 3.54814 18.8002 3.70025 19.0621C3.85237 19.3241 4.0707 19.5414 4.33333 19.6924V28.8409C4.0707 28.9918 3.85237 29.2091 3.70025 29.4711C3.54814 29.733 3.46758 30.0304 3.46667 30.3333V35.5333C3.46758 35.8362 3.54814 36.1335 3.70025 36.3955C3.85237 36.6574 4.0707 36.8748 4.33333 37.0257V38.1333C4.33333 38.593 4.51595 39.0339 4.84101 39.3589C5.16608 39.684 5.60696 39.8666 6.06667 39.8666H28.7595C28.8745 40.1867 29.0512 40.4811 29.2795 40.7333C29.0509 40.9852 28.8742 41.2797 28.7595 41.6H2.6C2.37015 41.6 2.14971 41.5086 1.98717 41.3461C1.82464 41.1836 1.73333 40.9631 1.73333 40.7333V7.79995Z" fill="black" stroke="#FFE7AA" stroke-width="17.0667" mask="url(#path-1-inside-1_732_268)"/>
<mask id="path-2-inside-2_732_268" fill="white">
<path d="M32.0667 24.2666C32.0667 22.3811 31.5076 20.5379 30.46 18.9702C29.4125 17.4024 27.9236 16.1805 26.1816 15.459C24.4396 14.7374 22.5228 14.5486 20.6735 14.9165C18.8242 15.2843 17.1255 16.1923 15.7923 17.5255C14.459 18.8588 13.551 20.5575 13.1832 22.4068C12.8153 24.256 13.0041 26.1729 13.7257 27.9149C14.4472 29.6569 15.6692 31.1458 17.2369 32.1933C18.8046 33.2408 20.6478 33.7999 22.5333 33.7999C25.0608 33.797 27.4839 32.7916 29.2711 31.0044C31.0583 29.2172 32.0637 26.7941 32.0667 24.2666ZM22.5333 32.0666C20.9906 32.0666 19.4826 31.6092 18.1999 30.7521C16.9172 29.895 15.9174 28.6768 15.3271 27.2515C14.7367 25.8263 14.5822 24.258 14.8832 22.7449C15.1842 21.2319 15.9271 19.842 17.0179 18.7512C18.1088 17.6603 19.4986 16.9175 21.0116 16.6165C22.5247 16.3155 24.093 16.47 25.5183 17.0604C26.9435 17.6507 28.1617 18.6505 29.0188 19.9332C29.8759 21.2159 30.3333 22.7239 30.3333 24.2666C30.3308 26.3345 29.5082 28.317 28.046 29.7793C26.5837 31.2415 24.6013 32.0641 22.5333 32.0666Z"/>
</mask>
<path d="M32.0667 24.2666C32.0667 22.3811 31.5076 20.5379 30.46 18.9702C29.4125 17.4024 27.9236 16.1805 26.1816 15.459C24.4396 14.7374 22.5228 14.5486 20.6735 14.9165C18.8242 15.2843 17.1255 16.1923 15.7923 17.5255C14.459 18.8588 13.551 20.5575 13.1832 22.4068C12.8153 24.256 13.0041 26.1729 13.7257 27.9149C14.4472 29.6569 15.6692 31.1458 17.2369 32.1933C18.8046 33.2408 20.6478 33.7999 22.5333 33.7999C25.0608 33.797 27.4839 32.7916 29.2711 31.0044C31.0583 29.2172 32.0637 26.7941 32.0667 24.2666ZM22.5333 32.0666C20.9906 32.0666 19.4826 31.6092 18.1999 30.7521C16.9172 29.895 15.9174 28.6768 15.3271 27.2515C14.7367 25.8263 14.5822 24.258 14.8832 22.7449C15.1842 21.2319 15.9271 19.842 17.0179 18.7512C18.1088 17.6603 19.4986 16.9175 21.0116 16.6165C22.5247 16.3155 24.093 16.47 25.5183 17.0604C26.9435 17.6507 28.1617 18.6505 29.0188 19.9332C29.8759 21.2159 30.3333 22.7239 30.3333 24.2666C30.3308 26.3345 29.5082 28.317 28.046 29.7793C26.5837 31.2415 24.6013 32.0641 22.5333 32.0666Z" fill="black"/>
<path d="M32.0667 24.2666L40.6 24.2767V24.2666H32.0667ZM22.5333 33.7999V42.3333L22.5434 42.3333L22.5333 33.7999ZM22.5333 32.0666V40.6L22.5437 40.5999L22.5333 32.0666ZM30.3333 24.2666L38.8667 24.277V24.2666H30.3333ZM40.6 24.2666C40.6 20.6934 39.5404 17.2004 37.5552 14.2293L23.3648 23.711C23.4747 23.8755 23.5333 24.0688 23.5333 24.2666H40.6ZM37.5552 14.2293C35.57 11.2583 32.7484 8.94261 29.4472 7.57519L22.916 23.3427C23.0987 23.4184 23.2549 23.5466 23.3648 23.711L37.5552 14.2293ZM29.4472 7.57519C26.1459 6.20777 22.5133 5.84999 19.0087 6.54709L22.3382 23.2858C22.5322 23.2472 22.7333 23.267 22.916 23.3427L29.4472 7.57519ZM19.0087 6.54709C15.5041 7.2442 12.2849 8.96488 9.75827 11.4915L21.8262 23.5595C21.9661 23.4197 22.1443 23.3244 22.3382 23.2858L19.0087 6.54709ZM9.75827 11.4915C7.2316 14.0182 5.51092 17.2374 4.81382 20.742L21.5526 24.0715C21.5911 23.8775 21.6864 23.6994 21.8262 23.5595L9.75827 11.4915ZM4.81382 20.742C4.11671 24.2466 4.47449 27.8792 5.84191 31.1804L21.6095 24.6493C21.5338 24.4666 21.514 24.2655 21.5526 24.0715L4.81382 20.742ZM5.84191 31.1804C7.20934 34.4817 9.52499 37.3033 12.496 39.2885L21.9778 25.0981C21.8133 24.9882 21.6851 24.832 21.6095 24.6493L5.84191 31.1804ZM12.496 39.2885C15.4671 41.2737 18.9601 42.3333 22.5333 42.3333V25.2666C22.3356 25.2666 22.1422 25.208 21.9778 25.0981L12.496 39.2885ZM22.5434 42.3333C27.3306 42.3276 31.9201 40.4234 35.3051 37.0384L23.2372 24.9704C23.0478 25.1598 22.7911 25.2663 22.5233 25.2666L22.5434 42.3333ZM35.3051 37.0384C38.6902 33.6533 40.5944 29.0639 40.6 24.2767L23.5333 24.2565C23.533 24.5243 23.4265 24.7811 23.2372 24.9704L35.3051 37.0384ZM22.5333 23.5333C22.6784 23.5333 22.8202 23.5763 22.9408 23.6569L13.459 37.8473C16.145 39.642 19.3029 40.5999 22.5333 40.5999V23.5333ZM22.9408 23.6569C23.0614 23.7374 23.1553 23.852 23.2108 23.986L7.4433 30.5171C8.67954 33.5016 10.773 36.0526 13.459 37.8473L22.9408 23.6569ZM23.2108 23.986C23.2664 24.12 23.2809 24.2674 23.2526 24.4097L6.51384 21.0801C5.88362 24.2485 6.20707 27.5326 7.4433 30.5171L23.2108 23.986ZM23.2526 24.4097C23.2243 24.5519 23.1544 24.6826 23.0519 24.7852L10.9839 12.7172C8.69967 15.0015 7.14407 17.9118 6.51384 21.0801L23.2526 24.4097ZM23.0519 24.7852C22.9493 24.8877 22.8187 24.9576 22.6764 24.9859L19.3469 8.24712C16.1785 8.87735 13.2682 10.4329 10.9839 12.7172L23.0519 24.7852ZM22.6764 24.9859C22.5342 25.0142 22.3867 24.9996 22.2527 24.9441L28.7838 9.17658C25.7993 7.94035 22.5152 7.61689 19.3469 8.24712L22.6764 24.9859ZM22.2527 24.9441C22.1187 24.8886 22.0042 24.7946 21.9236 24.674L36.114 15.1923C34.3193 12.5063 31.7684 10.4128 28.7838 9.17658L22.2527 24.9441ZM21.9236 24.674C21.843 24.5534 21.8 24.4117 21.8 24.2666H38.8667C38.8667 21.0362 37.9087 17.8783 36.114 15.1923L21.9236 24.674ZM21.8 24.2562C21.8002 24.0645 21.8765 23.8808 22.012 23.7453L34.08 35.8132C37.14 32.7532 38.8614 28.6045 38.8667 24.277L21.8 24.2562ZM22.012 23.7453C22.1475 23.6098 22.3313 23.5335 22.5229 23.5333L22.5437 40.5999C26.8712 40.5947 31.02 38.8732 34.08 35.8132L22.012 23.7453Z" fill="#FFE7AA" mask="url(#path-2-inside-2_732_268)"/>
<mask id="path-4-inside-3_732_268" fill="white">
<path d="M26.8668 23.4H24.974C24.9449 23.3158 24.911 23.2334 24.8726 23.153L26.2108 21.8149C26.2935 21.7349 26.3596 21.6393 26.405 21.5335C26.4504 21.4278 26.4743 21.3141 26.4753 21.199C26.4763 21.0839 26.4544 20.9698 26.4108 20.8633C26.3672 20.7568 26.3029 20.66 26.2215 20.5786C26.1401 20.4973 26.0434 20.4329 25.9369 20.3893C25.8303 20.3458 25.7162 20.3238 25.6011 20.3248C25.4861 20.3258 25.3723 20.3497 25.2666 20.3952C25.1609 20.4406 25.0652 20.5066 24.9853 20.5894L23.6472 21.9267C23.5668 21.8885 23.4843 21.855 23.4002 21.8261V19.9333C23.4002 19.7035 23.3089 19.483 23.1463 19.3205C22.9838 19.158 22.7634 19.0667 22.5335 19.0667C22.3036 19.0667 22.0832 19.158 21.9207 19.3205C21.7581 19.483 21.6668 19.7035 21.6668 19.9333V21.8261C21.5827 21.8553 21.5002 21.8891 21.4198 21.9275L20.0817 20.5894C20.0017 20.5066 19.9061 20.4406 19.8004 20.3952C19.6946 20.3497 19.5809 20.3258 19.4658 20.3248C19.3508 20.3238 19.2366 20.3458 19.1301 20.3893C19.0236 20.4329 18.9269 20.4973 18.8455 20.5786C18.7641 20.66 18.6998 20.7568 18.6562 20.8633C18.6126 20.9698 18.5907 21.0839 18.5917 21.199C18.5927 21.3141 18.6166 21.4278 18.662 21.5335C18.7074 21.6393 18.7735 21.7349 18.8562 21.8149L20.1935 23.153C20.1551 23.2334 20.1212 23.3158 20.0921 23.4H18.2002C17.9703 23.4 17.7499 23.4913 17.5873 23.6538C17.4248 23.8164 17.3335 24.0368 17.3335 24.2667C17.3335 24.4965 17.4248 24.7169 17.5873 24.8795C17.7499 25.042 17.9703 25.1333 18.2002 25.1333H20.093C20.1221 25.2175 20.156 25.2999 20.1944 25.3803L18.8562 26.7185C18.7735 26.7984 18.7074 26.894 18.662 26.9998C18.6166 27.1055 18.5927 27.2192 18.5917 27.3343C18.5907 27.4494 18.6126 27.5635 18.6562 27.67C18.6998 27.7765 18.7641 27.8733 18.8455 27.9547C18.9269 28.036 19.0236 28.1004 19.1301 28.144C19.2366 28.1875 19.3508 28.2095 19.4658 28.2085C19.5809 28.2075 19.6946 28.1836 19.8004 28.1381C19.9061 28.0927 20.0017 28.0267 20.0817 27.9439L21.4198 26.6067C21.5002 26.645 21.5827 26.6789 21.6668 26.7081V28.6C21.6668 28.8298 21.7581 29.0503 21.9207 29.2128C22.0832 29.3753 22.3036 29.4667 22.5335 29.4667C22.7634 29.4667 22.9838 29.3753 23.1463 29.2128C23.3089 29.0503 23.4002 28.8298 23.4002 28.6V26.7072C23.4843 26.678 23.5668 26.6442 23.6472 26.6058L24.9853 27.9439C25.0652 28.0267 25.1609 28.0927 25.2666 28.1381C25.3723 28.1836 25.4861 28.2075 25.6011 28.2085C25.7162 28.2095 25.8303 28.1875 25.9369 28.144C26.0434 28.1004 26.1401 28.036 26.2215 27.9547C26.3029 27.8733 26.3672 27.7765 26.4108 27.67C26.4544 27.5635 26.4763 27.4494 26.4753 27.3343C26.4743 27.2192 26.4504 27.1055 26.405 26.9998C26.3596 26.894 26.2935 26.7984 26.2108 26.7185L24.8735 25.3803C24.9116 25.2999 24.9452 25.2175 24.974 25.1333H26.8668C27.0967 25.1333 27.3171 25.042 27.4797 24.8795C27.6422 24.7169 27.7335 24.4965 27.7335 24.2667C27.7335 24.0368 27.6422 23.8164 27.4797 23.6538C27.3171 23.4913 27.0967 23.4 26.8668 23.4ZM21.6668 24.2667C21.6668 24.0952 21.7177 23.9277 21.8129 23.7852C21.9081 23.6426 22.0435 23.5316 22.2018 23.466C22.3602 23.4004 22.5345 23.3832 22.7026 23.4166C22.8707 23.4501 23.0251 23.5326 23.1463 23.6538C23.2675 23.775 23.3501 23.9295 23.3835 24.0976C23.417 24.2657 23.3998 24.4399 23.3342 24.5983C23.2686 24.7567 23.1575 24.892 23.015 24.9873C22.8725 25.0825 22.7049 25.1333 22.5335 25.1333C22.3036 25.1333 22.0832 25.042 21.9207 24.8795C21.7581 24.7169 21.6668 24.4965 21.6668 24.2667Z"/>
</mask>
<path d="M26.8668 23.4H24.974C24.9449 23.3158 24.911 23.2334 24.8726 23.153L26.2108 21.8149C26.2935 21.7349 26.3596 21.6393 26.405 21.5335C26.4504 21.4278 26.4743 21.3141 26.4753 21.199C26.4763 21.0839 26.4544 20.9698 26.4108 20.8633C26.3672 20.7568 26.3029 20.66 26.2215 20.5786C26.1401 20.4973 26.0434 20.4329 25.9369 20.3893C25.8303 20.3458 25.7162 20.3238 25.6011 20.3248C25.4861 20.3258 25.3723 20.3497 25.2666 20.3952C25.1609 20.4406 25.0652 20.5066 24.9853 20.5894L23.6472 21.9267C23.5668 21.8885 23.4843 21.855 23.4002 21.8261V19.9333C23.4002 19.7035 23.3089 19.483 23.1463 19.3205C22.9838 19.158 22.7634 19.0667 22.5335 19.0667C22.3036 19.0667 22.0832 19.158 21.9207 19.3205C21.7581 19.483 21.6668 19.7035 21.6668 19.9333V21.8261C21.5827 21.8553 21.5002 21.8891 21.4198 21.9275L20.0817 20.5894C20.0017 20.5066 19.9061 20.4406 19.8004 20.3952C19.6946 20.3497 19.5809 20.3258 19.4658 20.3248C19.3508 20.3238 19.2366 20.3458 19.1301 20.3893C19.0236 20.4329 18.9269 20.4973 18.8455 20.5786C18.7641 20.66 18.6998 20.7568 18.6562 20.8633C18.6126 20.9698 18.5907 21.0839 18.5917 21.199C18.5927 21.3141 18.6166 21.4278 18.662 21.5335C18.7074 21.6393 18.7735 21.7349 18.8562 21.8149L20.1935 23.153C20.1551 23.2334 20.1212 23.3158 20.0921 23.4H18.2002C17.9703 23.4 17.7499 23.4913 17.5873 23.6538C17.4248 23.8164 17.3335 24.0368 17.3335 24.2667C17.3335 24.4965 17.4248 24.7169 17.5873 24.8795C17.7499 25.042 17.9703 25.1333 18.2002 25.1333H20.093C20.1221 25.2175 20.156 25.2999 20.1944 25.3803L18.8562 26.7185C18.7735 26.7984 18.7074 26.894 18.662 26.9998C18.6166 27.1055 18.5927 27.2192 18.5917 27.3343C18.5907 27.4494 18.6126 27.5635 18.6562 27.67C18.6998 27.7765 18.7641 27.8733 18.8455 27.9547C18.9269 28.036 19.0236 28.1004 19.1301 28.144C19.2366 28.1875 19.3508 28.2095 19.4658 28.2085C19.5809 28.2075 19.6946 28.1836 19.8004 28.1381C19.9061 28.0927 20.0017 28.0267 20.0817 27.9439L21.4198 26.6067C21.5002 26.645 21.5827 26.6789 21.6668 26.7081V28.6C21.6668 28.8298 21.7581 29.0503 21.9207 29.2128C22.0832 29.3753 22.3036 29.4667 22.5335 29.4667C22.7634 29.4667 22.9838 29.3753 23.1463 29.2128C23.3089 29.0503 23.4002 28.8298 23.4002 28.6V26.7072C23.4843 26.678 23.5668 26.6442 23.6472 26.6058L24.9853 27.9439C25.0652 28.0267 25.1609 28.0927 25.2666 28.1381C25.3723 28.1836 25.4861 28.2075 25.6011 28.2085C25.7162 28.2095 25.8303 28.1875 25.9369 28.144C26.0434 28.1004 26.1401 28.036 26.2215 27.9547C26.3029 27.8733 26.3672 27.7765 26.4108 27.67C26.4544 27.5635 26.4763 27.4494 26.4753 27.3343C26.4743 27.2192 26.4504 27.1055 26.405 26.9998C26.3596 26.894 26.2935 26.7984 26.2108 26.7185L24.8735 25.3803C24.9116 25.2999 24.9452 25.2175 24.974 25.1333H26.8668C27.0967 25.1333 27.3171 25.042 27.4797 24.8795C27.6422 24.7169 27.7335 24.4965 27.7335 24.2667C27.7335 24.0368 27.6422 23.8164 27.4797 23.6538C27.3171 23.4913 27.0967 23.4 26.8668 23.4ZM21.6668 24.2667C21.6668 24.0952 21.7177 23.9277 21.8129 23.7852C21.9081 23.6426 22.0435 23.5316 22.2018 23.466C22.3602 23.4004 22.5345 23.3832 22.7026 23.4166C22.8707 23.4501 23.0251 23.5326 23.1463 23.6538C23.2675 23.775 23.3501 23.9295 23.3835 24.0976C23.417 24.2657 23.3998 24.4399 23.3342 24.5983C23.2686 24.7567 23.1575 24.892 23.015 24.9873C22.8725 25.0825 22.7049 25.1333 22.5335 25.1333C22.3036 25.1333 22.0832 25.042 21.9207 24.8795C21.7581 24.7169 21.6668 24.4965 21.6668 24.2667Z" fill="black"/>
<path d="M24.974 23.4L16.9106 26.1928L18.8989 31.9333H24.974V23.4ZM24.8726 23.153L18.8387 17.119L14.5715 21.3862L17.1728 26.8314L24.8726 23.153ZM26.2108 21.8149L20.2826 15.6769L20.2292 15.7284L20.1768 15.7809L26.2108 21.8149ZM24.9853 20.5894L31.0173 26.6253L31.0707 26.5719L31.1232 26.5176L24.9853 20.5894ZM23.6472 21.9267L19.9924 29.6377L25.426 32.213L29.6792 27.9626L23.6472 21.9267ZM23.4002 21.8261H14.8668V27.9201L20.6311 29.8977L23.4002 21.8261ZM21.6668 21.8261L24.4596 29.8895L30.2002 27.9012V21.8261H21.6668ZM21.4198 21.9275L15.3859 27.9615L19.653 32.2287L25.0983 29.6273L21.4198 21.9275ZM20.0817 20.5894L13.9438 26.5176L13.9953 26.5709L14.0477 26.6234L20.0817 20.5894ZM18.8562 21.8149L24.8922 15.7828L24.8388 15.7294L24.7844 15.6769L18.8562 21.8149ZM20.1935 23.153L27.8933 26.8314L30.4938 21.3881L26.2294 17.121L20.1935 23.153ZM20.0921 23.4V31.9333H26.1672L28.1555 26.1928L20.0921 23.4ZM20.093 25.1333L28.1563 22.3405L26.1681 16.6H20.093V25.1333ZM20.1944 25.3803L26.2283 31.4143L30.4955 27.1471L27.8942 21.7019L20.1944 25.3803ZM18.8562 26.7185L24.7844 32.8564L24.8378 32.8049L24.8902 32.7524L18.8562 26.7185ZM20.0817 27.9439L14.0497 21.908L13.9962 21.9614L13.9438 22.0157L20.0817 27.9439ZM21.4198 26.6067L25.0983 18.9068L19.6549 16.3064L15.3878 20.5707L21.4198 26.6067ZM21.6668 26.7081H30.2002V20.6329L24.4596 18.6447L21.6668 26.7081ZM23.4002 26.7072L20.6074 18.6438L14.8668 20.6321V26.7072H23.4002ZM23.6472 26.6058L29.6811 20.5718L25.414 16.3046L19.9687 18.906L23.6472 26.6058ZM24.9853 27.9439L31.1232 22.0157L31.0717 21.9624L31.0193 21.9099L24.9853 27.9439ZM26.2108 26.7185L20.1748 32.7505L20.2282 32.8039L20.2826 32.8564L26.2108 26.7185ZM24.8735 25.3803L17.1624 21.7256L14.5871 27.1592L18.8376 31.4123L24.8735 25.3803ZM24.974 25.1333V16.6H18.88L16.9025 22.3642L24.974 25.1333ZM26.8668 14.8667H24.974V31.9333H26.8668V14.8667ZM33.0374 20.6072C32.9037 20.2212 32.7485 19.8431 32.5724 19.4746L17.1728 26.8314C17.0736 26.6236 16.986 26.4104 16.9106 26.1928L33.0374 20.6072ZM30.9066 29.187L32.2447 27.8488L20.1768 15.7809L18.8387 17.119L30.9066 29.187ZM32.139 27.9528C33.0367 27.0857 33.7529 26.0485 34.2455 24.9016L18.5644 18.1655C18.9663 17.2301 19.5503 16.3841 20.2826 15.6769L32.139 27.9528ZM34.2455 24.9016C34.7382 23.7547 34.9975 22.5212 35.0083 21.2731L17.9423 21.1248C17.9511 20.1069 18.1626 19.1009 18.5644 18.1655L34.2455 24.9016ZM35.0083 21.2731C35.0192 20.025 34.7813 18.7872 34.3087 17.632L18.5129 24.0946C18.1274 23.1524 17.9335 22.1428 17.9423 21.1248L35.0083 21.2731ZM34.3087 17.632C33.8361 16.4768 33.1381 15.4273 32.2555 14.5447L20.1875 26.6126C19.4676 25.8927 18.8984 25.0367 18.5129 24.0946L34.3087 17.632ZM32.2555 14.5447C31.3729 13.662 30.3233 12.9641 29.1681 12.4915L22.7056 28.2872C21.7634 27.9018 20.9074 27.3325 20.1875 26.6126L32.2555 14.5447ZM29.1681 12.4915C28.0129 12.0188 26.7751 11.781 25.527 11.7918L25.6753 28.8578C24.6573 28.8667 23.6478 28.6727 22.7056 28.2872L29.1681 12.4915ZM25.527 11.7918C24.2789 11.8027 23.0454 12.062 21.8986 12.5546L28.6347 28.2357C27.6993 28.6375 26.6932 28.849 25.6753 28.8578L25.527 11.7918ZM21.8986 12.5546C20.7517 13.0473 19.7145 13.7634 18.8474 14.6612L31.1232 26.5176C30.416 27.2498 29.5701 27.8339 28.6347 28.2357L21.8986 12.5546ZM18.9533 14.5534L17.6151 15.8907L29.6792 27.9626L31.0173 26.6253L18.9533 14.5534ZM27.3019 14.2156C26.9332 14.0408 26.5551 13.8869 26.1692 13.7546L20.6311 29.8977C20.4135 29.823 20.2003 29.7363 19.9924 29.6377L27.3019 14.2156ZM31.9335 21.8261V19.9333H14.8668V21.8261H31.9335ZM31.9335 19.9333C31.9335 17.4403 30.9432 15.0494 29.1803 13.2865L17.1123 25.3545C15.6745 23.9167 14.8668 21.9666 14.8668 19.9333H31.9335ZM29.1803 13.2865C27.4174 11.5237 25.0265 10.5333 22.5335 10.5333V27.6C20.5002 27.6 18.5501 26.7923 17.1123 25.3545L29.1803 13.2865ZM22.5335 10.5333C20.0405 10.5333 17.6496 11.5237 15.8867 13.2865L27.9546 25.3545C26.5169 26.7923 24.5668 27.6 22.5335 27.6V10.5333ZM15.8867 13.2865C14.1238 15.0494 13.1335 17.4403 13.1335 19.9333H30.2002C30.2002 21.9666 29.3924 23.9167 27.9546 25.3545L15.8867 13.2865ZM13.1335 19.9333V21.8261H30.2002V19.9333H13.1335ZM18.8741 13.7627C18.4881 13.8964 18.1099 14.0517 17.7414 14.2277L25.0983 29.6273C24.8905 29.7266 24.6773 29.8141 24.4596 29.8895L18.8741 13.7627ZM27.4538 15.8935L26.1157 14.5554L14.0477 26.6234L15.3859 27.9615L27.4538 15.8935ZM26.2196 14.6612C25.3525 13.7634 24.3153 13.0473 23.1684 12.5546L16.4323 28.2357C15.4969 27.8339 14.651 27.2498 13.9438 26.5176L26.2196 14.6612ZM23.1684 12.5546C22.0216 12.062 20.7881 11.8027 19.54 11.7918L19.3917 28.8578C18.3738 28.849 17.3677 28.6375 16.4323 28.2357L23.1684 12.5546ZM19.54 11.7918C18.2919 11.781 17.0541 12.0188 15.8989 12.4915L22.3614 28.2872C21.4192 28.6727 20.4097 28.8667 19.3917 28.8578L19.54 11.7918ZM15.8989 12.4915C14.7437 12.9641 13.6941 13.662 12.8115 14.5447L24.8795 26.6126C24.1596 27.3325 23.3036 27.9018 22.3614 28.2872L15.8989 12.4915ZM12.8115 14.5447C11.9289 15.4273 11.2309 16.4768 10.7583 17.632L26.5541 24.0946C26.1686 25.0367 25.5993 25.8927 24.8795 26.6126L12.8115 14.5447ZM10.7583 17.632C10.2857 18.7872 10.0478 20.025 10.0587 21.2731L27.1247 21.1248C27.1335 22.1428 26.9396 23.1524 26.5541 24.0946L10.7583 17.632ZM10.0587 21.2731C10.0695 22.5212 10.3288 23.7547 10.8215 24.9016L26.5025 18.1655C26.9044 19.1009 27.1158 20.1069 27.1247 21.1248L10.0587 21.2731ZM10.8215 24.9016C11.3141 26.0485 12.0303 27.0857 12.928 27.9528L24.7844 15.6769C25.5166 16.3841 26.1007 17.2301 26.5025 18.1655L10.8215 24.9016ZM12.8203 27.8469L14.1576 29.185L26.2294 17.121L24.8922 15.7828L12.8203 27.8469ZM12.4937 19.4746C12.3176 19.8432 12.1624 20.2213 12.0287 20.6072L28.1555 26.1928C28.0801 26.4103 27.9926 26.6235 27.8933 26.8314L12.4937 19.4746ZM20.0921 14.8667H18.2002V31.9333H20.0921V14.8667ZM18.2002 14.8667C15.7072 14.8667 13.3162 15.857 11.5534 17.6198L23.6213 29.6878C22.1835 31.1256 20.2335 31.9333 18.2002 31.9333V14.8667ZM11.5534 17.6198C9.7905 19.3827 8.80016 21.7736 8.80016 24.2667H25.8668C25.8668 26.3 25.0591 28.25 23.6213 29.6878L11.5534 17.6198ZM8.80016 24.2667C8.80016 26.7597 9.7905 29.1506 11.5534 30.9135L23.6213 18.8455C25.0591 20.2833 25.8668 22.2333 25.8668 24.2667H8.80016ZM11.5534 30.9135C13.3162 32.6763 15.7072 33.6667 18.2002 33.6667V16.6C20.2335 16.6 22.1835 17.4077 23.6213 18.8455L11.5534 30.9135ZM18.2002 33.6667H20.093V16.6H18.2002V33.6667ZM12.0296 27.9261C12.1633 28.3121 12.3185 28.6902 12.4946 29.0587L27.8942 21.7019C27.9934 21.9097 28.081 22.1229 28.1563 22.3405L12.0296 27.9261ZM14.1604 19.3463L12.8223 20.6845L24.8902 32.7524L26.2283 31.4143L14.1604 19.3463ZM12.928 20.5805C12.0303 21.4476 11.3141 22.4848 10.8215 23.6317L26.5025 30.3678C26.1007 31.3032 25.5166 32.1492 24.7844 32.8564L12.928 20.5805ZM10.8215 23.6317C10.3288 24.7786 10.0695 26.0121 10.0587 27.2602L27.1247 27.4085C27.1158 28.4264 26.9044 29.4324 26.5025 30.3678L10.8215 23.6317ZM10.0587 27.2602C10.0478 28.5083 10.2857 29.7461 10.7583 30.9013L26.5541 24.4387C26.9396 25.3809 27.1335 26.3905 27.1247 27.4085L10.0587 27.2602ZM10.7583 30.9013C11.2309 32.0565 11.9289 33.106 12.8115 33.9886L24.8795 21.9207C25.5993 22.6405 26.1686 23.4965 26.5541 24.4387L10.7583 30.9013ZM12.8115 33.9886C13.694 34.8712 14.7435 35.5692 15.8989 36.0419L22.3614 20.2461C23.3037 20.6316 24.1597 21.2009 24.8795 21.9207L12.8115 33.9886ZM15.8989 36.0419C17.0541 36.5145 18.2919 36.7523 19.54 36.7415L19.3917 19.6755C20.4097 19.6666 21.4192 19.8606 22.3614 20.2461L15.8989 36.0419ZM19.54 36.7415C20.7882 36.7306 22.0216 36.4713 23.1684 35.9787L16.4323 20.2976C17.3677 19.8958 18.3737 19.6843 19.3917 19.6755L19.54 36.7415ZM23.1684 35.9787C24.3153 35.486 25.3525 34.7699 26.2196 33.8721L13.9438 22.0157C14.651 21.2835 15.4969 20.6994 16.4323 20.2976L23.1684 35.9787ZM26.1137 33.9799L27.4519 32.6426L15.3878 20.5707L14.0497 21.908L26.1137 33.9799ZM17.7414 34.3065C18.11 34.4825 18.4882 34.6378 18.8741 34.7714L24.4596 18.6447C24.6772 18.72 24.8904 18.8075 25.0983 18.9068L17.7414 34.3065ZM13.1335 26.7081V28.6H30.2002V26.7081H13.1335ZM13.1335 28.6C13.1335 31.093 14.1238 33.4839 15.8867 35.2468L27.9546 23.1788C29.3924 24.6166 30.2002 26.5667 30.2002 28.6H13.1335ZM15.8867 35.2468C17.6496 37.0096 20.0405 38 22.5335 38V20.9333C24.5668 20.9333 26.5169 21.741 27.9546 23.1788L15.8867 35.2468ZM22.5335 38C25.0265 38 27.4174 37.0096 29.1803 35.2468L17.1123 23.1788C18.5501 21.741 20.5002 20.9333 22.5335 20.9333V38ZM29.1803 35.2468C30.9432 33.4839 31.9335 31.093 31.9335 28.6H14.8668C14.8668 26.5667 15.6745 24.6166 17.1123 23.1788L29.1803 35.2468ZM31.9335 28.6V26.7072H14.8668V28.6H31.9335ZM26.1929 34.7706C26.5789 34.6369 26.9571 34.4816 27.3256 34.3056L19.9687 18.906C20.1765 18.8067 20.3897 18.7192 20.6074 18.6438L26.1929 34.7706ZM17.6132 32.6398L18.9513 33.9779L31.0193 21.9099L29.6811 20.5718L17.6132 32.6398ZM18.8474 33.8721C19.7145 34.7699 20.7517 35.486 21.8986 35.9787L28.6347 20.2976C29.5701 20.6994 30.416 21.2835 31.1232 22.0157L18.8474 33.8721ZM21.8986 35.9787C23.0454 36.4713 24.2788 36.7306 25.527 36.7415L25.6753 19.6755C26.6933 19.6843 27.6993 19.8958 28.6347 20.2976L21.8986 35.9787ZM25.527 36.7415C26.7751 36.7523 28.0129 36.5145 29.1681 36.0419L22.7056 20.2461C23.6478 19.8606 24.6573 19.6666 25.6753 19.6755L25.527 36.7415ZM29.1681 36.0419C30.3234 35.5692 31.373 34.8712 32.2555 33.9886L20.1875 21.9207C20.9073 21.2009 21.7633 20.6316 22.7056 20.2461L29.1681 36.0419ZM32.2555 33.9886C33.1381 33.106 33.8361 32.0565 34.3087 30.9013L18.5129 24.4387C18.8984 23.4965 19.4677 22.6405 20.1875 21.9207L32.2555 33.9886ZM34.3087 30.9013C34.7813 29.7461 35.0192 28.5083 35.0083 27.2602L17.9423 27.4085C17.9335 26.3905 18.1274 25.3809 18.5129 24.4387L34.3087 30.9013ZM35.0083 27.2602C34.9975 26.0121 34.7382 24.7786 34.2455 23.6317L18.5644 30.3678C18.1626 29.4324 17.9511 28.4264 17.9423 27.4085L35.0083 27.2602ZM34.2455 23.6317C33.7529 22.4848 33.0367 21.4476 32.139 20.5805L20.2826 32.8564C19.5503 32.1492 18.9663 31.3032 18.5644 30.3678L34.2455 23.6317ZM32.2467 20.6864L30.9094 19.3483L18.8376 31.4123L20.1748 32.7505L32.2467 20.6864ZM32.5846 29.035C32.7593 28.6664 32.9132 28.2882 33.0456 27.9024L16.9025 22.3642C16.9771 22.1467 17.0639 21.9335 17.1624 21.7256L32.5846 29.035ZM24.974 33.6667H26.8668V16.6H24.974V33.6667ZM26.8668 33.6667C29.3598 33.6667 31.7508 32.6763 33.5136 30.9135L21.4457 18.8455C22.8835 17.4077 24.8335 16.6 26.8668 16.6V33.6667ZM33.5136 30.9135C35.2765 29.1506 36.2668 26.7597 36.2668 24.2667H19.2002C19.2002 22.2333 20.0079 20.2833 21.4457 18.8455L33.5136 30.9135ZM36.2668 24.2667C36.2668 21.7736 35.2765 19.3827 33.5136 17.6198L21.4457 29.6878C20.0079 28.25 19.2002 26.3 19.2002 24.2667H36.2668ZM33.5136 17.6198C31.7508 15.857 29.3598 14.8667 26.8668 14.8667V31.9333C24.8335 31.9333 22.8835 31.1256 21.4457 29.6878L33.5136 17.6198ZM30.2002 24.2667C30.2002 25.7829 29.7505 27.2652 28.9081 28.526L14.7177 19.0443C13.6848 20.5901 13.1335 22.4075 13.1335 24.2667H30.2002ZM28.9081 28.526C28.0657 29.7868 26.8683 30.7695 25.4674 31.3497L18.9363 15.5822C17.2187 16.2936 15.7506 17.4984 14.7177 19.0443L28.9081 28.526ZM25.4674 31.3497C24.0665 31.93 22.525 32.0818 21.0378 31.786L24.3673 15.0473C22.5439 14.6846 20.6539 14.8707 18.9363 15.5822L25.4674 31.3497ZM21.0378 31.786C19.5506 31.4902 18.1846 30.76 17.1123 29.6878L29.1803 17.6198C27.8657 16.3052 26.1908 15.41 24.3673 15.0473L21.0378 31.786ZM17.1123 29.6878C16.0401 28.6156 15.31 27.2495 15.0141 25.7623L31.7529 22.4328C31.3902 20.6094 30.4949 18.9345 29.1803 17.6198L17.1123 29.6878ZM15.0141 25.7623C14.7183 24.2752 14.8701 22.7336 15.4504 21.3327L31.218 27.8639C31.9294 26.1462 32.1156 24.2562 31.7529 22.4328L15.0141 25.7623ZM15.4504 21.3327C16.0307 19.9319 17.0133 18.7345 18.2741 17.8921L27.7559 32.0825C29.3017 31.0496 30.5065 29.5815 31.218 27.8639L15.4504 21.3327ZM18.2741 17.8921C19.5349 17.0496 21.0172 16.6 22.5335 16.6V33.6667C24.3926 33.6667 26.21 33.1154 27.7559 32.0825L18.2741 17.8921ZM22.5335 16.6C24.5668 16.6 26.5169 17.4077 27.9546 18.8455L15.8867 30.9135C17.6496 32.6763 20.0405 33.6667 22.5335 33.6667V16.6ZM27.9546 18.8455C29.3924 20.2833 30.2002 22.2333 30.2002 24.2667H13.1335C13.1335 26.7597 14.1238 29.1506 15.8867 30.9135L27.9546 18.8455Z" fill="#FFE7AA" mask="url(#path-4-inside-3_732_268)"/>
<path d="M35.5332 26.8666V27.5543C35.7923 27.6226 36.0605 27.6605 36.3325 27.6659C36.355 27.6663 36.3774 27.6666 36.3999 27.6666C36.4223 27.6666 36.4448 27.6663 36.4672 27.6659C36.7392 27.6605 37.0074 27.6226 37.2665 27.5543V26.8666V25.1332V24.4455C37.0074 24.3772 36.7392 24.3393 36.4672 24.3339C36.4448 24.3335 36.4223 24.3332 36.3999 24.3332C36.3774 24.3332 36.355 24.3335 36.3325 24.3339C36.0605 24.3393 35.7923 24.3772 35.5332 24.4455V25.1332V26.8666Z" fill="black" stroke="#FFE7AA" stroke-width="8.53333"/>
</g>
<defs>
<clipPath id="clip0_732_268">
<rect width="52" height="52" fill="white"/>
</clipPath>
</defs>
</svg>
