<svg width="44" height="44" viewBox="0 0 44 44" fill="none" xmlns="http://www.w3.org/2000/svg">
<path fill-rule="evenodd" clip-rule="evenodd" d="M10.5063 21.7779C16.6282 19.1107 20.7104 17.3523 22.753 16.5027C28.5849 14.077 29.7968 13.6557 30.5866 13.6417C30.7603 13.6387 31.1488 13.6817 31.4004 13.8859C31.6128 14.0583 31.6713 14.2912 31.6992 14.4546C31.7272 14.6181 31.762 14.9904 31.7344 15.2813C31.4183 18.6019 30.0508 26.6601 29.3551 30.3792C29.0608 31.9529 28.4811 32.4806 27.92 32.5322C26.7005 32.6444 25.7744 31.7263 24.5933 30.952C22.745 29.7405 21.7009 28.9862 19.9068 27.804C17.8334 26.4377 19.1775 25.6867 20.3591 24.4595C20.6683 24.1383 26.0415 19.251 26.1455 18.8076C26.1585 18.7522 26.1706 18.5455 26.0478 18.4363C25.925 18.3272 25.7438 18.3645 25.613 18.3942C25.4276 18.4363 22.475 20.3879 16.7551 24.249C15.917 24.8245 15.1579 25.1049 14.4777 25.0902C13.7279 25.074 12.2856 24.6662 11.2133 24.3177C9.89822 23.8902 8.85298 23.6642 8.944 22.9381C8.99141 22.56 9.51216 22.1732 10.5063 21.7779Z" fill="white"/>
<rect x="0.5" y="0.5" width="43" height="43" rx="21.5" stroke="#686868"/>
</svg>
