<svg width="215" height="51" viewBox="0 0 215 51" fill="none" xmlns="http://www.w3.org/2000/svg">
<g clip-path="url(#clip0_1098_915)">
<path d="M49.6417 37.5014H45.96L52.6756 20.5049C53.3829 18.7214 54.6851 18.041 56.7011 18.041C58.7171 18.041 59.9862 18.7214 60.667 20.5049L67.1316 37.5014H63.4168L57.6066 22.1233C57.4348 21.6675 57.1241 21.4694 56.6747 21.4694C56.2252 21.4694 55.9079 21.6675 55.7096 22.1233L49.6417 37.5014Z" fill="url(#paint0_linear_1098_915)"/>
<path d="M79.3665 22.5459C83.3325 22.5459 85.831 24.9834 85.831 30.0236C85.831 35.0637 83.3391 37.5012 79.3665 37.5012H72.7367V43.5058H69.7358V28.9468C69.7358 24.6399 71.6329 22.5459 75.2353 22.5459H79.3731H79.3665ZM72.7367 34.5815H79.0558C81.6668 34.5815 82.7971 33.2471 82.7971 30.0236C82.7971 26.8 81.6668 25.4326 79.0558 25.4326H76.1078C73.6688 25.4326 72.7367 26.5093 72.7367 29.0855V34.5815Z" fill="url(#paint1_linear_1098_915)"/>
<path d="M99.0047 22.5459C102.971 22.5459 105.469 24.9834 105.469 30.0236C105.469 35.0637 102.977 37.5012 99.0047 37.5012H92.3749V43.5058H89.374V28.9468C89.374 24.6399 91.2711 22.5459 94.8735 22.5459H99.0113H99.0047ZM92.3749 34.5815H98.694C101.298 34.5815 102.435 33.2471 102.435 30.0236C102.435 26.8 101.298 25.4326 98.694 25.4326H95.746C93.3069 25.4326 92.3749 26.5093 92.3749 29.0855V34.5815Z" fill="url(#paint2_linear_1098_915)"/>
<path d="M112.066 16.0596V37.5017H109.065V16.0596H112.066Z" fill="url(#paint3_linear_1098_915)"/>
<path d="M126.125 22.5459C129.668 22.5459 131.169 24.2436 131.169 27.1369C131.169 30.0302 129.781 31.4438 126.099 31.4438H118.987V32.5205C118.987 33.7095 119.641 34.5881 121.28 34.5881H130.435V37.5078H121.28C117.539 37.5078 116.065 35.4138 116.065 32.58V27.4804C116.065 24.6465 117.539 22.5525 121.28 22.5525H126.125V22.5459ZM118.98 29.0855H126.006C127.619 29.0855 128.214 28.4052 128.214 27.302C128.214 26.1989 127.56 25.4326 126.086 25.4326H121.267C119.621 25.4326 118.973 26.3376 118.973 27.5002V29.0855H118.98Z" fill="url(#paint4_linear_1098_915)"/>
<path d="M7.37137 36.3788C7.37137 36.3788 6.75664 37.6735 6.18158 39.7147C6.16836 39.7676 6.14853 39.827 6.13531 39.8865C6.08904 40.0516 6.04938 40.2167 6.00311 40.3885C5.84447 41.0226 5.67262 41.6039 5.47432 42.1126C4.92569 43.5196 4.17877 44.3519 3.02865 44.2396C1.72649 44.1471 0.338405 42.1918 0.444164 38.7371C0.444164 38.6776 0.444164 38.6182 0.450774 38.5587C0.470604 38.1095 0.516873 37.6405 0.589583 37.1517C0.86059 35.3483 1.50175 33.5516 2.18918 32.1115C2.3346 31.8011 2.48663 31.5038 2.63866 31.233C2.80391 30.9225 2.96916 30.6451 3.12118 30.3875C3.75574 29.3504 4.25809 28.7558 4.24487 28.7492C4.24487 28.6832 5.69906 29.4164 6.72359 30.5988C6.81613 30.7045 6.90206 30.8168 6.98799 30.9291C7.87372 32.1248 8.31659 33.7564 7.37137 36.392V36.3788Z" fill="url(#paint5_linear_1098_915)"/>
<g style="mix-blend-mode:multiply" opacity="0.17">
<path d="M7.37115 36.3791C7.37115 36.3791 6.75642 37.6738 6.18136 39.7149C6.16814 39.7678 6.14831 39.8272 6.13509 39.8867C6.08882 40.0518 6.04916 40.217 6.00289 40.3887C5.84425 41.0229 5.6724 41.6042 5.4741 42.1128C5.44105 41.7627 5.9434 35.3684 5.9434 35.3684C3.84806 34.6616 2.75081 33.2149 2.18896 32.1118C2.33438 31.8013 2.48641 31.5041 2.63844 31.2332C2.80369 30.9228 2.96894 30.6453 3.12096 30.3877C4.24465 30.4339 5.78477 30.6916 6.98777 30.9228C7.8735 32.1184 8.31637 33.75 7.37115 36.3857V36.3791Z" fill="#808080"/>
</g>
<path d="M29.64 36.3786C29.64 36.3786 30.3936 37.9574 31.0083 40.3883C31.6032 42.7993 32.4162 44.3913 33.9828 44.2394C35.47 44.1337 37.0762 41.5839 36.4218 37.1515C36.0979 34.9584 35.2122 32.7719 34.3727 31.2261C33.5399 29.6672 32.7467 28.7556 32.7665 28.7424C32.7665 28.6763 31.3123 29.4096 30.2878 30.592C29.2368 31.8207 28.6089 33.4985 29.64 36.3786Z" fill="url(#paint6_linear_1098_915)"/>
<g style="mix-blend-mode:multiply" opacity="0.17">
<path d="M29.6404 36.3791C29.6404 36.3791 30.2552 37.6738 30.8302 39.7149C30.8434 39.7678 30.8633 39.8272 30.8765 39.8867C30.9228 40.0518 30.9624 40.217 31.0087 40.3887C31.1673 41.0229 31.3392 41.6042 31.5375 42.1128C31.5705 41.7627 31.0682 35.3684 31.0682 35.3684C33.1635 34.6616 34.2608 33.2149 34.8226 32.1118C34.6772 31.8013 34.5252 31.5041 34.3731 31.2332C34.2079 30.9228 34.0427 30.6453 33.8906 30.3877C32.7669 30.4339 31.2268 30.6916 30.0238 30.9228C29.1381 32.1184 28.6952 33.75 29.6404 36.3857V36.3791Z" fill="#808080"/>
</g>
<path d="M11.1457 29.6276C11.1457 31.5564 9.88982 33.188 8.15802 33.7627C7.72837 33.9015 7.27229 33.9807 6.79637 33.9807C4.39036 33.9807 2.44043 32.032 2.44043 29.6276C2.44043 27.2231 4.39036 25.2744 6.79637 25.2744C6.94179 25.2744 7.09382 25.281 7.23263 25.2942C9.43373 25.5122 11.1457 27.3684 11.1457 29.621V29.6276Z" fill="url(#paint7_linear_1098_915)"/>
<g style="mix-blend-mode:screen" opacity="0.1">
<path d="M8.15118 33.7627C7.72153 33.9015 7.26545 33.9807 6.78954 33.9807C4.38352 33.9807 2.43359 32.032 2.43359 29.6276C2.43359 27.2231 4.38352 25.2744 6.78954 25.2744C6.93495 25.2744 7.08698 25.281 7.22579 25.2942C5.02469 27.0447 4.27115 30.592 8.12474 32.5935C8.18423 33.0361 8.19084 33.4192 8.15118 33.7561V33.7627Z" fill="#B3B3B3"/>
</g>
<path d="M25.8726 29.6276C25.8726 32.032 27.8225 33.9807 30.2285 33.9807C32.6345 33.9807 34.5844 32.032 34.5844 29.6276C34.5844 27.2231 32.6345 25.2744 30.2285 25.2744C27.8225 25.2744 25.8726 27.2231 25.8726 29.6276Z" fill="url(#paint8_linear_1098_915)"/>
<g style="mix-blend-mode:screen" opacity="0.1">
<path d="M28.8604 33.7627C29.2901 33.9015 29.7462 33.9807 30.2221 33.9807C32.6281 33.9807 34.578 32.032 34.578 29.6276C34.578 27.2231 32.6281 25.2744 30.2221 25.2744C30.0767 25.2744 29.9246 25.281 29.7858 25.2942C31.9869 27.0447 32.7405 30.592 28.8869 32.5935C28.8274 33.0361 28.8208 33.4192 28.8604 33.7561V33.7627Z" fill="#B3B3B3"/>
</g>
<path d="M22.0718 38.162C22.0718 40.1305 20.4788 41.7225 18.509 41.7225C16.5393 41.7225 14.9463 40.1305 14.9463 38.162C14.9463 36.1935 16.5393 34.6016 18.509 34.6016C20.4788 34.6016 22.0718 36.1935 22.0718 38.162Z" fill="#FF0000"/>
<path d="M29.3627 33.9612C29.3627 34.5425 29.3165 35.1634 29.2305 35.8306C29.2239 35.8901 29.2173 35.9495 29.2041 36.009C29.0917 36.795 28.9067 37.6472 28.6423 38.5654C26.4081 46.2676 22.8586 50.2641 18.5092 50.2641C14.1599 50.2641 10.6104 46.2676 8.37623 38.5654C8.11183 37.6472 7.92675 36.795 7.81438 36.009C7.80777 35.9495 7.79455 35.8901 7.78794 35.8306C7.6954 35.1634 7.65575 34.5359 7.64914 33.9612C7.63592 31.6426 8.25064 30.0176 8.87858 28.9673C9.51975 27.8972 10.1675 27.4282 10.1675 27.4282C10.1675 27.4282 13.5584 26.0674 18.5026 26.0674C23.4469 26.0674 26.8378 27.4282 26.8378 27.4282C26.8378 27.4282 27.4326 27.8575 28.0474 28.8352C28.7018 29.8789 29.3694 31.5369 29.3561 33.9612H29.3627Z" fill="url(#paint9_linear_1098_915)"/>
<g style="mix-blend-mode:multiply" opacity="0.1">
<path d="M28.0472 28.8283C25.6941 30.9488 25.8659 31.0941 18.3967 31.0941C10.9275 31.0941 11.5224 30.9488 8.87842 28.9604C9.51958 27.8903 10.1674 27.4213 10.1674 27.4213C10.1674 27.4213 13.5582 26.0605 18.5025 26.0605C23.4467 26.0605 26.8376 27.4213 26.8376 27.4213C26.8376 27.4213 27.4325 27.8507 28.0472 28.8283Z" fill="#2E2E2E"/>
</g>
<path d="M22.3624 37.4224C22.3624 39.5494 20.6373 41.2735 18.5089 41.2735C16.3805 41.2735 14.6553 39.5494 14.6553 37.4224C14.6553 37.1119 14.6949 36.8081 14.761 36.5174C15.1642 34.8264 16.6911 33.5713 18.5089 33.5713C20.3266 33.5713 21.8469 34.8264 22.2567 36.5174C22.3294 36.8081 22.3624 37.1053 22.3624 37.4224Z" fill="url(#paint10_linear_1098_915)"/>
<g style="mix-blend-mode:screen" opacity="0.2">
<path d="M22.2569 36.5243C21.8537 38.2153 20.3268 39.4704 18.5091 39.4704C16.6913 39.4704 15.171 38.2153 14.7612 36.5243C15.1644 34.8332 16.6913 33.5781 18.5091 33.5781C20.3268 33.5781 21.8471 34.8332 22.2569 36.5243Z" fill="#B3B3B3"/>
</g>
<g style="mix-blend-mode:screen" opacity="0.27">
<path d="M19.6658 36.0484C20.1285 36.5107 20.7035 36.6759 20.9547 36.4249C21.2059 36.1739 21.0406 35.5926 20.5779 35.1368C20.1152 34.681 19.5402 34.5092 19.289 34.7602C19.0378 35.0113 19.2031 35.5926 19.6658 36.0484Z" fill="#E6E6E6"/>
</g>
<g style="mix-blend-mode:screen" opacity="0.1">
<path d="M5.07754 28.1012C4.66112 28.5966 4.09928 28.8146 3.82166 28.59C3.55065 28.3588 3.66963 27.7709 4.08606 27.2755C4.50248 26.78 5.06432 26.562 5.34194 26.7866C5.61295 27.0178 5.49397 27.6057 5.07754 28.1012Z" fill="#E6E6E6"/>
</g>
<g style="mix-blend-mode:screen" opacity="0.1">
<path d="M31.9405 28.1012C32.357 28.5966 32.9188 28.8146 33.1964 28.59C33.4674 28.3588 33.3485 27.7709 32.932 27.2755C32.5156 26.78 31.9538 26.562 31.6762 26.7866C31.4051 27.0178 31.5241 27.6057 31.9405 28.1012Z" fill="#E6E6E6"/>
</g>
<g style="mix-blend-mode:darken" opacity="0.64">
<path d="M29.2038 36.0016C28.8468 36.1007 25.8988 36.8802 23.0896 37.1774C23.1226 37.805 23.0896 39.5687 21.9064 40.8238C21.1066 41.6759 19.9631 42.1053 18.5089 42.1053C17.0547 42.1053 15.9046 41.6759 15.1114 40.8238C13.9348 39.5687 13.9018 37.8116 13.9282 37.1774C11.1256 36.8735 8.17097 36.0941 7.81404 36.0016C7.80743 35.9421 7.79421 35.8827 7.7876 35.8232C7.80082 35.8232 7.80743 35.8232 7.82065 35.8232C7.8537 35.8298 11.0331 36.7018 14.0208 37.0123C14.067 37.0123 14.1001 37.0585 14.0935 37.1047C14.0604 37.6266 14.0406 39.4366 15.2238 40.7049C15.9905 41.5174 17.0878 41.9335 18.5023 41.9335C19.9168 41.9335 21.0141 41.5174 21.7808 40.7049C22.964 39.4432 22.9442 37.6332 22.9111 37.1047C22.9111 37.0585 22.9442 37.0189 22.9838 37.0123C25.9715 36.7018 29.1509 35.8298 29.1839 35.8232C29.1972 35.8232 29.2104 35.8232 29.217 35.8232C29.2104 35.8827 29.2038 35.9421 29.1905 36.0016H29.2038Z" fill="#808080"/>
</g>
<g style="mix-blend-mode:multiply" opacity="0.2">
<path d="M29.3625 33.9607C29.3625 35.2686 29.151 36.7946 28.6421 38.5583C26.4079 46.2605 22.8584 50.257 18.509 50.257C14.1597 50.257 10.6102 46.2605 8.37602 38.5583C7.86044 36.7879 7.65554 35.262 7.64893 33.9541C8.58093 37.3032 11.5554 45.4612 18.5024 45.4612C25.4495 45.4612 28.4239 37.3098 29.3559 33.9607H29.3625Z" fill="#808080"/>
</g>
<g style="mix-blend-mode:multiply" opacity="0.63">
<path d="M6.18175 39.7147C6.16853 39.7676 6.1487 39.827 6.13548 39.8865C3.42541 38.1822 1.09211 38.5785 0.444336 38.7371C0.444336 38.6776 0.444336 38.6182 0.450946 38.5587C0.768222 38.4861 1.38295 38.3738 2.20258 38.42C3.17424 38.4663 4.60859 38.7437 6.18175 39.7213V39.7147Z" fill="#808080"/>
</g>
<g style="mix-blend-mode:multiply" opacity="0.63">
<path d="M30.8301 39.7147C30.8433 39.7676 30.8631 39.827 30.8763 39.8865C33.5864 38.1822 35.9197 38.5785 36.5675 38.7371C36.5675 38.6776 36.5675 38.6182 36.5609 38.5587C36.2436 38.4861 35.6289 38.3738 34.8093 38.42C33.8376 38.4663 32.4032 38.7437 30.8301 39.7213V39.7147Z" fill="#808080"/>
</g>
<path d="M6.28738 18.7083C6.26755 19.9898 6.16179 21.3175 5.8974 22.4471L4.15237 22.064C3.78883 21.9847 3.51782 21.7667 3.44511 21.5025C3.12123 20.2936 2.97581 19.0121 2.90971 17.8958C2.84361 16.6869 2.88327 15.6697 2.90971 15.1346C2.92293 14.8902 3.11462 14.6656 3.41206 14.5401C4.33084 14.157 6.00976 13.4766 6.00976 13.4766C6.00976 13.4766 6.32704 15.9933 6.28077 18.7083H6.28738Z" fill="url(#paint11_linear_1098_915)"/>
<g style="mix-blend-mode:screen" opacity="0.31">
<path d="M6.28761 18.7083C5.00528 18.5101 3.88159 18.2261 2.91654 17.8958C2.85044 16.6869 2.8901 15.6697 2.91654 15.1346C2.92976 14.8902 3.12145 14.6656 3.4189 14.5401C4.33768 14.157 6.0166 13.4766 6.0166 13.4766C6.0166 13.4766 6.33388 15.9933 6.28761 18.7083Z" fill="#B3B3B3"/>
</g>
<path d="M31.3259 22.037L33.0114 21.6538C33.3618 21.5746 33.6262 21.3566 33.6923 21.0923C34.3466 18.5756 34.2607 15.7417 34.2078 14.7244C34.1946 14.48 34.0095 14.2554 33.7187 14.1299C32.833 13.7468 31.2069 13.0664 31.2069 13.0664C31.2069 13.0664 30.5327 18.5359 31.3193 22.037H31.3259Z" fill="url(#paint12_linear_1098_915)"/>
<g style="mix-blend-mode:screen" opacity="0.31">
<path d="M30.949 18.305C32.1917 18.1068 33.2757 17.8227 34.2143 17.4925C34.2804 16.2836 34.2408 15.2663 34.2143 14.7313C34.2011 14.4869 34.016 14.2623 33.7252 14.1368C32.8395 13.7536 31.2134 13.0732 31.2134 13.0732C31.2134 13.0732 30.9028 15.59 30.949 18.305Z" fill="#B3B3B3"/>
</g>
<path d="M24.4912 7.86816C22.3893 7.86816 21.1598 8.45607 18.463 8.45607C15.7661 8.45607 14.5367 7.86816 12.4347 7.86816C10.3328 7.86816 4.81348 9.78382 4.81348 17.4927C4.81348 25.2015 10.7492 30.3011 13.8955 30.3011H23.0238C26.1768 30.3011 32.1059 25.2015 32.1059 17.4927C32.1059 9.78382 26.58 7.86816 24.4846 7.86816H24.4912Z" fill="url(#paint13_linear_1098_915)"/>
<g style="mix-blend-mode:screen" opacity="0.42">
<path d="M18.5091 25.6573C15.7396 25.6573 13.7698 25.479 11.0597 24.4881C8.50168 23.5501 7.62256 19.8773 7.62256 17.354C7.62256 15.1939 8.17118 13.4038 9.20233 12.1883C10.1079 11.1182 11.3439 10.5303 12.6792 10.5303C13.0163 10.5303 13.3534 10.5699 13.6839 10.6492C16.5658 11.3296 18.4893 11.3362 18.5091 11.3362C18.5289 11.3362 20.4656 11.3296 23.3344 10.6492C23.6649 10.5699 24.002 10.5303 24.3391 10.5303C25.6743 10.5303 26.9037 11.1182 27.8159 12.1883C28.8536 13.4104 29.3957 15.1939 29.3957 17.354C29.3957 19.8707 28.5033 23.7549 25.9585 24.7193C23.7177 25.5649 21.2721 25.6573 18.5091 25.6573Z" fill="#B3B3B3"/>
</g>
<path d="M29.1114 17.3606C29.1114 12.1685 25.9453 10.3255 23.3938 10.9266C20.4524 11.6202 18.5025 11.6202 18.5025 11.6202C18.5025 11.6202 16.5526 11.6202 13.6111 10.9266C11.0597 10.3255 7.89355 12.1685 7.89355 17.3606C7.89355 22.5527 10.6102 25.2808 18.5025 25.2808C27.0822 25.2808 29.1114 22.5527 29.1114 17.3606Z" fill="url(#paint14_linear_1098_915)"/>
<path style="mix-blend-mode:screen" opacity="0.29" d="M25.4297 19.098V16.8322C25.4297 15.7524 24.5537 14.877 23.4731 14.877H23.1823C22.1017 14.877 21.2258 15.7524 21.2258 16.8322V19.098C21.2258 20.1779 22.1017 21.0533 23.1823 21.0533H23.4731C24.5537 21.0533 25.4297 20.1779 25.4297 19.098Z" fill="url(#paint15_radial_1098_915)"/>
<g style="mix-blend-mode:screen" opacity="0.1">
<path d="M28.4106 15.2265C17.6695 12.637 11.3107 16.6731 8.62051 19.104C8.47509 18.5756 8.38916 17.9943 8.38916 17.3601C8.38916 13.1985 10.5176 11.3357 12.6327 11.3357C12.9104 11.3357 13.1814 11.3687 13.4524 11.4282C16.4533 12.135 18.4296 12.1416 18.5156 12.1416C18.6015 12.1416 20.4192 12.135 23.2152 11.5075C23.3342 11.481 23.4532 11.4546 23.5788 11.4216C23.8432 11.3621 24.1208 11.3291 24.3984 11.3291C25.608 11.3291 26.8242 11.9368 27.6373 13.2382C27.9744 13.7798 28.2454 14.4338 28.4172 15.2133L28.4106 15.2265Z" fill="#B3B3B3"/>
</g>
<path style="mix-blend-mode:screen" opacity="0.29" d="M15.7925 19.0912V16.8254C15.7925 15.7455 14.9165 14.8701 13.8359 14.8701H13.5451C12.4645 14.8701 11.5886 15.7455 11.5886 16.8254V19.0912C11.5886 20.171 12.4645 21.0464 13.5451 21.0464H13.8359C14.9165 21.0464 15.7925 20.171 15.7925 19.0912Z" fill="url(#paint16_radial_1098_915)"/>
<path d="M13.717 15.5244H13.6575C12.9055 15.5244 12.2959 16.1337 12.2959 16.8852V19.0453C12.2959 19.7968 12.9055 20.406 13.6575 20.406H13.717C14.469 20.406 15.0787 19.7968 15.0787 19.0453V16.8852C15.0787 16.1337 14.469 15.5244 13.717 15.5244Z" fill="url(#paint17_linear_1098_915)"/>
<path d="M23.3542 20.3994H23.2881C22.5345 20.3994 21.9264 19.7917 21.9264 19.0386V16.872C21.9264 16.1189 22.5345 15.5112 23.2881 15.5112H23.3542C24.1077 15.5112 24.7158 16.1189 24.7158 16.872V19.0386C24.7158 19.7917 24.1077 20.3994 23.3542 20.3994Z" fill="url(#paint18_linear_1098_915)"/>
<path d="M17.6893 7.24728C16.5127 6.97644 12.7054 5.72136 13.2276 0.925618C13.254 0.70763 13.4589 0.562304 13.6705 0.628361C14.8933 1.00489 18.5486 2.5242 18.0727 6.97644C18.0528 7.1614 17.8678 7.28691 17.6893 7.24728Z" fill="url(#paint19_linear_1098_915)"/>
<path d="M18.8923 6.93707C19.0047 6.01888 19.5467 3.70688 22.2237 3.34357C22.4485 3.31054 22.6468 3.5021 22.6137 3.7267C22.4948 4.69774 21.9263 7.02955 19.2427 7.29378C19.0378 7.31359 18.8659 7.14185 18.8923 6.93707Z" fill="url(#paint20_linear_1098_915)"/>
<path d="M148.024 22.5457V25.4324H139.749C138.36 25.4324 137.792 26.0005 137.792 27.13C137.792 28.1803 138.248 28.7418 139.92 28.7418H143.437C147.575 28.7418 148.626 30.6377 148.626 32.9629C148.626 35.625 147.238 37.4944 143.721 37.4944H135.022V34.5747H143.721C145.109 34.5747 145.678 34.0924 145.678 32.9298C145.678 31.7672 145.056 31.2586 143.549 31.2586H140.006C135.869 31.2586 134.851 29.191 134.851 26.8988C134.851 24.2103 136.239 22.5391 139.729 22.5391H148.031L148.024 22.5457Z" fill="url(#paint21_linear_1098_915)"/>
<path d="M154.112 22.546L155.447 34.2183C155.533 34.8722 155.817 35.1827 156.524 35.1827C157.232 35.1827 157.489 34.8987 157.628 34.3636L159.757 25.3006C160.213 23.3189 161.488 22.2686 163.868 22.2686C166.248 22.2686 167.411 23.3189 167.867 25.3006L169.876 34.3636C169.989 34.9053 170.332 35.1827 171.007 35.1827C171.681 35.1827 171.945 34.8722 172.025 34.2183L173.585 22.546H176.843L175.171 34.3834C174.887 36.451 173.697 37.8382 170.974 37.8382C168.647 37.8382 167.404 36.8209 166.948 34.7533L164.939 25.6639C164.826 25.1552 164.403 24.9307 163.835 24.9307C163.24 24.9307 162.843 25.1552 162.731 25.6639L160.603 34.7533C160.12 36.8209 158.844 37.8382 156.465 37.8382C153.689 37.8382 152.697 36.451 152.413 34.3834L150.853 22.546H154.112Z" fill="url(#paint22_linear_1098_915)"/>
<path d="M189.422 22.5459C193.163 22.5459 194.637 24.6399 194.637 27.4738V34.4956C194.637 36.6491 194.069 37.4946 191.551 37.4946H184.551C181.008 37.4946 179.534 35.7639 179.534 32.9367C179.534 30.1094 180.895 28.6297 184.577 28.6297H191.689V27.5002C191.689 26.3376 191.035 25.4326 189.396 25.4326H180.439V22.5459H189.422ZM191.689 33.8152V31.0078H184.63C183.044 31.0078 182.475 31.6618 182.475 32.7649C182.475 33.8681 183.07 34.5749 184.57 34.5749H190.863C191.458 34.5749 191.683 34.3503 191.683 33.8086L191.689 33.8152Z" fill="url(#paint23_linear_1098_915)"/>
<path d="M208.465 22.5459C212.431 22.5459 214.93 24.9834 214.93 30.0236C214.93 35.0637 212.438 37.5012 208.465 37.5012H201.835V43.5058H198.834V28.9468C198.834 24.6399 200.732 22.5459 204.334 22.5459H208.472H208.465ZM201.835 34.5815H208.154C210.759 34.5815 211.896 33.2471 211.896 30.0236C211.896 26.8 210.759 25.4326 208.154 25.4326H205.206C202.767 25.4326 201.835 26.5093 201.835 29.0855V34.5815Z" fill="url(#paint24_linear_1098_915)"/>
</g>
<defs>
<linearGradient id="paint0_linear_1098_915" x1="43.3557" y1="27.7712" x2="215.366" y2="27.7712" gradientUnits="userSpaceOnUse">
<stop stop-color="#FFCC00"/>
<stop offset="0.19" stop-color="#FFFFA9"/>
<stop offset="0.2" stop-color="#FFFDA6"/>
<stop offset="0.29" stop-color="#FFE57A"/>
<stop offset="0.39" stop-color="#FFD054"/>
<stop offset="0.5" stop-color="#FFBF36"/>
<stop offset="0.61" stop-color="#FFB11E"/>
<stop offset="0.72" stop-color="#FFA80D"/>
<stop offset="0.85" stop-color="#FFA203"/>
<stop offset="1" stop-color="#FFA100"/>
</linearGradient>
<linearGradient id="paint1_linear_1098_915" x1="0.43735" y1="33.0292" x2="1.09834" y2="33.0292" gradientUnits="userSpaceOnUse">
<stop stop-color="#FFCC00"/>
<stop offset="0.19" stop-color="#FFFFA9"/>
<stop offset="0.2" stop-color="#FFFDA6"/>
<stop offset="0.29" stop-color="#FFE57A"/>
<stop offset="0.39" stop-color="#FFD054"/>
<stop offset="0.5" stop-color="#FFBF36"/>
<stop offset="0.61" stop-color="#FFB11E"/>
<stop offset="0.72" stop-color="#FFA80D"/>
<stop offset="0.85" stop-color="#FFA203"/>
<stop offset="1" stop-color="#FFA100"/>
</linearGradient>
<linearGradient id="paint2_linear_1098_915" x1="0.437515" y1="33.0292" x2="1.09851" y2="33.0292" gradientUnits="userSpaceOnUse">
<stop stop-color="#FFCC00"/>
<stop offset="0.19" stop-color="#FFFFA9"/>
<stop offset="0.2" stop-color="#FFFDA6"/>
<stop offset="0.29" stop-color="#FFE57A"/>
<stop offset="0.39" stop-color="#FFD054"/>
<stop offset="0.5" stop-color="#FFBF36"/>
<stop offset="0.61" stop-color="#FFB11E"/>
<stop offset="0.72" stop-color="#FFA80D"/>
<stop offset="0.85" stop-color="#FFA203"/>
<stop offset="1" stop-color="#FFA100"/>
</linearGradient>
<linearGradient id="paint3_linear_1098_915" x1="0.437089" y1="26.7806" x2="1.09808" y2="26.7806" gradientUnits="userSpaceOnUse">
<stop stop-color="#FFCC00"/>
<stop offset="0.19" stop-color="#FFFFA9"/>
<stop offset="0.2" stop-color="#FFFDA6"/>
<stop offset="0.29" stop-color="#FFE57A"/>
<stop offset="0.39" stop-color="#FFD054"/>
<stop offset="0.5" stop-color="#FFBF36"/>
<stop offset="0.61" stop-color="#FFB11E"/>
<stop offset="0.72" stop-color="#FFA80D"/>
<stop offset="0.85" stop-color="#FFA203"/>
<stop offset="1" stop-color="#FFA100"/>
</linearGradient>
<linearGradient id="paint4_linear_1098_915" x1="0.437376" y1="30.0236" x2="1.09837" y2="30.0236" gradientUnits="userSpaceOnUse">
<stop stop-color="#FFCC00"/>
<stop offset="0.19" stop-color="#FFFFA9"/>
<stop offset="0.2" stop-color="#FFFDA6"/>
<stop offset="0.29" stop-color="#FFE57A"/>
<stop offset="0.39" stop-color="#FFD054"/>
<stop offset="0.5" stop-color="#FFBF36"/>
<stop offset="0.61" stop-color="#FFB11E"/>
<stop offset="0.72" stop-color="#FFA80D"/>
<stop offset="0.85" stop-color="#FFA203"/>
<stop offset="1" stop-color="#FFA100"/>
</linearGradient>
<linearGradient id="paint5_linear_1098_915" x1="7.43747" y1="36.7686" x2="0.530141" y2="36.2593" gradientUnits="userSpaceOnUse">
<stop stop-color="#8A8A8A"/>
<stop offset="1" stop-color="#E6E6E6"/>
</linearGradient>
<linearGradient id="paint6_linear_1098_915" x1="29.9243" y1="39.9853" x2="34.8652" y2="34.8958" gradientUnits="userSpaceOnUse">
<stop stop-color="#8A8A8A"/>
<stop offset="1" stop-color="#E6E6E6"/>
</linearGradient>
<linearGradient id="paint7_linear_1098_915" x1="2.44043" y1="29.7333" x2="9.30814" y2="29.5679" gradientUnits="userSpaceOnUse">
<stop stop-color="#311D52"/>
<stop offset="1" stop-color="#25002D"/>
</linearGradient>
<linearGradient id="paint8_linear_1098_915" x1="34.4985" y1="31.5829" x2="26.8657" y2="28.0914" gradientUnits="userSpaceOnUse">
<stop stop-color="#311D52"/>
<stop offset="1" stop-color="#25002D"/>
</linearGradient>
<linearGradient id="paint9_linear_1098_915" x1="14.6821" y1="49.293" x2="20.2014" y2="27.3472" gradientUnits="userSpaceOnUse">
<stop stop-color="#8A8A8A"/>
<stop offset="1" stop-color="white"/>
</linearGradient>
<linearGradient id="paint10_linear_1098_915" x1="20.439" y1="33.5911" x2="16.5497" y2="41.3152" gradientUnits="userSpaceOnUse">
<stop stop-color="#E3C20E"/>
<stop offset="1" stop-color="#BC4F00"/>
</linearGradient>
<linearGradient id="paint11_linear_1098_915" x1="2.47345" y1="16.3104" x2="5.8038" y2="18.2213" gradientUnits="userSpaceOnUse">
<stop stop-color="#E3830E"/>
<stop offset="1" stop-color="#BC850B"/>
</linearGradient>
<linearGradient id="paint12_linear_1098_915" x1="35.9793" y1="15.2859" x2="31.2678" y2="17.8515" gradientUnits="userSpaceOnUse">
<stop stop-color="#E3830E"/>
<stop offset="1" stop-color="#BC850B"/>
</linearGradient>
<linearGradient id="paint13_linear_1098_915" x1="8.9579" y1="27.6456" x2="27.9559" y2="8.63549" gradientUnits="userSpaceOnUse">
<stop stop-color="#8A8A8A"/>
<stop offset="0.18" stop-color="#A1A1A1"/>
<stop offset="0.55" stop-color="#CDCDCD"/>
<stop offset="0.83" stop-color="#E7E7E7"/>
<stop offset="1" stop-color="#F2F2F2"/>
</linearGradient>
<linearGradient id="paint14_linear_1098_915" x1="19.1436" y1="11.4155" x2="17.6913" y2="25.2678" gradientUnits="userSpaceOnUse">
<stop stop-color="#311D52"/>
<stop offset="1" stop-color="#25002D"/>
</linearGradient>
<radialGradient id="paint15_radial_1098_915" cx="0" cy="0" r="1" gradientUnits="userSpaceOnUse" gradientTransform="translate(24.0494 13.1851) scale(2.00717 3.05659)">
<stop stop-color="#6ACFFF"/>
<stop offset="0.2" stop-color="#53A3C9"/>
<stop offset="0.6" stop-color="#274C5E"/>
<stop offset="0.87" stop-color="#0A151A"/>
<stop offset="1"/>
</radialGradient>
<radialGradient id="paint16_radial_1098_915" cx="0" cy="0" r="1" gradientUnits="userSpaceOnUse" gradientTransform="translate(14.3984 4181.58) scale(2.00717 3.05659)">
<stop stop-color="#6ACFFF"/>
<stop offset="0.2" stop-color="#53A3C9"/>
<stop offset="0.6" stop-color="#274C5E"/>
<stop offset="0.87" stop-color="#0A151A"/>
<stop offset="1"/>
</radialGradient>
<linearGradient id="paint17_linear_1098_915" x1="13.6642" y1="20.3003" x2="13.7104" y2="15.5905" gradientUnits="userSpaceOnUse">
<stop stop-color="#BC850B"/>
<stop offset="0.99" stop-color="#E3E554"/>
</linearGradient>
<linearGradient id="paint18_linear_1098_915" x1="23.4533" y1="20.2343" x2="23.1893" y2="15.5706" gradientUnits="userSpaceOnUse">
<stop stop-color="#BC850B"/>
<stop offset="0.99" stop-color="#E3E554"/>
</linearGradient>
<linearGradient id="paint19_linear_1098_915" x1="13.3796" y1="3.93782" x2="22.27" y2="3.93782" gradientUnits="userSpaceOnUse">
<stop stop-color="#D88B00"/>
<stop offset="0.99" stop-color="#E3FF9D"/>
</linearGradient>
<linearGradient id="paint20_linear_1098_915" x1="13.4854" y1="5.31867" x2="22.2436" y2="5.31867" gradientUnits="userSpaceOnUse">
<stop stop-color="#D88B00"/>
<stop offset="0.99" stop-color="#E3FF9D"/>
</linearGradient>
<linearGradient id="paint21_linear_1098_915" x1="0.437741" y1="30.0233" x2="1.09873" y2="30.0233" gradientUnits="userSpaceOnUse">
<stop stop-color="#FFCC00"/>
<stop offset="0.19" stop-color="#FFFFA9"/>
<stop offset="0.2" stop-color="#FFFDA6"/>
<stop offset="0.29" stop-color="#FFE57A"/>
<stop offset="0.39" stop-color="#FFD054"/>
<stop offset="0.5" stop-color="#FFBF36"/>
<stop offset="0.61" stop-color="#FFB11E"/>
<stop offset="0.72" stop-color="#FFA80D"/>
<stop offset="0.85" stop-color="#FFA203"/>
<stop offset="1" stop-color="#FFA100"/>
</linearGradient>
<linearGradient id="paint22_linear_1098_915" x1="0.437521" y1="30.0501" x2="1.09851" y2="30.0501" gradientUnits="userSpaceOnUse">
<stop stop-color="#FFCC00"/>
<stop offset="0.19" stop-color="#FFFFA9"/>
<stop offset="0.2" stop-color="#FFFDA6"/>
<stop offset="0.29" stop-color="#FFE57A"/>
<stop offset="0.39" stop-color="#FFD054"/>
<stop offset="0.5" stop-color="#FFBF36"/>
<stop offset="0.61" stop-color="#FFB11E"/>
<stop offset="0.72" stop-color="#FFA80D"/>
<stop offset="0.85" stop-color="#FFA203"/>
<stop offset="1" stop-color="#FFA100"/>
</linearGradient>
<linearGradient id="paint23_linear_1098_915" x1="0.437892" y1="30.0236" x2="1.09888" y2="30.0236" gradientUnits="userSpaceOnUse">
<stop stop-color="#FFCC00"/>
<stop offset="0.19" stop-color="#FFFFA9"/>
<stop offset="0.2" stop-color="#FFFDA6"/>
<stop offset="0.29" stop-color="#FFE57A"/>
<stop offset="0.39" stop-color="#FFD054"/>
<stop offset="0.5" stop-color="#FFBF36"/>
<stop offset="0.61" stop-color="#FFB11E"/>
<stop offset="0.72" stop-color="#FFA80D"/>
<stop offset="0.85" stop-color="#FFA203"/>
<stop offset="1" stop-color="#FFA100"/>
</linearGradient>
<linearGradient id="paint24_linear_1098_915" x1="0.43756" y1="33.0292" x2="1.09855" y2="33.0292" gradientUnits="userSpaceOnUse">
<stop stop-color="#FFCC00"/>
<stop offset="0.19" stop-color="#FFFFA9"/>
<stop offset="0.2" stop-color="#FFFDA6"/>
<stop offset="0.29" stop-color="#FFE57A"/>
<stop offset="0.39" stop-color="#FFD054"/>
<stop offset="0.5" stop-color="#FFBF36"/>
<stop offset="0.61" stop-color="#FFB11E"/>
<stop offset="0.72" stop-color="#FFA80D"/>
<stop offset="0.85" stop-color="#FFA203"/>
<stop offset="1" stop-color="#FFA100"/>
</linearGradient>
<clipPath id="clip0_1098_915">
<rect width="214.492" height="49.6419" fill="white" transform="translate(0.4375 0.615234)"/>
</clipPath>
</defs>
</svg>
