<svg width="44" height="44" viewBox="0 0 44 44" fill="none" xmlns="http://www.w3.org/2000/svg">
<path d="M18.157 33.0775C27.4705 33.0775 32.563 25.36 32.563 18.6715C32.563 18.451 32.563 18.2305 32.5525 18.0205C33.5395 17.3065 34.4005 16.414 35.083 15.3955C34.18 15.7945 33.2035 16.0675 32.1745 16.1935C33.2245 15.5635 34.0225 14.5765 34.4005 13.39C33.424 13.9675 32.3425 14.3875 31.1875 14.6185C30.2635 13.6315 28.951 13.0225 27.4915 13.0225C24.6985 13.0225 22.4305 15.2905 22.4305 18.0835C22.4305 18.4825 22.4725 18.871 22.567 19.2385C18.3565 19.0285 14.629 17.0125 12.13 13.9465C11.6995 14.692 11.4475 15.5635 11.4475 16.4875C11.4475 18.241 12.34 19.795 13.705 20.698C12.8755 20.677 12.0985 20.446 11.416 20.068C11.416 20.089 11.416 20.11 11.416 20.131C11.416 22.588 13.159 24.625 15.4795 25.0975C15.0595 25.213 14.608 25.276 14.146 25.276C13.8205 25.276 13.5055 25.2445 13.1905 25.1815C13.831 27.1975 15.7 28.657 17.9155 28.699C16.183 30.0535 13.999 30.862 11.626 30.862C11.2165 30.862 10.8175 30.841 10.4185 30.7885C12.634 32.2375 15.301 33.0775 18.157 33.0775Z" fill="white"/>
<rect x="0.5" y="0.5" width="43" height="43" rx="21.5" stroke="#686868"/>
</svg>
